<svg width="200" height="132" viewBox="0 0 200 132" fill="none" xmlns="http://www.w3.org/2000/svg">
<path fill-rule="evenodd" clip-rule="evenodd" d="M145.933 92.8441C147.021 93.4645 150.787 95.7175 148.436 97.0018C141.525 100.757 109.646 119.237 102.637 123.058C101.309 123.776 99.372 124.037 97.3367 123.874C95.3123 123.711 93.2226 123.112 91.59 122.165C62.5193 105.252 32.9044 87.9028 3.42011 71.8709C-0.987843 69.4765 6.08665 65.2319 8.13281 64.0673C10.8211 62.5327 43.8536 44.2261 47.5432 42.3105C51.592 40.21 57.2624 41.6467 61.235 43.4643C89.5004 61.858 116.938 76.3116 145.944 92.8441H145.933Z" fill="#F4F9FF"/>
<path fill-rule="evenodd" clip-rule="evenodd" d="M21.0299 53.0747L3.95312 62.9791C5.01974 63.2838 6.05371 66.5382 7.83866 68.4646C9.29709 70.0427 11.4738 71.0115 13.4221 69.8795L22.7386 63.8608L21.0299 53.0747Z" fill="#ECF5FF"/>
<path fill-rule="evenodd" clip-rule="evenodd" d="M20.5843 50.9307C18.6687 52.0408 17.5259 53.804 17.4389 55.7957L16.8402 66.56C16.3178 69.2809 16.1981 70.206 14.7832 71.9365L56.7948 47.5242C58.9933 46.2399 59.7661 43.1596 59.9947 40.8849C60.2667 38.2184 60.0491 35.3234 60.0491 32.831C60.0491 30.7195 60.5824 27.672 62.5959 26.5183L20.5843 50.9307Z" fill="#C2D6EB"/>
<path fill-rule="evenodd" clip-rule="evenodd" d="M84.0254 61.4553C83.3615 61.8472 82.5779 61.9449 81.8378 61.7925H81.816C79.2692 61.2701 77.2339 58.288 76.2 56.1003C75.0354 53.6623 74.317 50.7674 74.3279 48.0573C74.3279 46.8709 74.3388 45.7064 74.3497 44.5418C74.3497 43.7255 74.3606 42.9092 74.3606 42.0821C74.3715 38.9584 74.0667 36.7271 73.0545 33.7776C72.0641 30.9478 70.4533 27.9983 68.2656 25.9086C66.4371 24.1672 63.6074 22.5455 61.1258 23.9821L19.1143 48.3947C24.2514 47.7417 28.322 52.7916 30.4661 58.2444C33.9489 67.1474 29.2906 75.9091 35.0591 83.506C36.4304 85.3127 39.7391 88.382 42.0247 87.065L84.0363 61.4445L84.0254 61.4553Z" fill="#ECF5FF"/>
<path fill-rule="evenodd" clip-rule="evenodd" d="M28.5402 47.5241L63.6405 27.4108C63.4881 27.302 63.3358 27.1931 63.1834 27.0842C63.0963 27.0189 62.9984 26.9646 62.9113 26.8993C62.1059 26.3878 61.2025 25.996 60.2774 25.8545L25.0791 46.022C25.5906 46.0764 26.1022 46.2071 26.592 46.403C27.2885 46.686 27.9415 47.067 28.5402 47.5241ZM40.5668 84.6054L70.9544 67.1586C70.9109 66.6688 70.8891 66.1789 70.8891 65.7001V65.4606L39.5437 83.4625C39.8593 83.8761 40.1967 84.2571 40.5559 84.6163L40.5668 84.6054ZM37.2037 79.1417C37.0295 78.6628 36.8663 78.1838 36.7139 77.6832L70.9109 58.0487V59.7902L37.2037 79.1417ZM35.7126 73.8738V72.1323L70.7041 52.0408V53.7823L35.7126 73.8738ZM35.7344 66.4619V64.7206L70.7368 44.6291V46.3704L35.7344 66.4619ZM35.2772 59.3223C35.1684 58.8107 35.0378 58.299 34.8963 57.7984L69.9205 37.696C70.062 38.1966 70.1817 38.7081 70.2905 39.2196L35.2664 59.3223H35.2772ZM32.7196 52.5305C32.4692 52.0843 32.208 51.6599 31.9359 51.2354L66.9819 31.1221L67.0145 31.1766C67.2757 31.5793 67.526 31.9927 67.7655 32.4063L32.7196 52.5199V52.5305Z" fill="#C2D6EB"/>
<path fill-rule="evenodd" clip-rule="evenodd" d="M43.4834 88.393L85.495 63.9803C87.8459 62.609 88.5533 59.3113 88.6295 56.7863L88.7166 30.11C88.7166 27.9985 89.2499 24.951 91.2525 23.7755L48.958 47.6764C48.7403 47.807 48.5335 47.9595 48.3267 48.1446C47.7063 48.7214 46.6397 49.9186 46.3132 51.6382C44.5718 61.031 47.358 84.921 43.4834 88.393Z" fill="#C2D6EB"/>
<path fill-rule="evenodd" clip-rule="evenodd" d="M112.661 76.9103C111.039 77.8572 109.221 77.0083 107.937 75.8873L107.905 75.8546C106.37 74.505 105.194 72.5024 104.433 70.6412L104.411 70.5868C103.507 68.3773 102.963 65.9067 102.963 63.5123C102.985 55.1426 102.996 46.7404 103.029 38.3708C103.039 34.5832 101.864 30.6214 100.068 27.3671C99.2627 25.9087 98.3703 24.6569 97.2166 23.4597C96.2697 22.4911 95.1378 21.6205 93.8752 21.1198C92.5365 20.5865 91.0672 20.5211 89.7938 21.2612L47.7822 45.6738C50.4379 45.5432 52.2555 46.1635 54.0513 47.7416C55.8145 49.2871 57.262 51.4858 58.2633 53.5972C59.6565 56.525 60.2769 59.8552 60.266 63.1421C60.2442 71.5009 60.5707 79.9687 60.549 88.3384C60.549 89.96 60.7993 91.6143 61.2346 93.1816C61.768 95.0427 62.5516 96.9255 63.64 98.5255C64.4562 99.7445 65.6208 101.018 66.9595 101.682C68.0044 102.193 69.7131 103.021 70.7689 102.411L112.661 76.9103Z" fill="#E4F1FF"/>
<path fill-rule="evenodd" clip-rule="evenodd" d="M57.6652 44.542L92.7655 24.4286C92.6132 24.3198 92.4608 24.2109 92.3084 24.1021C92.2213 24.0368 92.1234 23.9824 92.0363 23.9171C91.2309 23.4056 90.3275 23.0136 89.4024 22.8721L54.2041 43.0398C54.7156 43.0943 55.2272 43.225 55.717 43.4209C56.4135 43.7039 57.0666 44.0848 57.6652 44.542ZM69.4088 97.84L99.7965 80.3932C99.7529 79.9035 99.7312 79.4136 99.7312 78.9347V78.6953L68.3857 96.6972C68.7014 97.1108 69.0388 97.4918 69.3979 97.8509L69.4088 97.84ZM66.0457 92.3763C65.8716 91.8975 65.7083 91.4185 65.5559 90.9178L99.7529 71.2836V73.0249L66.0457 92.3763ZM64.805 85.6938V83.9523L99.7856 63.8716V65.6129L64.805 85.6938ZM64.8267 78.2818L99.8074 58.2012V56.4597L64.8267 76.5403V78.2818ZM64.8485 70.8808L99.84 50.7893V49.0477L64.8485 69.1393V70.8808ZM64.8703 63.4688V61.7276L99.8727 41.6361V43.3773L64.8703 63.4688ZM64.4131 56.3292C64.3043 55.8177 64.1737 55.306 64.0322 54.8053L99.0564 34.7029C99.1979 35.2036 99.3176 35.715 99.4264 36.2266L64.4023 56.3292H64.4131ZM61.8554 49.5375C61.6051 49.0912 61.3439 48.6668 61.0718 48.2423L96.1177 28.129L96.1504 28.1835C96.4116 28.5862 96.6619 28.9997 96.9014 29.4133L61.8554 49.5268V49.5375Z" fill="#C2D6EB"/>
<path fill-rule="evenodd" clip-rule="evenodd" d="M118.114 29.2174C118.495 28.3249 119.083 27.465 119.932 26.9752L77.2669 50.7565C76.6901 51.0939 76.2221 51.6164 75.8738 52.1715C75.8085 52.2803 75.7541 52.3892 75.6888 52.5089C74.9487 53.8912 74.731 55.5019 74.7201 57.0474V57.0801C74.6875 69.9121 74.7419 83.1795 74.7092 96.0116C74.7092 97.4591 74.5242 98.9719 74.0344 100.343C73.6099 101.573 73.3596 103.13 72.1406 103.837L114.152 79.4246C115.317 78.7498 116.122 77.4871 116.579 76.2572C116.601 76.2137 116.612 76.1594 116.634 76.105C117.113 74.701 117.298 73.2861 117.309 71.8168V71.7732C117.341 58.9412 117.374 46.1308 117.406 33.2988C117.406 31.9383 117.602 30.4799 118.136 29.2065L118.114 29.2174Z" fill="#C2D6EB"/>
<path fill-rule="evenodd" clip-rule="evenodd" d="M141.254 93.4102C139.099 94.6619 136.748 92.8334 135.409 91.2335C134.353 89.7642 133.733 88.8826 133.014 87.1411C132.884 86.8364 132.764 86.51 132.655 86.1944C132.644 86.1617 132.634 86.129 132.623 86.0963C131.948 84.1699 131.545 82.0583 131.556 80.0122C131.589 67.1801 131.654 54.4136 131.687 41.5598C131.687 39.6333 131.382 37.6307 130.87 35.7804C130.228 33.473 129.27 31.2854 127.964 29.2828C126.941 27.7155 125.701 26.2353 124.144 25.1796C124.057 25.1143 123.959 25.0599 123.872 24.9946C122.261 23.9607 120.226 23.4165 118.463 24.4395L76.4512 48.8519C79.4551 48.0356 82.7964 50.5172 84.6249 53.0314C86.3446 55.4476 87.5527 58.1902 88.2492 61.0744C88.6519 62.6961 88.8696 64.4159 88.8696 66.0811C88.837 78.9349 88.7717 91.5819 88.739 104.425C88.7172 108.615 90.8069 116.364 95.1278 118.356C96.0312 118.868 98.3494 119.194 99.2528 118.672L141.264 93.3993L141.254 93.4102Z" fill="#ECF5FF"/>
<path fill-rule="evenodd" clip-rule="evenodd" d="M86.2024 47.6655L121.553 27.3999C121.401 27.2911 121.248 27.1822 121.096 27.0734C121.009 27.0081 120.911 26.9537 120.824 26.8884C120.018 26.3769 119.115 25.9851 118.19 25.8436L82.7305 46.1637C83.7427 46.2616 84.7331 46.6861 85.6038 47.2411C85.6909 47.2956 85.7888 47.3608 85.8759 47.4261C85.9847 47.5023 86.1045 47.5784 86.2133 47.6655H86.2024ZM98.893 115.123L134.222 94.8361C133.776 94.5314 133.362 94.1723 132.992 93.8022L97.6848 114.079C98.044 114.449 98.4576 114.808 98.893 115.123ZM95.0074 109.997C94.9204 109.812 94.8333 109.616 94.7462 109.399C94.6374 109.137 94.5285 108.865 94.4306 108.593L129.683 88.2949C129.77 88.5453 129.868 88.8064 129.977 89.0458C130.075 89.2744 130.162 89.4922 130.26 89.699L95.0074 109.997ZM93.3422 103.619C93.3096 103.173 93.2878 102.716 93.2878 102.281V101.922L128.519 81.6884V81.9278C128.519 82.4067 128.541 82.8965 128.584 83.3863L93.3422 103.63V103.619ZM93.3096 96.2402V94.4987L128.551 74.2658V76.007L93.3096 96.2402ZM93.3313 88.8282L128.562 68.5951V66.8538L93.3422 87.0867V88.8282H93.3313ZM93.364 81.4163L128.595 61.1943V59.4528L93.3749 79.675V81.4163H93.364ZM93.3966 74.0046V72.2631L128.638 52.0408V53.7823L93.3966 74.0046ZM93.4184 66.5926V64.8511L128.66 44.6291V46.3704L93.4184 66.5926ZM92.9504 59.4637C92.8524 58.9848 92.7327 58.5058 92.6021 58.0487L92.5695 57.94L127.833 37.7069C127.975 38.2076 128.094 38.719 128.203 39.2305L92.9504 59.4637ZM90.3818 52.6722C90.1641 52.2912 89.9356 51.9103 89.6961 51.5402C89.6635 51.4858 89.6308 51.4315 89.5873 51.3879L124.884 31.133L124.916 31.1875C125.177 31.5902 125.428 32.0037 125.667 32.4172L90.3818 52.6722Z" fill="#C2D6EB"/>
<path fill-rule="evenodd" clip-rule="evenodd" d="M145.672 8.7883C145.476 8.42914 144.997 7.78709 144.518 8.07007L102.507 32.4824C102.942 32.2212 103.149 32.9831 103.345 33.3096C103.671 33.8756 103.813 34.583 103.813 35.2361C103.748 56.8187 102.768 91.1571 102.703 112.707C102.703 115.297 101.897 119.401 100.7 120.358L142.712 95.9461C145.161 94.5312 145.846 90.9287 145.857 88.3274C145.857 66.7666 146.01 32.1887 146.075 10.617C146.075 9.98572 145.955 9.35426 145.661 8.7883H145.672Z" fill="#ECF5FF"/>
<path fill-rule="evenodd" clip-rule="evenodd" d="M103.062 32.5152C102.55 32.2213 102.028 32.6022 102.028 34.0279C101.962 55.5671 101.843 89.971 101.788 111.499C101.788 114.22 101.048 116.255 99.8725 117.355C98.6862 118.465 97.1625 118.487 95.6387 117.605C94.115 116.723 92.6022 114.949 91.4158 112.468C90.2513 110.019 89.5329 107.146 89.5438 104.425C89.5764 91.5927 89.6417 78.8259 89.6744 65.9721C89.6744 62.7178 88.8037 59.246 87.3888 56.2638C85.9086 53.1401 83.8298 50.5389 81.5224 49.2111C79.2041 47.8724 77.1253 48.0683 75.6342 49.4723C74.1976 50.811 73.3051 53.2598 73.2942 56.5141C73.2616 69.3462 73.2289 82.1563 73.1963 94.9883C73.1963 97.7093 72.4562 99.7447 71.2807 100.844C70.0944 101.954 68.5706 101.976 67.0469 101.094C65.5232 100.213 64.0103 98.4386 62.824 95.9571C61.6594 93.5083 60.9411 90.6348 60.9519 87.9138C60.9737 79.5441 60.9846 71.142 61.0173 62.7723C61.0173 59.5181 60.1574 56.0462 58.7317 53.0531C57.2515 49.9295 55.1726 47.3174 52.8653 45.9895C50.5579 44.6617 48.4682 44.8576 46.9771 46.2616C45.5404 47.6003 44.6589 50.0492 44.648 53.3034C44.6262 62.0432 44.5936 70.7827 44.5718 79.5224C44.5718 82.2434 43.8317 84.2788 42.6562 85.3781C41.4699 86.4882 39.9462 86.51 38.4224 85.6393C36.8987 84.7577 35.3858 82.9836 34.1995 80.5021C33.0349 78.0533 32.3166 75.1907 32.3275 72.4588C32.3275 70.1188 32.3601 67.8442 32.371 65.4933C32.371 62.2499 31.5003 58.7671 30.0854 55.7741C28.5943 52.6613 26.5264 50.0598 24.219 48.7211C21.9116 47.3824 19.822 47.5895 18.3309 48.9826C16.8942 50.3322 16.0017 52.781 15.9908 56.0244C15.9908 58.3644 15.9582 60.6499 15.9582 63.0008C15.9473 66.9843 13.9011 71.4901 9.80883 69.1283C8.10006 68.1488 6.67427 66.2116 5.65119 64.111C5.41175 63.6212 5.06348 63.2512 4.72608 63.0662C3.93156 62.6091 3.22411 63.1096 4.21454 65.0578C5.60767 67.7896 7.56675 70.2387 9.78705 71.523C15.0875 74.5813 18.0043 69.6074 18.0152 64.2091C18.0152 61.869 18.0479 59.5833 18.0479 57.2324C18.0479 54.5114 18.788 52.4763 19.9634 51.3879C21.0736 50.3539 22.5756 50.1798 24.1973 51.1158C25.8298 52.0518 27.3209 53.9564 28.4202 56.2638C29.5847 58.7018 30.3031 61.575 30.2922 64.2959C30.2922 66.6251 30.2595 68.9217 30.2487 71.2618C30.2487 74.5051 31.1194 77.9879 32.5343 80.9809C34.1342 84.3332 36.2674 86.7929 38.4006 88.0228C40.5448 89.2526 42.678 89.2744 44.2888 87.7724C45.6493 86.499 46.5309 84.2025 46.6179 81.1877L46.705 54.5114C46.705 51.7904 47.4451 49.7553 48.6097 48.6451C49.7198 47.6112 51.2218 47.437 52.8435 48.373C54.4652 49.309 55.9672 51.2137 57.0664 53.5211C58.231 55.9699 58.9493 58.8431 58.9384 61.5641V88.284C59.167 91.0593 59.9724 93.9109 61.1696 96.425C62.7696 99.7773 64.9028 102.226 67.036 103.467C69.1801 104.697 71.3134 104.719 72.9242 103.217C74.3608 101.867 75.2533 99.4181 75.2642 96.1638C75.2969 83.3318 75.3295 70.5217 75.3622 57.6897C75.3622 54.9687 76.1022 52.9224 77.2777 51.834C78.3878 50.7892 79.8789 50.6259 81.5115 51.5619C83.1332 52.4979 84.6243 54.3917 85.7344 56.7099C86.899 59.1479 87.6065 62.0323 87.6065 64.7424C87.5738 77.5744 87.5085 90.3518 87.4759 103.195C87.4759 106.449 88.3466 109.921 89.7615 112.914C91.3614 116.266 93.4946 118.715 95.6279 119.956C97.7611 121.186 99.9052 121.208 101.516 119.706C102.953 118.356 103.845 115.907 103.856 112.653C103.921 91.103 104.008 56.5576 104.074 34.9859C104.074 33.7233 103.573 32.7655 103.062 32.4716V32.5152Z" fill="#DAEAFA"/>
<path fill-rule="evenodd" clip-rule="evenodd" d="M107.316 36.3354L143.56 15.9609C143.56 15.3841 143.57 14.8181 143.581 14.2412L107.316 34.6266V36.3354Z" fill="#C2D6EB"/>
<path fill-rule="evenodd" clip-rule="evenodd" d="M106.969 39.1327L107.001 60.2363L124.024 50.3973L123.991 29.3046L106.969 39.1327Z" fill="white"/>
<path fill-rule="evenodd" clip-rule="evenodd" d="M112.542 41.0156C113.423 40.2537 114.305 39.4918 115.186 38.7299C116.068 37.968 116.96 37.2063 117.842 36.4445C118.201 36.8145 118.56 37.1952 118.919 37.5653C118.941 38.8278 119.105 39.2524 118.778 40.6999C118.68 41.1462 118.593 41.5924 118.528 42.0277C118.375 42.8005 118.223 43.5734 118.071 44.3352C117.2 44.923 116.329 45.4996 115.458 46.0765C114.762 46.4357 114.054 46.7948 113.358 47.154C112.977 46.0003 112.781 45.01 112.661 44.2699C112.476 43.0726 112.476 41.8319 112.542 41.0156Z" fill="#0A080D"/>
<path fill-rule="evenodd" clip-rule="evenodd" d="M113.652 47.8943C113.706 49.0262 113.423 49.7771 113.031 50.4736C112.563 51.3335 111.791 52.0953 110.648 53.1401C109.048 54.5986 108.515 55.1537 108.221 55.9374C107.96 56.6448 107.96 57.4828 107.981 58.8868C110.539 57.4284 113.108 55.959 115.676 54.4897C118.256 53.0204 120.835 51.5404 123.425 50.0602C123.447 48.6235 123.425 47.7961 123.164 47.3825C122.87 46.9254 122.326 47.0016 120.705 47.3825C119.551 47.6546 118.767 47.7853 118.288 47.4588C117.929 47.2194 117.679 46.7513 117.69 45.7282C117.69 45.652 117.69 45.5758 117.69 45.4888C116.699 46.2071 116.188 46.599 115.676 46.9146C115.165 47.2302 114.642 47.4805 113.652 47.9049V47.8943Z" fill="#DA9569"/>
<path fill-rule="evenodd" clip-rule="evenodd" d="M116.655 47.3934C116.818 47.1648 116.96 46.8927 117.177 46.5444C117.33 46.2941 117.526 46.022 117.7 45.7499C117.7 45.6629 117.7 45.5867 117.7 45.4996C116.709 46.218 116.165 46.588 115.621 46.8819C115.077 47.1758 114.522 47.4045 113.531 47.8289C113.531 47.8942 113.531 47.9703 113.542 48.0357C113.705 48.101 113.999 48.2207 114.141 48.286C114.358 48.3948 114.5 48.4927 114.663 48.5363C114.772 48.5689 114.881 48.5798 115.044 48.5363C115.262 48.4927 116.045 48.0357 116.263 47.8398C116.426 47.6874 116.546 47.5458 116.644 47.3934H116.655Z" fill="#CE8759"/>
<path fill-rule="evenodd" clip-rule="evenodd" d="M112.933 50.6477C112.455 51.4314 111.714 52.1715 110.648 53.1402C109.048 54.5986 108.515 55.1537 108.221 55.9374C107.96 56.6557 107.96 57.4938 107.981 58.9304C110.539 57.472 113.108 56.0026 115.676 54.5333C118.256 53.064 120.835 51.5837 123.425 50.1035C123.447 48.6342 123.436 47.7853 123.164 47.3717C122.87 46.9146 122.326 46.9907 120.705 47.3717C119.714 47.6111 118.996 47.731 118.517 47.5569C118.19 48.8629 116.873 50.1582 115.611 50.8656C114.337 51.5731 113.108 51.6817 112.944 50.6368L112.933 50.6477Z" fill="#1989A5"/>
<path fill-rule="evenodd" clip-rule="evenodd" d="M112.421 51.3553C112.922 52.6178 114.304 52.4545 115.675 51.6056C117.058 50.7458 118.429 49.1892 118.919 47.6437C118.734 47.5893 118.549 47.535 118.364 47.4806C118.146 48.2316 117.025 49.5266 115.849 50.3538C114.685 51.181 113.455 51.5402 113.031 50.441C112.824 50.7457 112.617 51.0506 112.41 51.3553H112.421Z" fill="#31ACCB"/>
<path fill-rule="evenodd" clip-rule="evenodd" d="M112.911 44.3461C112.911 44.3461 112.878 44.2916 112.867 44.259C112.693 43.9978 112.476 44.0304 112.356 44.2154C111.953 44.8467 112.356 45.391 112.497 45.7175C112.573 46.0767 112.497 46.4902 112.824 46.4357C112.976 46.414 113.074 46.2288 113.216 45.7608C113.194 45.2819 113.172 44.7923 113.15 44.3134C113.063 44.3134 112.987 44.3244 112.911 44.3352V44.3461Z" fill="#E7A376"/>
<path fill-rule="evenodd" clip-rule="evenodd" d="M118.386 41.1896C118.386 41.1896 118.418 41.0918 118.429 41.0482C118.603 40.5802 118.821 40.3625 118.952 40.4169C119.354 40.591 118.952 41.5924 118.81 42.093C118.734 42.5393 118.81 42.8767 118.484 43.1923C118.331 43.3447 118.233 43.2685 118.092 42.9747C118.114 42.4631 118.124 41.9623 118.146 41.4508C118.222 41.3637 118.309 41.2767 118.386 41.1896Z" fill="#F0B186"/>
<path fill-rule="evenodd" clip-rule="evenodd" d="M116.655 47.1866C116.818 46.9471 116.96 46.6859 117.177 46.3267C117.449 45.8696 117.907 45.3147 118.059 44.8576C118.233 44.3243 118.211 43.791 118.233 43.2468C118.255 42.855 118.396 42.4196 118.473 41.8863C118.505 41.6142 118.527 41.2331 118.538 40.8521C118.538 40.5583 118.538 40.2646 118.527 39.9816C118.429 38.0225 118.037 36.3138 115.915 37.511L115.817 37.5652C115.817 37.5652 115.741 37.6088 115.708 37.6306C115.686 37.6414 115.665 37.6524 115.654 37.6632C115.632 37.6741 115.61 37.685 115.599 37.6959C115.567 37.7177 115.523 37.7395 115.49 37.7504L115.392 37.8049C113.281 39.0565 112.9 41.2113 112.802 43.2792C112.791 43.5731 112.791 43.8779 112.802 44.1609C112.802 44.5309 112.835 44.8793 112.867 45.1188C112.944 45.5541 113.085 45.8262 113.107 46.1963C113.14 46.7187 113.107 47.2847 113.281 47.6003C113.433 47.8833 113.88 47.9159 114.163 48.0574C114.38 48.1662 114.522 48.2641 114.685 48.3186C114.794 48.3512 114.903 48.3621 115.066 48.3186C115.284 48.275 116.067 47.8289 116.285 47.6221C116.448 47.4697 116.568 47.3281 116.666 47.1757L116.655 47.1866Z" fill="#F0B186"/>
<path fill-rule="evenodd" clip-rule="evenodd" d="M112.987 45.8806C113.053 46.0656 113.074 46.2615 113.085 46.4466C113.118 47.0234 113.085 47.3825 113.249 47.709C113.401 47.992 113.88 48.1988 114.163 48.3295C114.522 48.5036 114.805 48.6559 115.208 48.5798C115.327 48.558 115.512 48.471 115.687 48.3621C115.872 48.2642 116.057 48.1335 116.166 48.0247C116.568 47.6437 116.851 47.1648 117.21 46.577C117.493 46.1199 117.95 45.4125 118.081 44.9227C118.223 44.4003 118.201 44.0848 118.233 43.4535C118.244 43.2467 118.277 43.0289 118.342 42.7677C118.299 42.833 118.255 42.8985 118.223 42.9638C118.059 43.7257 117.896 43.9105 117.722 44.4112C117.591 44.7812 117.548 44.9447 117.493 45.1406C117.395 45.478 117.276 45.652 117.014 45.8588C117.091 45.5541 117.265 45.1405 117.199 45.0316C117.189 45.0099 116.851 45.1186 116.59 44.9118C116.34 44.7159 116.296 44.618 116.078 44.7704C115.872 44.9228 115.763 45.0644 115.665 45.1188C115.567 45.1732 115.48 45.1513 115.273 45.2384C115.055 45.3254 115.012 45.478 114.761 45.9677C114.5 46.4684 114.174 46.7405 114.163 46.784C114.098 46.9691 114.261 47.1757 114.348 47.3933C114.087 47.4695 113.978 47.437 113.869 47.2193C113.815 47.0887 113.771 46.9799 113.64 46.7622C113.466 46.4684 113.216 46.5228 113.053 45.946C113.031 45.9242 112.998 45.9024 112.977 45.8806H112.987ZM115.959 46.3812C115.785 46.4465 115.719 46.4793 115.665 46.5119C115.6 46.5446 115.545 46.5772 115.36 46.7187C115.208 46.8275 115.11 46.8709 115.023 46.8927C114.914 46.9036 114.794 46.8927 114.674 46.86C114.576 46.8383 114.479 46.7949 114.413 46.7405L114.435 46.7187C114.435 46.7187 114.413 46.7187 114.402 46.7187C114.664 46.5119 114.772 46.3705 114.87 46.2398C115.055 45.9786 115.121 45.848 115.371 45.6848C115.458 45.6195 115.567 45.5977 115.654 45.7174C115.752 45.5215 115.85 45.4126 115.926 45.3691C116.155 45.2385 116.242 45.2929 116.416 45.3473C116.514 45.3691 116.634 45.3799 116.906 45.2928L116.884 45.3146H116.906C116.851 45.4343 116.753 45.5866 116.644 45.7281C116.525 45.9022 116.394 46.0547 116.285 46.1636C116.198 46.2507 116.1 46.3159 115.948 46.3812H115.959Z" fill="#292430"/>
<path fill-rule="evenodd" clip-rule="evenodd" d="M115.425 39.8075C114.718 40.3952 114.696 40.1776 114.348 40.4062C114.13 40.5368 114.021 40.798 113.662 40.9504C113.532 41.9734 113.542 42.0605 112.998 43.1053C112.998 43.3339 112.998 43.5517 112.987 43.7694C112.987 44.1176 112.977 44.4222 112.966 44.6834C112.966 45.3147 113.096 45.8263 113.053 46.3378C112.9 45.7174 112.748 45.38 112.694 44.6616C112.683 44.4984 112.726 44.3679 112.683 44.2046C112.596 43.8672 112.639 43.4755 112.704 43.2361C112.694 43.0619 112.541 43.1379 112.519 43.0182C112.498 42.8985 112.585 42.7244 112.574 42.5938C112.574 42.4632 112.476 42.3979 112.498 42.2564C112.53 42.0713 112.552 41.8863 112.585 41.7013C112.411 41.5163 112.291 41.3748 112.138 41.168C112.193 41.1027 112.247 41.0374 112.302 40.9613C112.095 40.3518 112.443 40.2212 112.443 39.96C112.443 39.7859 112.302 39.8621 112.247 39.96C112.138 40.1342 112.062 40.4824 112.051 40.5042C111.932 39.5029 112.639 38.8933 113.357 38.2185C113.63 37.043 114.631 36.5098 115.284 36.401C115.98 35.2038 116.895 35.0947 117.57 35.3995C118.212 35.3015 118.636 35.1927 118.799 36.477C118.832 36.1069 118.799 35.8349 118.767 35.4867C118.865 35.8349 118.93 36.1179 118.886 36.5532C119.126 36.2158 119.126 36.1833 119.311 35.8132C119.278 36.2812 119.256 36.3792 119.115 36.8798C119.18 36.8036 119.246 36.7275 119.311 36.6513C119.256 37.0213 119.267 37.0866 119.137 37.4676C119.235 37.3696 119.344 37.2608 119.442 37.1628C119.333 37.9138 119.289 38.1641 118.941 38.7518C118.93 39.1001 118.908 39.6008 118.843 39.9164C118.778 40.2321 118.734 40.4388 118.68 40.6674C118.614 40.8959 118.56 41.1028 118.527 41.266C118.506 41.4293 118.451 41.5598 118.451 41.6904C118.429 42.6482 118.527 42.5393 118.157 43.5951C118.179 42.7135 118.353 42.7243 118.331 41.6686C118.331 41.5489 118.397 40.8851 118.353 40.4497C118.331 40.1885 118.179 40.2212 118.179 39.9382C118.168 38.9805 118.484 38.1968 117.874 38.5124C117.21 38.8607 116.993 39.3613 116.481 39.0239C115.904 39.666 115.763 39.7204 115.436 39.8184L115.425 39.8075Z" fill="#19151F"/>
<path fill-rule="evenodd" clip-rule="evenodd" d="M115.947 39.2306C114.87 39.47 114.315 38.4361 113.629 38.4579C113.041 38.4579 112.16 38.8824 112.051 39.8619C112.258 38.9477 113.215 38.6321 113.716 38.8171L113.575 38.6755C114.162 38.5666 114.979 39.9271 115.958 39.2415L115.947 39.2306Z" fill="#0A080D"/>
<path fill-rule="evenodd" clip-rule="evenodd" d="M116.841 38.7408C116.024 38.8932 116.471 37.2716 115.959 36.6621C116.351 37.0539 116.329 37.1846 116.405 37.8268C116.492 36.6295 116.83 35.6608 116.079 35.6064C117.145 35.1275 116.808 37.043 116.841 38.7517V38.7408Z" fill="#0A080D"/>
<path fill-rule="evenodd" clip-rule="evenodd" d="M116.612 36.9122C116.753 35.9436 116.59 35.5736 116.274 35.5736C116.024 35.5736 115.719 35.7367 115.164 36.27C115.545 35.6823 115.893 35.334 116.187 35.1925C116.993 34.8116 117.352 35.8347 117.167 37.0972C117.123 37.3693 117.047 37.6631 116.949 38.142C116.916 38.2944 116.884 38.4903 116.851 38.6971C116.699 38.708 116.579 38.61 116.525 38.4468C116.405 38.0441 116.579 37.1952 116.622 36.9122H116.612Z" fill="#292430"/>
<path fill-rule="evenodd" clip-rule="evenodd" d="M117.004 38.4797C117.069 37.6851 117.374 36.7383 117.308 36.0635C117.254 35.4975 117.025 35.0187 116.503 35.0405C117.014 34.9425 117.199 34.9206 117.482 35.4212C117.504 35.3451 117.526 35.258 117.559 35.1818C117.613 35.2036 117.657 35.2254 117.711 35.2472C117.711 35.2037 117.733 35.16 117.744 35.1165C118.255 35.345 118.375 35.8023 118.364 36.3356C118.331 37.2281 118.168 37.8483 117.711 38.1422C117.537 38.4143 117.363 38.5776 117.254 38.4688C117.167 38.545 117.004 38.6973 117.025 38.4906L117.004 38.4797Z" fill="#292430"/>
<path fill-rule="evenodd" clip-rule="evenodd" d="M115.937 35.4537C116.372 35.1381 116.633 35.16 116.796 35.3777C117.068 35.7369 117.036 36.5857 116.992 37.1843C116.96 37.6632 116.862 38.1748 116.818 38.5448C116.785 37.8374 116.949 36.5639 116.905 36.0524C116.84 35.3885 116.611 35.051 115.947 35.4537H115.937Z" fill="#0A080D"/>
<path fill-rule="evenodd" clip-rule="evenodd" d="M117.939 35.0949C118.69 35.6065 118.603 37.2064 117.939 38.088C118.821 37.8377 118.995 36.6403 119.213 35.8132C118.952 36.2594 118.843 36.6511 118.658 37.0756C118.832 36.1178 118.571 35.0732 117.939 35.0949Z" fill="#292430"/>
<path fill-rule="evenodd" clip-rule="evenodd" d="M119.202 36.5095C119.06 37.119 118.93 37.3912 118.603 37.9136C118.864 37.6959 119.06 37.4673 119.321 37.0755C119.202 37.4456 119.038 37.7938 118.668 38.153C118.766 38.1203 118.951 38.0552 119.147 37.7831C119.006 38.1749 118.897 38.2185 118.723 38.3709C118.799 38.5124 118.788 38.6211 118.81 38.8279C118.581 38.3055 118.309 38.4035 118.189 38.0552C118.56 37.979 118.962 37.0537 119.191 36.5095H119.202Z" fill="#292430"/>
<path fill-rule="evenodd" clip-rule="evenodd" d="M118.462 38.4796C118.8 38.9476 118.898 39.2743 118.647 39.9599C118.43 40.5477 118.441 40.6673 118.408 41.2006C118.408 40.972 118.43 40.3408 118.408 40.1885C118.354 39.8728 118.158 39.6333 118.288 38.7735C118.266 39.6116 118.462 39.7204 118.506 40.1776C118.506 39.9055 118.441 39.6769 118.419 39.4048C118.408 39.1981 118.419 38.9476 118.408 38.7408C118.462 38.9476 118.506 39.1218 118.528 39.3068C118.549 39.4918 118.56 39.6878 118.604 39.8946C118.669 39.2198 118.647 38.9912 118.473 38.4796H118.462Z" fill="#0A080D"/>
<path fill-rule="evenodd" clip-rule="evenodd" d="M117.689 38.2293C118.212 37.7287 118.56 36.7383 118.299 35.6173C118.517 36.205 118.571 37.5654 117.689 38.2293Z" fill="#0A080D"/>
<path fill-rule="evenodd" clip-rule="evenodd" d="M116.917 38.3924C117.025 37.7611 117.123 37.4455 117.2 36.7816C117.178 37.4346 117.058 37.8156 116.993 38.4251C116.96 38.7516 117.178 38.4686 117.189 38.4251C117.276 38.2292 117.254 38.1531 117.395 37.7613C117.363 38.0225 117.308 38.1422 117.298 38.2946C117.298 38.4252 117.352 38.425 117.406 38.3815C117.472 38.338 117.602 38.2184 117.7 37.7504C117.624 38.1749 117.526 38.3273 117.896 38.0661C117.613 38.3164 117.276 38.621 117.069 38.6972C116.927 38.7516 116.873 38.5992 116.906 38.4033L116.917 38.3924Z" fill="#0A080D"/>
<path fill-rule="evenodd" clip-rule="evenodd" d="M119.18 36.4768C118.952 36.8904 118.636 37.7068 118.31 37.968C118.19 38.066 118.092 38.0333 117.853 38.1856C118.038 38.0224 118.168 38.0115 118.31 37.9027C118.734 37.5761 118.897 36.836 119.18 36.4877V36.4768Z" fill="#0A080D"/>
<path fill-rule="evenodd" clip-rule="evenodd" d="M116.046 39.2742C115.458 39.4375 115.067 38.2185 114.566 37.9137C114.316 37.7614 114.054 37.6742 113.412 38.1096C114.533 37.2389 114.816 37.9791 115.262 38.556C114.86 38.0335 114.936 37.228 114.359 37.3042C114.109 37.3368 113.771 37.6199 113.401 37.99C114.958 35.7806 115.437 37.5872 116.035 39.2742H116.046Z" fill="#0A080D"/>
<path fill-rule="evenodd" clip-rule="evenodd" d="M116.176 38.9151C116.089 39.0457 115.991 39.1652 115.784 38.9802C115.49 38.7298 115.24 38.2509 115.12 37.87C114.968 37.3476 114.903 36.8688 114.522 36.9232C114.152 36.9776 113.684 37.3366 113.379 37.8482C113.836 36.5204 114.957 35.9981 115.556 36.379C115.545 36.3137 115.534 36.2594 115.523 36.1941C116.187 36.7383 116.133 37.402 116.372 38.4033C116.437 38.6754 116.47 38.719 116.307 38.7298C116.263 38.7298 116.23 38.8389 116.176 38.9042V38.9151Z" fill="#292430"/>
<path fill-rule="evenodd" clip-rule="evenodd" d="M116.416 37.4238C116.492 36.379 116.514 35.8347 115.6 36.0089C115.676 36.0524 115.741 36.107 115.817 36.1505C115.545 36.0308 115.404 36.0526 115.066 36.1941C115.241 36.1723 115.469 36.2374 115.469 36.2374V36.1287C115.926 36.2267 116.34 36.8143 116.427 37.4238H116.416Z" fill="#0A080D"/>
<path fill-rule="evenodd" clip-rule="evenodd" d="M115.97 39.1546C115.034 39.6117 114.718 38.8716 113.956 38.5668C113.466 38.3709 112.792 38.5668 112.149 39.394C113.096 37.9573 114.076 37.9465 114.838 38.6104C114.185 37.8812 113.847 37.7721 112.9 38.3816C113.564 37.7068 113.956 37.5763 114.283 37.6634C115.034 37.8702 115.23 39.1002 115.97 39.1546Z" fill="#292430"/>
<path fill-rule="evenodd" clip-rule="evenodd" d="M112.062 39.8293C112.15 39.3939 112.487 39.0676 112.748 38.9152C113.118 38.7084 113.554 38.7955 113.847 38.9152C113.782 38.839 113.706 38.7626 113.641 38.6755C114.196 38.6646 114.903 39.579 115.48 39.3831C114.968 39.8402 114.914 39.7859 114.392 39.9709C113.728 40.7219 113.358 40.7979 113.129 40.6129C112.65 40.2428 112.65 38.7082 112.062 39.8184V39.8293Z" fill="#292430"/>
<path fill-rule="evenodd" clip-rule="evenodd" d="M114.729 39.8619C114.5 39.9925 114.086 39.9925 113.836 39.8293C113.466 39.5898 113.129 39.1873 112.77 39.1546C112.563 39.1328 112.356 39.2633 112.171 39.5245C112.541 38.9912 112.911 39.0238 113.27 39.2306C113.357 39.285 113.825 39.5136 114.043 39.5463C113.847 39.5572 113.803 39.5463 113.706 39.5572C113.967 39.7422 114.457 39.8511 114.729 39.8619Z" fill="#0A080D"/>
<path fill-rule="evenodd" clip-rule="evenodd" d="M113.586 40.798C112.814 41.2225 112.552 40.3953 112.52 39.6552C112.52 39.9708 112.019 40.4713 112.65 40.9067C112.411 40.7217 112.389 40.776 112.204 40.874C112.542 41.0481 112.433 41.4292 112.89 41.3095C112.574 41.5925 112.487 41.7773 112.563 42.2127C112.65 41.7991 112.857 41.7556 113.107 41.44C112.759 41.908 112.411 42.4631 112.694 42.7896C112.639 42.2563 113.064 42.2018 113.347 41.4291C113.249 41.9297 112.824 42.5066 112.716 43.0399C113.39 42.1365 113.499 41.7231 113.575 40.7871L113.586 40.798Z" fill="#292430"/>
<path fill-rule="evenodd" clip-rule="evenodd" d="M112.781 43.0725C112.726 43.4535 112.846 43.7908 112.889 44.1065C112.966 44.5418 112.726 45.0099 113.042 45.5868C112.933 45.1732 112.933 44.7924 112.933 44.3461C112.933 43.8237 112.933 43.5081 112.955 42.9639C112.889 42.9965 112.835 43.0399 112.781 43.0725Z" fill="#0A080D"/>
<path fill-rule="evenodd" clip-rule="evenodd" d="M118.299 38.262C118.364 38.6755 118.332 39.1 118.397 39.5898C118.397 39.2415 118.397 38.915 118.375 38.5558C118.473 38.7626 118.549 39.1217 118.571 39.5244C118.593 39.0455 118.473 38.5014 118.288 38.262H118.299Z" fill="#292430"/>
<path fill-rule="evenodd" clip-rule="evenodd" d="M125.34 35.7695C125.34 34.9097 125.34 34.05 125.329 33.1902C125.329 32.3303 125.329 31.4704 125.318 30.5997C125.754 30.3385 126.189 30.0773 126.624 29.8161C126.951 29.6202 127.19 29.5222 127.343 29.5222C127.495 29.5222 127.615 29.6202 127.702 29.8052C127.789 29.9902 127.843 30.2296 127.843 30.5452C127.843 30.937 127.778 31.2962 127.647 31.6336C127.517 31.971 127.31 32.2431 127.049 32.4717C127.179 32.5261 127.299 32.6022 127.386 32.7111C127.473 32.8199 127.593 33.0268 127.745 33.3424C127.876 33.6036 127.996 33.8648 128.126 34.126C127.876 34.2784 127.626 34.4198 127.386 34.5722C127.234 34.2892 127.082 33.9956 126.929 33.7126C126.766 33.4078 126.657 33.2228 126.592 33.1466C126.537 33.0813 126.472 33.0377 126.407 33.0485C126.341 33.0485 126.233 33.0922 126.091 33.1793C126.048 33.201 126.004 33.2335 125.961 33.2553C125.961 33.6144 125.961 33.9736 125.961 34.3328C125.961 34.6919 125.961 35.0511 125.961 35.4102C125.754 35.53 125.547 35.6607 125.34 35.7804V35.7695ZM125.939 32.4172C126.091 32.3301 126.243 32.2322 126.396 32.1451C126.69 31.971 126.875 31.8296 126.951 31.7534C127.027 31.6664 127.082 31.5575 127.125 31.4269C127.169 31.2963 127.19 31.1549 127.19 31.0025C127.19 30.8284 127.158 30.7086 127.103 30.6324C127.049 30.5562 126.973 30.5343 126.864 30.567C126.809 30.5888 126.657 30.6649 126.407 30.8173C126.243 30.9153 126.08 31.0132 125.917 31.1112C125.917 31.5465 125.917 31.9927 125.917 32.4281L125.939 32.4172ZM128.431 33.9193C128.431 33.0595 128.431 32.1995 128.42 31.3288C128.42 30.469 128.42 29.5984 128.409 28.7386C129.171 28.2815 129.933 27.8352 130.695 27.3781C130.695 27.672 130.695 27.9659 130.695 28.2489C130.14 28.5754 129.585 28.9127 129.03 29.2392C129.03 29.6201 129.03 30.012 129.03 30.393C129.541 30.0882 130.053 29.7833 130.575 29.4677C130.575 29.7616 130.575 30.0555 130.575 30.3385C130.064 30.6432 129.552 30.9481 129.03 31.2528C129.03 31.4814 129.03 31.7207 129.03 31.9493C129.03 32.1778 129.03 32.4174 129.03 32.646C129.607 32.3086 130.173 31.9601 130.749 31.6227C130.749 31.9166 130.749 32.2105 130.749 32.4935C129.966 32.9615 129.182 33.4295 128.409 33.8866L128.431 33.9193ZM131.13 30.6324C131.337 30.48 131.533 30.3277 131.74 30.1644C131.783 30.4801 131.849 30.6867 131.968 30.7846C132.077 30.8826 132.23 30.8719 132.415 30.7522C132.611 30.6325 132.763 30.469 132.872 30.2731C132.97 30.0663 133.024 29.8704 133.024 29.6853C133.024 29.5656 133.002 29.4677 132.959 29.4132C132.915 29.3479 132.839 29.3264 132.73 29.3264C132.654 29.3264 132.491 29.3482 132.23 29.3917C131.903 29.4461 131.664 29.4134 131.522 29.2937C131.337 29.1195 131.239 28.8256 131.239 28.412C131.239 28.1508 131.283 27.8678 131.37 27.5848C131.457 27.3019 131.587 27.0516 131.751 26.823C131.914 26.6053 132.121 26.4203 132.36 26.2788C132.741 26.0503 133.035 26.0175 133.231 26.1917C133.427 26.3658 133.536 26.6925 133.547 27.1605C133.34 27.302 133.133 27.4325 132.926 27.5739C132.893 27.3236 132.839 27.1604 132.752 27.0951C132.665 27.0298 132.534 27.0516 132.36 27.1496C132.175 27.2584 132.045 27.3998 131.936 27.5957C131.87 27.7155 131.838 27.8462 131.838 27.9768C131.838 28.0965 131.87 28.1836 131.936 28.238C132.012 28.3033 132.208 28.3033 132.513 28.238C132.817 28.1727 133.035 28.1726 133.187 28.2162C133.329 28.2597 133.449 28.3686 133.525 28.5428C133.612 28.7169 133.655 28.9672 133.655 29.2937C133.655 29.5875 133.612 29.903 133.514 30.2186C133.416 30.5343 133.274 30.8173 133.1 31.0458C132.926 31.2744 132.698 31.4703 132.426 31.6336C132.034 31.8622 131.74 31.8949 131.522 31.7207C131.315 31.5466 131.185 31.1765 131.141 30.6215L131.13 30.6324ZM134.156 25.3103C134.363 25.1906 134.57 25.0599 134.776 24.9401C134.776 25.4081 134.776 25.8762 134.776 26.3442C134.776 26.8122 134.776 27.2802 134.776 27.7483C134.776 28.1945 134.776 28.4772 134.798 28.597C134.82 28.7929 134.885 28.9236 134.983 28.9998C135.081 29.0651 135.223 29.0542 135.397 28.9453C135.571 28.8365 135.702 28.706 135.789 28.5319C135.876 28.3577 135.93 28.1727 135.952 27.9877C135.974 27.8026 135.974 27.4978 135.974 27.0951C135.974 26.6162 135.974 26.1373 135.974 25.6584V24.2219C136.18 24.1022 136.387 23.9715 136.594 23.8518C136.594 24.3089 136.594 24.766 136.594 25.2231C136.594 25.6803 136.594 26.1374 136.594 26.5836C136.594 27.204 136.583 27.6611 136.55 27.9332C136.518 28.2053 136.453 28.4664 136.365 28.695C136.278 28.9236 136.159 29.1413 136.006 29.3373C135.854 29.5332 135.658 29.7073 135.419 29.8488C135.125 30.0229 134.896 30.099 134.744 30.0773C134.591 30.0555 134.472 29.9794 134.385 29.8488C134.298 29.7182 134.232 29.5659 134.21 29.3808C134.167 29.1087 134.145 28.6841 134.145 28.0963C134.145 27.6392 134.145 27.1712 134.145 26.7141V25.3318L134.156 25.3103ZM137.28 28.6514C137.28 27.7916 137.28 26.921 137.28 26.0612C137.28 25.1905 137.28 24.3305 137.28 23.4598C137.595 23.2748 137.911 23.0898 138.216 22.9047C138.303 23.438 138.401 23.9822 138.499 24.5155C138.586 25.0488 138.684 25.5824 138.782 26.1266C138.869 25.4844 138.967 24.8314 139.054 24.1892C139.141 23.5471 139.239 22.894 139.326 22.2519C139.641 22.0668 139.946 21.8818 140.262 21.6859C140.262 22.5566 140.262 23.4163 140.262 24.287C140.262 25.1577 140.262 26.0177 140.262 26.8884C140.066 27.0081 139.881 27.1168 139.685 27.2365C139.685 26.5617 139.685 25.8761 139.685 25.1904C139.685 24.5048 139.685 23.8298 139.685 23.1441C139.587 23.8842 139.478 24.6353 139.38 25.3754C139.282 26.1155 139.184 26.8556 139.076 27.5957C138.88 27.7155 138.673 27.8353 138.477 27.955C138.379 27.3346 138.27 26.7143 138.172 26.0939C138.074 25.4735 137.965 24.8529 137.867 24.2325C137.867 24.9182 137.867 25.5931 137.867 26.2788C137.867 26.9645 137.867 27.6392 137.867 28.3249C137.672 28.4446 137.476 28.5535 137.291 28.6732L137.28 28.6514ZM140.882 26.5073C140.882 25.6366 140.882 24.7769 140.882 23.9062C140.882 23.0355 140.882 22.1756 140.882 21.3048C141.644 20.8477 142.406 20.3906 143.179 19.9335C143.179 20.2273 143.179 20.5213 143.179 20.8151C142.624 21.1416 142.069 21.4789 141.514 21.8055C141.514 22.1864 141.514 22.5783 141.514 22.9592C142.025 22.6545 142.547 22.339 143.059 22.0342C143.059 22.3281 143.059 22.6218 143.059 22.9156C142.537 23.2204 142.025 23.5361 141.514 23.8409V24.5482C141.514 24.7877 141.514 25.0164 141.514 25.2558C142.09 24.9184 142.667 24.5702 143.244 24.2219C143.244 24.5158 143.244 24.8094 143.244 25.1033C142.46 25.5713 141.677 26.0393 140.893 26.5073H140.882Z" fill="#8AA7C6"/>
<path fill-rule="evenodd" clip-rule="evenodd" d="M125.46 42.4738V38.2074L143.331 27.9114V32.1778L125.46 42.4738ZM125.46 44.6291L143.342 34.3327V32.9831L125.46 43.2792V44.6291Z" fill="#C2D6EB"/>
<path fill-rule="evenodd" clip-rule="evenodd" d="M125.471 49.7335V48.7105L131.914 44.9989V46.0219L125.471 49.7335ZM125.471 47.4042L143.353 37.1081V35.7585L125.471 46.0546V47.4042Z" fill="#C2D6EB"/>
<path fill-rule="evenodd" clip-rule="evenodd" d="M127.703 70.3367L127.736 90.7548L144.214 81.2423L144.181 60.8242L127.703 70.3367Z" fill="white"/>
<path fill-rule="evenodd" clip-rule="evenodd" d="M136.715 75.735C136.475 76.3554 136.41 76.7146 136.192 77.1499C135.702 78.1513 135.681 79.3811 134.766 78.7934C130.239 75.8221 131.371 67.3002 137.444 67.9967C139.348 68.2144 140.328 69.749 140.818 71.251L136.715 75.7241V75.735Z" fill="#642E40"/>
<path fill-rule="evenodd" clip-rule="evenodd" d="M134.32 84.8776C134.69 85.6177 134.712 86.2272 134.625 86.7714L140.916 83.1361C140.916 83.0381 140.905 82.9293 140.894 82.8095C140.861 82.483 140.828 82.1566 140.796 81.8301C140.796 81.7648 140.785 81.6995 140.774 81.6234C141.144 81.3404 141.449 80.9812 141.569 80.4696C141.732 79.7513 141.569 79.0655 141.177 78.4669C140.741 77.8356 140.491 77.3894 140.284 76.8779C140.219 76.497 140.154 76.1812 140.088 75.9745C140.045 75.7894 139.947 75.6262 139.849 75.4738C139.522 75.0058 138.924 74.7664 137.901 75.2017C136.976 75.5936 135.757 76.105 134.679 76.7689C134.211 77.0628 132.742 78.1514 132.415 78.5976C132.252 78.8262 132.154 79.0874 132.132 79.4357C132.023 81.0574 133.612 83.4518 134.32 84.8558V84.8776Z" fill="#239BB8"/>
<path fill-rule="evenodd" clip-rule="evenodd" d="M136.301 74.7992C134.57 75.2128 132.393 67.4415 137.933 68.0401C140.458 67.9422 140.915 70.5436 141.089 72.1109C141.34 74.4509 141.002 75.6699 141.547 76.7039C142.494 78.4888 142.613 80.6654 140.524 81.9824C140.785 79.8274 138.183 77.8356 138.183 76.2139C137.955 75.452 136.975 74.8536 136.311 74.7992H136.301Z" fill="#642E40"/>
<path fill-rule="evenodd" clip-rule="evenodd" d="M135.898 73.6672C136.062 74.625 135.975 75.5284 135.681 76.4536C136.464 77.1828 137.857 76.8669 138.184 76.2139C138.119 75.7894 138.032 75.3977 137.988 74.9623L135.898 73.6672Z" fill="#E7A376"/>
<path fill-rule="evenodd" clip-rule="evenodd" d="M139.13 69.6185C139.522 70.2389 139.729 70.8592 139.642 71.7408C139.62 71.9694 139.642 72.1108 139.718 72.2523C140.088 73.0795 140.055 73.3299 139.87 73.9939C139.696 74.636 139.707 74.9732 139.489 75.1909C139.261 75.4195 138.923 75.4739 138.64 75.4848C138.053 75.5175 137.051 75.1367 136.474 74.821C136.039 74.5816 136.061 74.4183 135.876 74.0156C135.266 73.4823 135.658 73.1013 135.876 73.0577C136.464 72.9489 136.562 73.6236 136.91 73.7651C136.855 72.5787 139.119 70.5763 139.152 69.6185H139.13Z" fill="#F0B186"/>
<path fill-rule="evenodd" clip-rule="evenodd" d="M139.13 69.6185C138.803 71.077 136.899 72.176 136.888 73.7651C137.41 72.1216 139.249 70.9899 139.13 69.6185Z" fill="#E7A376"/>
<path fill-rule="evenodd" clip-rule="evenodd" d="M131.904 79.6859C131.654 81.275 132.187 85.2909 132.644 87.9248L134.788 86.6842C134.875 84.9754 135.006 82.3959 134.875 81.4272C134.69 80.0667 134.026 78.554 133.047 78.5213C132.339 78.4995 132.002 79.0112 131.893 79.6968L131.904 79.6859Z" fill="#31ACCB"/>
<path fill-rule="evenodd" clip-rule="evenodd" d="M108.166 87.5659C108.166 86.7061 108.166 85.8461 108.155 84.9863C108.155 84.1265 108.155 83.2668 108.145 82.3961C108.58 82.1349 109.015 81.8737 109.451 81.6125C109.777 81.4166 110.017 81.3186 110.169 81.3186C110.321 81.3186 110.441 81.4165 110.528 81.6016C110.615 81.7866 110.67 82.026 110.67 82.3416C110.67 82.7334 110.604 83.0926 110.474 83.43C110.343 83.7674 110.136 84.0395 109.875 84.2681C110.006 84.3225 110.125 84.3986 110.212 84.5075C110.3 84.6163 110.419 84.8232 110.572 85.1388C110.702 85.4 110.822 85.6612 110.953 85.9224C110.702 86.0748 110.452 86.2162 110.212 86.3686C110.06 86.0856 109.908 85.7917 109.766 85.5087C109.603 85.2039 109.494 85.0189 109.429 84.9427C109.374 84.8774 109.309 84.834 109.244 84.8449C109.178 84.8449 109.07 84.8883 108.928 84.9754C108.885 84.9972 108.841 85.0299 108.798 85.0517C108.798 85.4108 108.798 85.77 108.798 86.1291C108.798 86.4883 108.798 86.8475 108.798 87.2066C108.591 87.3264 108.384 87.4571 108.177 87.5768L108.166 87.5659ZM108.765 84.2136C108.917 84.1265 109.07 84.0286 109.222 83.9415C109.516 83.7673 109.701 83.6257 109.777 83.5496C109.853 83.4625 109.908 83.3539 109.951 83.2232C109.995 83.0926 110.017 82.951 110.017 82.7986C110.017 82.6245 109.984 82.5049 109.929 82.4288C109.875 82.3526 109.788 82.3307 109.69 82.3634C109.636 82.3852 109.483 82.4613 109.233 82.6137C109.07 82.7116 108.906 82.8096 108.743 82.9076C108.743 83.3429 108.743 83.7891 108.743 84.2245L108.765 84.2136ZM111.257 85.7157C111.257 84.8559 111.257 83.9959 111.246 83.1252C111.246 82.2654 111.246 81.3948 111.236 80.535C111.997 80.0779 112.759 79.6316 113.521 79.1745V80.0559C112.966 80.3824 112.422 80.72 111.867 81.0465C111.867 81.4274 111.867 81.819 111.867 82.2C112.378 81.8952 112.89 81.5906 113.412 81.275V82.1458C112.901 82.4505 112.389 82.7551 111.878 83.0598C111.878 83.2993 111.878 83.528 111.878 83.7565C111.878 83.9851 111.878 84.2244 111.878 84.453C112.455 84.1156 113.02 83.7674 113.597 83.43V84.3007C112.814 84.7687 112.041 85.2368 111.257 85.6939V85.7157ZM113.956 82.4288L114.566 81.9606C114.61 82.2762 114.675 82.4831 114.795 82.581C114.903 82.679 115.056 82.668 115.241 82.5483C115.437 82.4286 115.589 82.2654 115.698 82.0695C115.796 81.8627 115.85 81.6668 115.85 81.4817C115.85 81.362 115.829 81.2641 115.785 81.2096C115.741 81.1443 115.665 81.1225 115.556 81.1225C115.48 81.1225 115.317 81.1443 115.056 81.1878C114.718 81.2423 114.49 81.2098 114.348 81.0901C114.163 80.9159 114.065 80.622 114.065 80.2084C114.065 79.9472 114.109 79.6642 114.196 79.3812C114.283 79.0982 114.414 78.848 114.577 78.6194C114.74 78.4017 114.947 78.2167 115.186 78.0752C115.567 77.8467 115.861 77.8139 116.057 77.9881C116.253 78.1622 116.362 78.4886 116.373 78.9566C116.166 79.0981 115.959 79.2288 115.752 79.3703C115.72 79.12 115.665 78.9568 115.578 78.8915C115.491 78.8262 115.361 78.8478 115.186 78.9457C115.001 79.0545 114.871 79.1962 114.762 79.3812C114.697 79.5009 114.664 79.6314 114.664 79.762C114.664 79.8817 114.697 79.9688 114.762 80.0232C114.838 80.0885 115.034 80.0885 115.339 80.0232C115.643 79.9579 115.861 79.9581 116.014 80.0017C116.155 80.0452 116.275 80.1538 116.351 80.328C116.438 80.5021 116.482 80.7527 116.482 81.0792C116.482 81.373 116.438 81.6885 116.34 82.0041C116.242 82.3198 116.101 82.6028 115.926 82.8313C115.752 83.0599 115.524 83.2558 115.252 83.4191C114.86 83.6476 114.566 83.6804 114.348 83.5062C114.142 83.3321 114.011 82.962 113.967 82.407L113.956 82.4288ZM116.982 77.1064C117.189 76.9867 117.396 76.8562 117.603 76.7365C117.603 77.2045 117.603 77.6723 117.603 78.1403V79.5444C117.603 79.9906 117.613 80.2736 117.635 80.3933C117.657 80.5893 117.722 80.72 117.82 80.7962C117.918 80.8615 118.06 80.8505 118.234 80.7417C118.408 80.6329 118.539 80.5021 118.626 80.328C118.713 80.1538 118.767 79.9688 118.789 79.7838C118.811 79.5988 118.811 79.2942 118.811 78.8915C118.811 78.4126 118.811 77.9337 118.811 77.4548C118.811 76.9759 118.811 76.4969 118.811 76.018C119.017 75.8983 119.224 75.7679 119.431 75.6481C119.431 76.1053 119.431 76.5621 119.431 77.0193C119.431 77.4764 119.431 77.9335 119.431 78.3797C119.431 79.0001 119.42 79.4575 119.388 79.7296C119.355 80.0017 119.29 80.2628 119.203 80.4914C119.115 80.72 118.996 80.9375 118.843 81.1334C118.691 81.3293 118.495 81.5034 118.256 81.6449C117.962 81.819 117.733 81.8954 117.581 81.8737C117.428 81.8519 117.309 81.7755 117.222 81.6449C117.135 81.5143 117.069 81.362 117.047 81.177C117.004 80.9049 116.982 80.4805 116.982 79.8927C116.982 79.4356 116.982 78.9676 116.982 78.5105C116.982 78.0533 116.982 77.5853 116.982 77.1282V77.1064ZM120.106 80.4478C120.106 79.588 120.106 78.7172 120.106 77.8573C120.106 76.9866 120.106 76.1269 120.106 75.2562C120.421 75.0712 120.726 74.8861 121.042 74.7011C121.129 75.2344 121.227 75.7786 121.325 76.3119C121.412 76.8452 121.51 77.3785 121.608 77.9227C121.695 77.2805 121.793 76.6275 121.88 75.9853C121.967 75.3432 122.065 74.6901 122.152 74.048C122.468 73.863 122.772 73.6779 123.088 73.482C123.088 74.3527 123.088 75.2127 123.088 76.0834C123.088 76.9541 123.088 77.8138 123.088 78.6845C122.892 78.8042 122.707 78.9131 122.511 79.0329C122.511 78.3581 122.511 77.6725 122.511 76.9868C122.511 76.3012 122.511 75.6262 122.511 74.9405C122.413 75.6806 122.304 76.4317 122.206 77.1718C122.108 77.9119 122.011 78.652 121.902 79.3921C121.706 79.5118 121.499 79.6314 121.303 79.7511C121.205 79.1307 121.096 78.5104 120.998 77.89C120.9 77.2696 120.792 76.6493 120.694 76.0289C120.694 76.7146 120.694 77.3895 120.694 78.0752V80.1213C120.509 80.241 120.313 80.3499 120.117 80.4696L120.106 80.4478ZM123.708 78.3037C123.708 77.433 123.708 76.5731 123.708 75.7024C123.708 74.8316 123.708 73.9719 123.708 73.1012C124.47 72.6441 125.232 72.187 126.005 71.7299C126.005 72.0237 126.005 72.3176 126.005 72.6115C125.45 72.938 124.895 73.2753 124.34 73.6018C124.34 73.9828 124.34 74.3747 124.34 74.7556C124.851 74.4508 125.374 74.1351 125.885 73.8304C125.885 74.1242 125.885 74.4182 125.885 74.712C125.363 75.0168 124.851 75.3325 124.34 75.6372C124.34 75.8767 124.34 76.1051 124.34 76.3446C124.34 76.584 124.34 76.8125 124.34 77.0519C124.917 76.7145 125.493 76.3663 126.07 76.018C126.07 76.3119 126.07 76.6058 126.07 76.8997C125.287 77.3677 124.503 77.8357 123.719 78.3037H123.708Z" fill="#8AA7C6"/>
<path fill-rule="evenodd" clip-rule="evenodd" d="M108.275 94.2811V90.0147L126.147 79.7186V83.985L108.275 94.2811ZM108.275 96.436L126.158 86.14V84.7904L108.275 95.0865V96.436Z" fill="#C2D6EB"/>
<path fill-rule="evenodd" clip-rule="evenodd" d="M108.286 101.53V100.507L114.729 96.7953V97.8183L108.286 101.53ZM108.286 99.2006L126.168 88.9045V87.5549L108.286 97.851V99.2006Z" fill="#C2D6EB"/>
<path fill-rule="evenodd" clip-rule="evenodd" d="M108.601 62.1848L109.733 61.5534C109.918 61.4555 110.07 61.2269 110.125 60.9983L110.419 59.5728C110.473 59.3224 110.636 59.1156 110.81 59.0177C110.985 58.9197 111.159 58.9413 111.224 59.1264L111.627 60.1494C111.692 60.3126 111.866 60.3563 112.04 60.2583L113.172 59.6161C113.586 59.3875 113.782 59.8775 113.466 60.3455L112.584 61.6188C112.443 61.8256 112.389 62.076 112.454 62.2392L112.867 63.2623C112.976 63.5452 112.759 63.9698 112.497 64.1221C112.41 64.1657 112.323 64.1875 112.247 64.1657L111.289 63.9263C111.213 63.9045 111.126 63.9261 111.039 63.9696C110.952 64.0131 110.865 64.1004 110.8 64.1984L109.918 65.4717C109.842 65.5806 109.755 65.6567 109.679 65.7002C109.417 65.8526 109.167 65.6895 109.243 65.2977L109.537 63.8718C109.581 63.6433 109.515 63.4581 109.352 63.4254L108.394 63.186C108.046 63.0989 108.187 62.4133 108.601 62.1848Z" fill="#FCD148"/>
<path fill-rule="evenodd" clip-rule="evenodd" d="M115.708 58.223L116.84 57.5917C117.025 57.4937 117.178 57.2652 117.232 57.0366L117.526 55.6108C117.58 55.3604 117.744 55.1536 117.918 55.0557C118.092 54.9577 118.266 54.9796 118.331 55.1646L118.734 56.1876C118.799 56.3509 118.974 56.3945 119.148 56.2966L120.28 55.6543C120.693 55.4258 120.889 55.9155 120.573 56.3835L119.692 57.6571C119.55 57.8639 119.496 58.114 119.561 58.2772L119.975 59.3005C120.084 59.5835 119.866 60.0078 119.605 60.1601C119.518 60.2037 119.431 60.2255 119.354 60.2037L118.397 59.9643C118.321 59.9425 118.233 59.9643 118.146 60.0079C118.059 60.0623 117.972 60.1384 117.907 60.2364L117.025 61.5097C116.949 61.6186 116.862 61.695 116.786 61.7385C116.525 61.8909 116.274 61.7275 116.351 61.3357L116.644 59.9098C116.688 59.6813 116.623 59.4963 116.459 59.4637L115.502 59.2243C115.153 59.1372 115.295 58.4516 115.708 58.223Z" fill="#FCD148"/>
<path fill-rule="evenodd" clip-rule="evenodd" d="M122.804 54.2722L123.936 53.6408C124.121 53.5429 124.273 53.3143 124.328 53.0857L124.622 51.6602C124.676 51.4098 124.839 51.203 125.014 51.1051C125.188 51.0071 125.362 51.0287 125.427 51.2138L125.83 52.237C125.895 52.4003 126.069 52.4437 126.243 52.3457L127.375 51.7037C127.789 51.4752 127.985 51.9649 127.669 52.4329L126.788 53.7062C126.646 53.913 126.592 54.1634 126.657 54.3266L127.071 55.3497C127.179 55.6326 126.962 56.0572 126.701 56.2095C126.613 56.2531 126.526 56.2749 126.45 56.2531L125.492 56.0137C125.416 55.9919 125.329 56.0137 125.242 56.0573C125.155 56.1117 125.068 56.1878 125.003 56.2858L124.121 57.5591C124.045 57.668 123.958 57.7441 123.882 57.7876C123.62 57.94 123.37 57.7769 123.446 57.3851L123.74 55.9592C123.784 55.7307 123.718 55.5457 123.555 55.5131L122.597 55.2734C122.249 55.1863 122.391 54.5007 122.804 54.2722Z" fill="#FCD148"/>
<path fill-rule="evenodd" clip-rule="evenodd" d="M129.912 50.3104L131.043 49.6791C131.228 49.5811 131.381 49.3526 131.435 49.124L131.729 47.6982C131.784 47.4478 131.947 47.241 132.121 47.1431C132.295 47.0451 132.469 47.067 132.535 47.252L132.937 48.275C133.003 48.4383 133.177 48.4819 133.351 48.384L134.483 47.7417C134.896 47.5132 135.092 48.0029 134.777 48.4709L133.895 49.7445C133.754 49.9513 133.699 50.2014 133.764 50.3646L134.178 51.3879C134.287 51.6709 134.069 52.0954 133.808 52.2478C133.721 52.2913 133.634 52.3129 133.558 52.2911L132.6 52.0517C132.524 52.0299 132.437 52.0517 132.349 52.0953C132.262 52.1497 132.175 52.2258 132.11 52.3238L131.228 53.5974C131.152 53.7062 131.065 53.7824 130.989 53.8259C130.728 53.9783 130.477 53.8149 130.554 53.4231L130.848 51.9972C130.891 51.7687 130.826 51.5837 130.663 51.5511L129.705 51.3117C129.356 51.2246 129.498 50.539 129.912 50.3104Z" fill="#C2D6EB"/>
<path fill-rule="evenodd" clip-rule="evenodd" d="M129.912 50.3104L131.044 49.6791C131.229 49.5811 131.381 49.3526 131.435 49.124L131.729 47.6982C131.784 47.4478 131.947 47.241 132.121 47.1431C132.295 47.0451 132.469 47.067 132.535 47.252L132.937 48.275C133.057 48.841 132.088 50.8327 130.652 51.5511L129.694 51.3117C129.346 51.2246 129.487 50.539 129.901 50.3104H129.912Z" fill="#FCD148"/>
<path fill-rule="evenodd" clip-rule="evenodd" d="M137.019 46.3487L138.151 45.7176C138.336 45.6197 138.488 45.3911 138.543 45.1625L138.837 43.7367C138.891 43.4864 139.054 43.2796 139.228 43.1816C139.403 43.0837 139.577 43.1053 139.642 43.2903L140.045 44.3136C140.11 44.4768 140.284 44.5202 140.458 44.4223L141.59 43.7803C142.004 43.5517 142.2 44.0414 141.884 44.5094L141.002 45.7827C140.861 45.9895 140.806 46.2399 140.872 46.4032L141.285 47.4262C141.394 47.7092 141.177 48.1337 140.915 48.2861C140.828 48.3296 140.741 48.3514 140.665 48.3296L139.707 48.0902C139.631 48.0685 139.544 48.0903 139.457 48.1338C139.37 48.1773 139.283 48.2644 139.217 48.3623L138.336 49.6357C138.26 49.7445 138.173 49.8206 138.096 49.8642C137.835 50.0165 137.585 49.8534 137.661 49.4616L137.955 48.0358C137.998 47.8072 137.933 47.6223 137.77 47.5896L136.812 47.3502C136.464 47.2631 136.605 46.5773 137.019 46.3487Z" fill="#C2D6EB"/>
<path fill-rule="evenodd" clip-rule="evenodd" d="M108.177 80.3933L143.212 60.6934C143.212 60.1274 143.212 57.8093 143.201 57.2433L108.177 76.9432V80.4041V80.3933ZM108.156 75.7894V72.3284L143.223 52.6068C143.223 53.1836 143.212 55.5018 143.212 56.0787L108.166 75.7894H108.156ZM108.134 71.1856V68.606L143.343 48.8083C143.332 49.3852 143.321 50.8329 143.31 51.4097L108.134 71.1856Z" fill="#C2D6EB"/>
<path fill-rule="evenodd" clip-rule="evenodd" d="M108.601 104.675L109.733 104.044C109.918 103.946 110.07 103.717 110.125 103.489L110.419 102.063C110.473 101.813 110.636 101.606 110.81 101.508C110.985 101.41 111.159 101.432 111.224 101.617L111.627 102.64C111.692 102.803 111.866 102.847 112.04 102.749L113.172 102.106C113.586 101.878 113.782 102.368 113.466 102.836L112.584 104.109C112.443 104.316 112.389 104.566 112.454 104.73L112.867 105.753C112.976 106.036 112.759 106.46 112.497 106.613C112.41 106.656 112.323 106.678 112.247 106.656L111.289 106.416C111.213 106.395 111.126 106.416 111.039 106.46C110.952 106.514 110.865 106.591 110.8 106.689L109.918 107.962C109.842 108.071 109.755 108.147 109.679 108.191C109.417 108.343 109.167 108.18 109.243 107.788L109.537 106.362C109.581 106.134 109.515 105.948 109.352 105.916L108.394 105.676C108.046 105.589 108.187 104.904 108.601 104.675Z" fill="#FCD148"/>
<path fill-rule="evenodd" clip-rule="evenodd" d="M115.708 100.713L116.84 100.082C117.025 99.9842 117.178 99.7556 117.232 99.5271L117.526 98.1012C117.58 97.8509 117.744 97.6441 117.918 97.5462C118.092 97.4482 118.266 97.4701 118.331 97.6551L118.734 98.6781C118.799 98.8414 118.974 98.8847 119.148 98.7868L120.28 98.1448C120.693 97.9163 120.889 98.4059 120.573 98.8739L119.692 100.147C119.55 100.354 119.496 100.604 119.561 100.768L119.975 101.791C120.084 102.074 119.866 102.498 119.605 102.651C119.518 102.694 119.431 102.716 119.354 102.694L118.397 102.455C118.321 102.433 118.233 102.455 118.146 102.498C118.059 102.542 117.972 102.629 117.907 102.727L117.025 104C116.949 104.109 116.862 104.185 116.786 104.229C116.525 104.381 116.274 104.218 116.351 103.826L116.644 102.4C116.688 102.172 116.623 101.987 116.459 101.954L115.502 101.715C115.153 101.628 115.295 100.942 115.708 100.713Z" fill="#FCD148"/>
<path fill-rule="evenodd" clip-rule="evenodd" d="M122.804 96.7518L123.936 96.1204C124.121 96.0225 124.273 95.7939 124.328 95.5654L124.622 94.1398C124.676 93.8894 124.839 93.6826 125.014 93.5847C125.188 93.4867 125.362 93.5083 125.427 93.6934L125.83 94.7164C125.895 94.8796 126.069 94.9233 126.243 94.8253L127.375 94.1831C127.789 93.9545 127.985 94.4445 127.669 94.9125L126.788 96.1858C126.646 96.3926 126.592 96.643 126.657 96.8063L127.071 97.8293C127.179 98.1123 126.962 98.5368 126.701 98.6891C126.613 98.7327 126.526 98.7545 126.45 98.7327L125.492 98.4933C125.416 98.4715 125.329 98.4931 125.242 98.5366C125.155 98.5802 125.068 98.6675 125.003 98.7654L124.121 100.039C124.045 100.148 123.958 100.224 123.882 100.267C123.62 100.42 123.37 100.257 123.446 99.8647L123.74 98.4388C123.784 98.2103 123.718 98.0251 123.555 97.9924L122.597 97.753C122.249 97.6659 122.391 96.9804 122.804 96.7518Z" fill="#FCD148"/>
<path fill-rule="evenodd" clip-rule="evenodd" d="M129.912 92.8007L131.043 92.1696C131.228 92.0716 131.381 91.843 131.435 91.6145L131.729 90.1886C131.784 89.9383 131.947 89.7315 132.121 89.6336C132.295 89.5356 132.469 89.5575 132.535 89.7425L132.937 90.7655C133.003 90.9288 133.177 90.9724 133.351 90.8745L134.483 90.2322C134.896 90.0037 135.092 90.4933 134.777 90.9614L133.895 92.2349C133.754 92.4417 133.699 92.6919 133.764 92.8551L134.178 93.8784C134.287 94.1614 134.069 94.5856 133.808 94.738C133.721 94.7815 133.634 94.8034 133.558 94.7816L132.6 94.5422C132.524 94.5204 132.437 94.5422 132.349 94.5858C132.262 94.6402 132.175 94.7163 132.11 94.8143L131.228 96.0876C131.152 96.1964 131.065 96.2728 130.989 96.3164C130.728 96.4688 130.477 96.3054 130.554 95.9135L130.848 94.4877C130.891 94.2591 130.826 94.0742 130.663 94.0416L129.705 93.8021C129.356 93.7151 129.498 93.0292 129.912 92.8007Z" fill="#FCD148"/>
<path fill-rule="evenodd" clip-rule="evenodd" d="M137.019 88.8392L138.151 88.2078C138.336 88.1099 138.488 87.8813 138.543 87.6528L138.837 86.2272C138.891 85.9769 139.054 85.77 139.228 85.6721C139.403 85.5741 139.577 85.5957 139.642 85.7808L140.045 86.8041C140.11 86.9673 140.284 87.0107 140.458 86.9127L141.59 86.2705C142.004 86.0419 142.2 86.5319 141.884 86.9999L141.002 88.2732C140.861 88.48 140.806 88.7304 140.872 88.8937L141.285 89.9167C141.394 90.1997 141.177 90.6242 140.915 90.7765C140.828 90.8201 140.741 90.8419 140.665 90.8201L139.707 90.5807C139.631 90.5589 139.544 90.5805 139.457 90.624C139.37 90.6784 139.283 90.7549 139.217 90.8528L138.336 92.1261C138.26 92.235 138.173 92.3111 138.096 92.3547C137.835 92.507 137.585 92.3439 137.661 91.9521L137.955 90.5262C137.998 90.2977 137.933 90.1125 137.77 90.0798L136.812 89.8404C136.464 89.7534 136.605 89.0678 137.019 88.8392Z" fill="#C2D6EB"/>
<path fill-rule="evenodd" clip-rule="evenodd" d="M106.969 113.349L143.212 92.975C143.212 92.3981 143.223 91.8321 143.234 91.2552L106.969 111.641V113.349Z" fill="#C2D6EB"/>
<path fill-rule="evenodd" clip-rule="evenodd" d="M197.152 83.8108L186.138 77.5417C184.941 76.9975 183.221 76.5512 181.991 77.1933C180.881 77.7701 179.042 78.9565 178.225 79.4245C177.605 79.7728 175.472 81.057 176.8 81.7863C180.718 83.9195 184.603 86.3138 188.587 88.4797C189.338 88.8933 190.437 89.035 191.602 88.937C192.755 88.839 193.931 88.5015 194.867 87.9682C195.531 87.5873 196.184 87.2063 196.815 86.8362C197.675 86.3356 198.132 85.737 198.186 85.1928C198.23 84.6595 197.882 84.1588 197.152 83.8214V83.8108Z" fill="#F4F9FF"/>
<path fill-rule="evenodd" clip-rule="evenodd" d="M190.48 80.6979C190.534 80.8829 190.502 81.0462 190.6 81.2966C190.698 81.5469 190.806 81.8189 190.904 82.2542C191.057 82.9181 190.85 83.8215 191.057 84.7576C191.166 85.1385 191.155 85.4432 190.904 85.7697C190.654 86.0962 190.197 86.6186 189.587 86.5969C189.446 86.5969 189.163 86.5424 188.945 86.2921C188.717 86.0309 188.532 85.6502 188.564 85.1713C188.575 84.9863 188.684 84.4092 188.662 83.8868C188.651 83.4297 188.564 83.1686 188.575 82.657C188.586 82.1237 188.63 81.3837 188.64 81.0354L190.469 80.687L190.48 80.6979Z" fill="#052F4D"/>
<path fill-rule="evenodd" clip-rule="evenodd" d="M185.756 77.9551C185.93 78.434 186.05 78.6299 186.05 79.2938C185.941 79.6421 185.691 79.7835 185.419 80.023L185.223 80.0665C184.744 80.3278 184.57 81.242 184.124 81.6555C183.808 81.9494 183.188 82.1127 182.567 82.2324C181.903 82.363 181.272 82.1671 181.446 81.6446C181.871 80.3495 183.732 78.8803 183.775 77.4327L185.756 77.9551Z" fill="#052F4D"/>
<path fill-rule="evenodd" clip-rule="evenodd" d="M182.981 68.7039C183.024 71.1854 183.71 75.7021 183.623 78.151C184.374 78.6734 185.397 78.5537 185.81 77.9007C186.072 75.6477 186.365 72.622 186.398 71.3813C186.42 70.3473 186.333 69.4005 186.072 68.4863C186.442 65.7653 188.009 62.0539 187.639 59.4962C187.476 58.3752 186.735 57.1671 186.529 56.2311C185.908 56.9929 185.255 57.3193 183.634 57.1778C183.47 57.167 182.436 56.4162 182.001 56.2964C182.023 59.7466 182.643 63.6648 182.839 67.4306C182.839 67.8659 182.872 68.3447 182.991 68.693L182.981 68.7039Z" fill="#0A3C5F"/>
<path fill-rule="evenodd" clip-rule="evenodd" d="M186.486 70.5105C186.932 72.992 188.194 78.6843 188.51 81.1331C189.315 81.5794 190.338 81.3509 190.621 80.6979C190.621 78.4449 190.665 74.7334 190.491 73.5035C190.349 72.4696 189.87 70.9241 189.457 69.999C189.392 67.278 190.251 63.4906 189.457 60.9329C189.109 59.8119 188.183 58.6038 187.813 57.6678C187.313 58.4296 186.714 58.756 185.071 58.6145C184.907 58.6037 183.536 57.6241 183.09 57.5153C183.667 60.9654 185.321 65.4823 186.116 69.2481C186.181 69.6834 186.301 70.1622 186.475 70.5105H186.486Z" fill="#0D4D7A"/>
<path fill-rule="evenodd" clip-rule="evenodd" d="M189.316 47.796C188.467 47.2953 185.55 45.347 184.68 45.4558C183.678 45.5755 182.873 46.0329 182.481 46.773C181.948 47.7525 181.621 49.1564 181.708 50.974C181.741 51.6814 181.882 52.378 181.97 53.1507C182.089 54.1738 181.85 54.9574 181.795 55.8499C181.763 56.4703 182.002 57.0036 181.937 57.5043C181.937 57.8199 181.937 58.1029 181.937 58.3315C182.438 60.1817 186.715 60.3993 188.663 59.1042C188.609 58.9518 188.62 58.5601 188.532 58.1356C188.674 57.6676 188.815 57.4498 188.87 56.8947C188.979 55.7193 188.783 55.0336 189.283 53.9452C189.969 52.465 190.731 50.8435 190.753 49.7116C190.764 48.7864 190.002 48.1878 189.327 47.796H189.316Z" fill="#F6C72D"/>
<path fill-rule="evenodd" clip-rule="evenodd" d="M187.162 46.7622C187.227 47.5459 184.876 48.754 184.593 47.8833C184.419 47.35 184.56 45.6737 184.354 44.9444L186.4 43.9323L187.14 43.6384C186.889 44.8683 186.704 45.75 187.162 46.7731V46.7622Z" fill="#E7A376"/>
<path fill-rule="evenodd" clip-rule="evenodd" d="M184.582 47.8397C184.484 47.6002 184.516 46.9689 184.451 46.6315C184.168 46.6641 183.787 47.622 183.548 48.1227C183.918 47.8615 184.168 47.8397 184.582 47.8397Z" fill="#FCD148"/>
<path fill-rule="evenodd" clip-rule="evenodd" d="M186.987 46.2289C187.019 46.8819 185.441 47.622 184.483 47.8506C184.723 48.1444 185.038 48.5035 185.028 48.7973C185.713 48.6123 186.987 48.188 187.455 47.3064C187.781 46.7078 187.291 46.4683 186.987 46.2289Z" fill="#FCD148"/>
<path fill-rule="evenodd" clip-rule="evenodd" d="M184.723 41.2004C184.277 41.3528 184.147 41.7447 184.06 42.3869C184.299 42.0712 184.332 41.9514 184.626 41.6793L184.723 41.2004Z" fill="#38251B"/>
<path fill-rule="evenodd" clip-rule="evenodd" d="M184.679 46.1307C184.984 46.0654 185.724 45.9675 186.007 45.8913C186.628 45.7281 186.747 45.2493 187.161 44.5962C187.738 44.4438 187.988 44.2479 188.141 43.9758C188.5 43.3227 188.402 42.4303 188.032 41.8208C187.705 41.2875 187.215 40.9826 186.573 40.8847C185.322 40.6888 184.592 41.1133 184.135 42.0929C184.092 42.18 183.994 42.5282 183.994 42.6262C183.983 42.8547 184.026 42.9091 183.994 43.0614C183.972 43.1594 183.928 43.2683 183.831 43.3989C183.591 43.6928 183.417 45.4125 183.591 45.6737C183.776 45.9567 184.19 46.207 184.69 46.1634L184.679 46.1307Z" fill="#F0B186"/>
<path fill-rule="evenodd" clip-rule="evenodd" d="M185.18 42.2997C185.506 42.2344 186.747 41.9951 187.291 41.8645C187.846 41.7339 188.456 41.5923 188.76 42.0167C188.978 42.55 188.848 43.3447 188.652 43.7582C188.369 44.346 187.803 44.7705 187.095 45.1732C186.834 45.3256 187.106 44.4548 187.095 44.2589C186.899 44.5418 186.747 44.6399 186.638 44.629C186.562 44.629 186.475 44.6398 186.584 44.248C186.758 43.6385 186.497 43.4643 186.747 43.1051C186.954 42.8221 186.725 42.8004 186.693 42.6481C186.235 42.5392 185.767 42.648 185.18 42.2997Z" fill="#38251B"/>
<path fill-rule="evenodd" clip-rule="evenodd" d="M187.421 43.976C187.933 43.9434 187.792 44.4876 187.617 44.7923C187.509 44.9991 187.324 44.9338 187.204 45.0971C187.062 45.2821 186.877 45.3365 186.736 45.2929C186.453 45.2058 186.747 44.8357 186.823 44.6725C186.866 44.3895 187.084 43.9869 187.411 43.976H187.421Z" fill="#F0B186"/>
<path fill-rule="evenodd" clip-rule="evenodd" d="M184.69 40.134C184.919 40.3408 185.213 40.1666 186.301 40.1122C187.433 40.0578 188.826 40.6781 188.783 41.9515C188.783 41.9841 188.783 42.0278 188.783 42.0604C188.402 42.0604 187.858 42.3 187.27 42.4306C186.454 42.6156 185.572 42.6481 185.006 42.3107C184.288 41.8754 183.874 40.7326 184.701 40.1231L184.69 40.134Z" fill="#422D22"/>
<path fill-rule="evenodd" clip-rule="evenodd" d="M184.222 59.1153C184.222 59.1153 184.255 59.1371 184.266 59.148H184.276C184.483 59.2894 184.832 59.2569 185.289 59.0175C186.508 58.3971 188.086 56.612 188.815 55.0338C189.294 54.0108 189.283 53.3251 188.891 53.1401C188.891 53.1292 188.869 53.1183 188.859 53.1074L173.665 41.1678L168.963 47.1213L184.211 59.1044L184.222 59.1153Z" fill="#1989A5"/>
<path fill-rule="evenodd" clip-rule="evenodd" d="M172.662 41.2986C171.444 41.9189 169.865 43.6929 169.136 45.2711C168.407 46.8492 168.799 47.633 170.018 47.0126C171.237 46.3922 172.815 44.6071 173.544 43.0289C174.273 41.4508 173.871 40.6782 172.652 41.2986H172.662Z" fill="#31ACCB"/>
<path fill-rule="evenodd" clip-rule="evenodd" d="M172.032 42.9964L168.593 39.7528L166.503 42.267L169.79 45.369C170.704 45.7717 172.391 44.2045 172.021 42.9964H172.032Z" fill="#1989A5"/>
<path fill-rule="evenodd" clip-rule="evenodd" d="M150.635 46.8059C153.051 48.2208 156.022 47.3608 158.275 46.0547C160.996 44.4874 163.304 42.0061 165.023 39.4048C166.101 37.7832 167.004 36.0199 167.679 34.2023C168.343 32.4609 168.767 30.6216 168.93 28.7713C169.05 27.2585 168.963 25.6801 168.506 24.2326C168.256 23.4272 166.917 21.3595 165.839 20.652C167.32 20.6303 168.114 21.1526 168.833 21.6533C171.88 23.7321 172.968 26.5074 172.272 31.6445C171.379 38.2401 166.21 45.5323 162.313 48.003C160.463 49.1893 157.122 50.2342 154.967 49.7118C153.595 49.3853 152.246 48.3729 150.635 46.8165V46.8059Z" fill="#1989A5"/>
<path fill-rule="evenodd" clip-rule="evenodd" d="M146.063 38.4796C146.662 33.7887 148.937 28.9563 151.864 25.2341C154.008 22.5022 157.785 18.954 161.845 18.0724C163.575 17.7024 165.415 17.8004 166.971 18.6929L169.986 20.445C158.917 17.2452 142.45 39.1544 152.528 50.4845L149.513 48.7321C149.263 48.5906 149.024 48.4165 148.806 48.2315C147.794 47.4261 147.065 46.3052 146.618 45.0971C145.856 43.0509 145.791 40.6128 146.074 38.4687L146.063 38.4796Z" fill="#31ACCB"/>
<path opacity="0.5" fill-rule="evenodd" clip-rule="evenodd" d="M160.125 22.6981C166.045 19.2805 171.215 22.0776 171.237 28.8909C171.259 35.7042 166.459 43.9977 160.538 47.4261C159.102 48.2533 157.382 48.6669 156.119 48.7975C152.201 49.211 149.437 46.3813 149.426 41.2333C149.404 34.42 154.193 26.1265 160.125 22.7089V22.6981Z" fill="#F4F8FF"/>
<path fill-rule="evenodd" clip-rule="evenodd" d="M161.29 47.807C167.221 44.3895 172.01 36.0851 171.989 29.2718C171.967 22.4585 167.145 19.7159 161.224 23.1334C155.293 26.5618 150.504 34.8551 150.526 41.6684C150.547 48.4816 155.369 51.2245 161.29 47.807ZM161.214 21.3156C168.016 17.3866 173.556 20.5429 173.578 28.3575C173.599 36.1829 168.103 45.7063 161.301 49.6354C154.498 53.5645 148.958 50.4082 148.937 42.5936C148.915 34.7681 154.411 25.2447 161.224 21.3156H161.214Z" fill="#1989A5"/>
<path fill-rule="evenodd" clip-rule="evenodd" d="M181.371 54.2719C181.121 54.1304 180.783 53.8039 180.598 53.695C180.5 53.6406 179.815 53.2489 179.412 53.0313C178.977 52.8027 178.585 52.8896 178.084 52.8896C177.692 52.9114 177.431 52.966 177.257 53.0313C177.083 53.0966 176.996 53.6734 177.126 53.8258C177.431 54.174 178.139 54.3156 178.247 54.3917C179.183 55.0339 179.466 55.4255 180 55.5561C180.228 55.6105 180.729 55.4475 181.295 55.5019L181.491 54.6856L181.36 54.2719H181.371Z" fill="#F0B186"/>
<path fill-rule="evenodd" clip-rule="evenodd" d="M187.738 56.0894C187.444 56.7533 186.922 56.7642 186.301 56.6989C185.05 56.5683 183.526 56.6446 181.687 55.9262C181.545 55.8718 181.48 55.763 181.36 55.6432C181.251 55.5997 181.055 55.5454 180.936 55.5019C181.142 55.5345 181.501 54.4786 181.295 54.2065C181.436 54.2283 181.578 54.2501 181.73 54.2719C181.872 54.2066 181.959 54.1632 182.111 54.1523C182.993 54.0761 184.875 54.0434 185.997 54.3263L187.738 56.0894Z" fill="#FCD148"/>
<path fill-rule="evenodd" clip-rule="evenodd" d="M190.862 51.0285C190.198 52.6502 188.739 54.3698 187.727 56.1003C187.227 56.9601 185.202 55.9046 185.986 54.1305C186.367 52.8898 186.889 51.7032 187.444 50.6257C188.021 49.4938 188.903 47.8832 190.492 48.6777C190.971 48.9172 191.275 50.0272 190.873 51.0176L190.862 51.0285Z" fill="#FCD148"/>
<path fill-rule="evenodd" clip-rule="evenodd" d="M171.488 48.9062C171.749 48.6014 172.271 48.1224 172.565 48.2204C172.631 48.2421 174.013 49.4504 174.046 49.5158C174.241 49.864 173.131 50.408 173.501 50.6474L174.416 51.4204C173.817 51.2354 173.393 51.1046 172.99 50.9413C172.609 50.7781 171.597 49.864 171.39 49.5266C171.238 49.2872 171.292 49.1674 171.499 48.928L171.488 48.9062Z" fill="#F0B186"/>
<path fill-rule="evenodd" clip-rule="evenodd" d="M148.153 107.233L157.938 101.66C159.004 101.17 160.528 100.79 161.616 101.355C162.607 101.867 164.239 102.923 164.958 103.336C165.502 103.652 167.407 104.784 166.22 105.437C162.737 107.331 159.287 109.464 155.739 111.39C155.064 111.75 154.085 111.891 153.062 111.804C152.039 111.717 150.983 111.423 150.167 110.944C149.579 110.607 149.002 110.269 148.425 109.932C147.652 109.486 147.25 108.952 147.206 108.463C147.163 107.984 147.478 107.537 148.131 107.244L148.153 107.233Z" fill="#F4F9FF"/>
<path fill-rule="evenodd" clip-rule="evenodd" d="M165.045 69.1829C164.948 69.0523 164.828 68.9327 164.708 68.7695C164.022 67.8117 162.444 67.2458 161.214 66.386C161.095 66.2989 160.79 66.1028 160.714 65.9831C160.572 65.7546 160.376 65.1452 160.213 65.0146C159.767 64.6554 159.462 64.4267 159.048 64.3397C158.624 64.2526 157.285 64.0894 157.405 64.6444C157.688 65.0471 158.091 65.7982 158.7 66.3206C159.114 66.6689 159.527 66.8103 159.799 67.0388C160.833 67.8225 161.671 69.6074 162.945 70.2495C163.533 70.5434 164.011 71.2292 164.479 70.9353C164.915 70.6632 165.122 70.3584 165.198 70.0755C165.296 69.7054 165.252 69.4659 165.024 69.1829H165.045Z" fill="#F0B186"/>
<path fill-rule="evenodd" clip-rule="evenodd" d="M160.495 74.233C161.388 73.6018 162.574 72.3284 163.815 71.2618C164.664 70.5325 164.882 69.9773 164.751 69.5093C164.697 69.3025 164.174 68.8673 164.022 68.8129C163.684 68.6714 163.238 68.7802 162.378 69.3135C161.573 69.8142 159.429 70.8698 158.569 71.9255C158.232 72.3391 158.286 72.8726 158.395 73.1991C158.732 74.244 159.701 74.799 160.495 74.233Z" fill="#C2D6EB"/>
<path fill-rule="evenodd" clip-rule="evenodd" d="M158.45 103.587C158.08 103.554 157.264 103.129 156.012 102.955C155.522 102.89 154.837 103.021 155.054 103.728C155.348 104.675 156.208 105.372 157.057 105.709C157.362 105.829 157.732 105.861 158.091 106.025C158.374 106.155 158.428 106.373 158.635 106.525C159.092 106.852 159.604 106.819 159.985 106.699C160.431 106.558 160.594 106.373 160.703 105.861C160.801 105.393 160.823 104.545 160.703 104.207C160.529 103.423 158.689 103.347 158.472 103.587H158.45Z" fill="#052F4D"/>
<path fill-rule="evenodd" clip-rule="evenodd" d="M160.648 104.207C160.507 103.739 160.648 102.662 160.768 101.41L158.363 100.768C158.548 102.193 158.569 103.097 158.341 103.837C158.504 104.762 160.202 105.285 160.648 104.207Z" fill="#F0B186"/>
<path fill-rule="evenodd" clip-rule="evenodd" d="M160.931 102.106C160.333 103.031 158.265 102.52 158.058 101.377C157.938 100.648 161.29 101.007 160.931 102.106Z" fill="#052F4D"/>
<path fill-rule="evenodd" clip-rule="evenodd" d="M160.79 102.433C161.041 100.681 161.269 96.1095 160.856 94.5966C160.681 93.9762 160.377 93.4212 160.246 92.1586C160.105 90.8417 160.311 89.5464 160.507 88.2404C160.627 87.4567 160.866 86.0528 160.845 85.2909C160.845 84.1372 160.649 82.5918 159.833 81.0027L157.318 80.7633C157.177 81.3619 156.883 83.7782 156.763 84.8992C156.578 86.7386 156.535 88.3928 156.687 90.711C156.937 94.4659 158.091 97.2849 158.189 101.911C158.178 103.021 160.388 102.923 160.779 102.422L160.79 102.433Z" fill="#0A3C5F"/>
<path fill-rule="evenodd" clip-rule="evenodd" d="M160.855 103.086C160.877 102.858 160.921 102.477 160.942 102.041C160.66 102.825 158.396 102.749 158.058 101.366C158.058 101.628 158.015 101.943 158.004 102.259C157.928 103.293 160.137 104.022 160.855 103.075V103.086Z" fill="#043150"/>
<path fill-rule="evenodd" clip-rule="evenodd" d="M157.916 104.338C157.317 105.263 155.238 104.806 155.031 103.663C154.912 102.934 158.275 103.227 157.916 104.338Z" fill="#052F4D"/>
<path fill-rule="evenodd" clip-rule="evenodd" d="M155.424 105.872C155.054 105.839 154.237 105.415 152.986 105.241C152.496 105.176 151.81 105.306 152.028 106.014C152.322 106.961 153.182 107.657 154.03 107.995C154.335 108.114 154.705 108.136 155.064 108.31C155.347 108.441 155.402 108.659 155.609 108.811C156.066 109.137 156.577 109.105 156.958 108.974C157.404 108.833 157.568 108.648 157.677 108.136C157.775 107.668 157.796 106.819 157.677 106.482C157.502 105.698 155.663 105.622 155.445 105.861L155.424 105.872Z" fill="#052F4D"/>
<path fill-rule="evenodd" clip-rule="evenodd" d="M157.622 106.492C157.48 106.024 157.578 104.936 157.698 103.684L155.336 103.053C155.521 104.479 155.543 105.382 155.314 106.123C155.478 107.048 157.176 107.57 157.622 106.492Z" fill="#F0B186"/>
<path fill-rule="evenodd" clip-rule="evenodd" d="M157.437 82.4176L154.694 82.0911C154.15 83.4515 153.475 83.5493 153.356 85.1819C152.877 88.4579 153.203 91.0701 153.791 94.2155C154.411 97.5025 155.249 100.419 155.141 103.815C155.064 105.099 157.176 105.045 157.742 104.621C158.057 102.901 158.079 98.678 158.014 97.5678C157.938 96.2944 157.35 95.0972 157.263 93.9979C157.143 92.4198 157.905 88.8717 158.7 86.684C159.298 85.0623 158.493 83.5169 157.415 82.4176H157.437Z" fill="#0D4D7A"/>
<path fill-rule="evenodd" clip-rule="evenodd" d="M157.829 105.371C157.851 105.143 157.894 104.762 157.916 104.327C157.35 104.936 155.413 104.806 155.032 103.652C155.032 103.913 154.988 104.229 154.978 104.544C154.901 105.578 157.111 106.307 157.829 105.361V105.371Z" fill="#0A4369"/>
<path fill-rule="evenodd" clip-rule="evenodd" d="M159.679 71.6862C160.495 72.0236 160.865 72.6876 160.996 73.4604C161.377 75.7242 160.147 77.237 160.049 79.1526C159.94 81.4164 161.377 82.853 160.833 86.4011C160.615 87.4677 156.392 89.3834 154.825 89.2092C153.671 89.1004 153.628 86.7058 153.562 85.8242C153.334 86.6623 153.192 87.729 153.192 88.3385C152.964 87.2501 153.127 86.1181 153.29 85.0406C153.508 83.6366 153.824 82.9292 153.628 81.5143C153.345 79.3919 151.995 76.6601 152.648 74.9949C152.79 74.6357 153.029 74.4616 153.312 74.244C153.758 73.8848 155.075 73.2643 155.989 72.7963V72.8617C157.002 72.274 158.112 71.7514 158.928 71.6426C159.222 71.6099 159.472 71.6209 159.668 71.6971L159.679 71.6862Z" fill="#DAEAFA"/>
<path fill-rule="evenodd" clip-rule="evenodd" d="M167.19 75.2451L157.906 68.6277L135.67 56.0461L136.889 57.8419L168.409 77.0408L168.028 75.996L167.19 75.2451Z" fill="#E7A000"/>
<path fill-rule="evenodd" clip-rule="evenodd" d="M171.02 70.674V70.6631L139.512 51.4747L136.976 52.8679L158.994 67.7354L169.018 72.7963L171.02 70.674Z" fill="#FCD148"/>
<path fill-rule="evenodd" clip-rule="evenodd" d="M168.496 72.0671L136.976 52.8679L135.67 56.0462L167.19 75.2451L168.539 73.852L168.496 72.0671Z" fill="#F6AC00"/>
<path fill-rule="evenodd" clip-rule="evenodd" d="M171.021 70.6631L172.24 72.4588L170.934 75.648L168.409 77.0409L167.179 75.2451L168.496 72.0562L169.758 71.3595L171.021 70.6631Z" fill="#E7A000"/>
<path fill-rule="evenodd" clip-rule="evenodd" d="M131.294 50.1797L135.68 56.0677L136.986 52.8789L131.294 50.1797Z" fill="#C2D6EB"/>
<path fill-rule="evenodd" clip-rule="evenodd" d="M139.511 51.4857L131.294 50.1797L136.986 52.8789L139.511 51.4857Z" fill="#DAEAFA"/>
<path fill-rule="evenodd" clip-rule="evenodd" d="M133.21 50.4846L131.425 50.1798C131.251 50.1472 131.24 50.1582 131.349 50.2997L132.426 51.7144C132.361 51.2572 132.35 50.5717 133.199 50.4846H133.21Z" fill="#F6AC00"/>
<path fill-rule="evenodd" clip-rule="evenodd" d="M154.782 75.1038C153.955 73.5474 152.246 72.1652 151.255 71.0006L148.948 70.7285C148.556 71.523 149.144 72.361 149.579 73.0357C150.341 74.1677 152.376 78.0424 153.878 77.4329C154.934 76.9975 155.261 76.0072 154.782 75.1038Z" fill="#DAEAFA"/>
<path fill-rule="evenodd" clip-rule="evenodd" d="M151.463 65.3952C151.528 65.2429 151.713 64.8511 151.724 64.6879C151.746 64.3723 151.615 63.6104 151.713 63.371C151.953 62.7397 152.116 62.3261 152.453 61.9996C152.802 61.6622 153.944 60.737 154.119 61.3901C154.053 61.9887 154.053 63.0009 153.749 63.9043C153.542 64.5029 153.226 64.8839 153.085 65.2974C153.019 65.4498 152.965 65.613 152.921 65.7872L151.474 65.3843L151.463 65.3952Z" fill="#F0B186"/>
<path fill-rule="evenodd" clip-rule="evenodd" d="M151.343 71.1202C151.92 69.9121 152.497 67.6699 152.954 66.1462C152.997 66.0156 153.008 65.7544 153.008 65.5911C153.041 65.4823 153.084 65.3846 153.117 65.2975C153.139 64.9383 152.105 64.6009 151.702 64.7097L151.55 65.0578C151.452 65.1666 151.289 65.3191 151.212 65.4388C150.418 66.6578 149.645 68.4102 149.21 69.5748C149.101 69.8577 148.655 71.0332 148.829 71.4576C149.373 72.6766 150.679 73.7758 151.343 71.1202Z" fill="#DAEAFA"/>
<path fill-rule="evenodd" clip-rule="evenodd" d="M155.521 71.414C155.391 71.8711 155.412 72.5241 155.412 73.2315C156.066 73.7539 157.97 73.0792 158.112 72.1867C158.166 71.8928 158.166 71.2616 158.275 71.0874C158.177 70.8806 157.121 71.1092 155.521 71.414Z" fill="#E7A376"/>
<path fill-rule="evenodd" clip-rule="evenodd" d="M154.51 71.2836C154.64 71.4142 155.359 71.5555 155.598 71.6425C155.838 71.7296 157.873 72.3392 158.265 71.98C158.319 71.8603 158.374 71.7732 158.439 71.7188C158.798 71.4141 159.408 71.1419 159.767 70.6195C160.333 69.7815 160.561 68.7365 159.919 67.7787C158.744 66.0373 156.458 66.2769 155.37 67.9421C155.152 68.2687 155.37 68.5517 155.272 68.8456C155.25 68.9 155.152 68.9435 155.043 69.0523C154.902 69.2047 154.303 71.0768 154.51 71.2727V71.2836Z" fill="#E7A376"/>
<path fill-rule="evenodd" clip-rule="evenodd" d="M154.532 71.2835C154.652 71.4033 155.239 71.5337 155.522 71.6207C155.599 71.6425 155.653 71.7515 155.794 71.795C156.535 72.0127 158.004 72.3065 158.265 72.0018C158.32 71.882 158.374 71.7841 158.439 71.7297C158.798 71.4249 159.31 71.131 159.669 70.6086C160.235 69.7706 160.562 68.7474 159.919 67.7896C158.885 66.2441 157.024 66.1898 155.838 67.3761C155.566 67.6482 155.294 68.0292 155.228 68.4427C155.207 68.6278 155.229 68.802 155.043 69.0632C154.913 69.2373 154.325 71.0767 154.532 71.2726V71.2835Z" fill="#E7A376"/>
<path fill-rule="evenodd" clip-rule="evenodd" d="M156.153 70.1516C156.883 69.8033 156.894 71.6425 155.99 71.3378C156.458 71.0766 156.382 70.402 156.153 70.1516Z" fill="#DA9569"/>
<path fill-rule="evenodd" clip-rule="evenodd" d="M156.088 70.4018C156.088 70.1406 156.175 70.0753 156.273 70.1406C156.382 70.2059 156.48 70.4127 156.491 70.6848C156.491 71.1202 156.154 71.5446 155.838 71.2399C156.154 71.3596 156.251 70.9678 156.23 70.6957C156.219 70.5107 156.154 70.3583 156.088 70.4127V70.4018Z" fill="#F0B186"/>
<path fill-rule="evenodd" clip-rule="evenodd" d="M156.197 70.5542C156.056 70.6957 155.99 70.7828 156.001 70.8481C156.001 70.8916 156.056 70.957 156.186 70.8917C156.23 70.7719 156.219 70.6522 156.186 70.5542H156.197Z" fill="#DA9569"/>
<path fill-rule="evenodd" clip-rule="evenodd" d="M156.306 67.7787L156.284 67.7572C155.653 67.115 156.044 66.3202 156.447 66.1352C157.242 65.7869 158.809 66.3529 159.69 67.2345C160.104 67.6481 160.322 68.1816 160.289 68.8347C160.344 69.4659 160.126 70.0971 159.756 70.6304C159.31 71.2834 158.744 71.4793 158.308 71.9364C158.101 72.0779 157.829 72.1106 157.568 71.9691C156.872 71.5773 156.948 70.7282 156.61 70.2384C156.425 69.9663 156.186 69.8358 155.925 70.3256C155.838 70.5433 155.761 70.7828 155.674 70.9787C155.544 71.3052 155.609 71.3922 155.293 71.414C154.989 71.4357 154.434 71.3812 154.357 71.3159C154.292 71.2615 154.434 70.8589 154.542 70.5541C154.575 70.5541 154.542 70.674 154.542 70.674C154.575 70.674 154.608 70.674 154.651 70.6957C154.706 70.5325 154.727 70.4453 154.727 70.3038C154.727 70.1732 154.738 70.0752 154.695 69.9881C154.673 69.9555 154.727 69.7814 154.76 69.7378C154.891 69.8902 154.945 70.0752 154.934 70.2929C154.934 70.4344 154.923 70.5543 154.891 70.7284C155.065 70.7502 155.228 70.772 155.315 70.7284C155.533 70.5978 155.631 70.38 155.805 70.0426C156.023 69.4222 156.023 69.3243 155.838 68.7475C155.783 68.5951 155.87 68.3229 156.273 67.8114C156.273 67.8114 156.295 67.7896 156.295 67.7787H156.306Z" fill="#48202D"/>
<path fill-rule="evenodd" clip-rule="evenodd" d="M156.001 67.289C156.142 67.6591 157.35 67.2892 158.667 68.0075C158.667 66.9844 158.547 66.7341 158.221 66.3314C157.785 65.8089 156.817 65.6566 156.371 66.0484C155.946 66.4293 155.881 66.9952 156.001 67.289Z" fill="#642E40"/>
</svg>
