<svg width="200" height="132" viewBox="0 0 200 132" fill="none" xmlns="http://www.w3.org/2000/svg">
<path fill-rule="evenodd" clip-rule="evenodd" d="M56.0379 106.179L45.4152 100.128C44.2616 99.5946 42.5963 99.1812 41.4209 99.7907C40.3434 100.346 38.5693 101.499 37.7857 101.946C37.1871 102.283 35.13 103.524 36.4143 104.22C40.2019 106.277 43.9459 108.596 47.7879 110.685C48.5171 111.077 49.5728 111.219 50.6939 111.132C51.804 111.045 52.9468 110.718 53.8393 110.195C54.4815 109.825 55.1019 109.455 55.7223 109.096C56.5603 108.606 56.9956 108.04 57.0392 107.507C57.0827 106.985 56.7453 106.506 56.0379 106.179Z" fill="#EAF4FF"/>
<path fill-rule="evenodd" clip-rule="evenodd" d="M51.1513 70.339C51.7826 70.241 52.2723 70.6765 52.5227 71.2533C52.8165 71.9281 52.8056 72.7987 52.675 73.2558C52.2614 74.7469 52.9906 75.3891 53.2519 76.0857C53.3716 76.3904 53.4151 76.7932 53.4043 77.2285C53.3825 77.7618 53.0777 78.0339 52.8165 78.5127C52.7512 79.0025 52.6315 79.4487 52.4465 79.8296C51.739 81.2445 49.3664 81.9194 47.0807 81.8215C45.2523 81.7344 43.4891 81.0922 42.6945 80.3521C41.8129 79.5358 41.7041 77.4677 43.1734 77.2609C43.5217 77.2065 43.9135 77.1413 44.2074 76.7821C44.4142 76.5427 44.2074 75.8898 44.1638 75.0409C44.1203 74.2137 44.3054 73.3429 45.5135 73.049C45.9706 72.9402 46.4277 72.8965 46.8087 72.6353C47.6467 72.0802 47.3419 71.0574 48.2562 70.4479C48.8112 70.0779 49.6928 70.0015 50.6615 70.2736C50.8139 70.2954 50.9771 70.3063 51.1404 70.3281L51.1513 70.339Z" fill="url(#paint0_linear_169_17005)"/>
<path fill-rule="evenodd" clip-rule="evenodd" d="M51.6949 71.1118C51.7493 71.5145 51.5969 71.8737 51.3575 72.2111C50.7915 73.0056 50.4977 72.9404 50.1929 73.9526C49.6922 73.6152 49.344 73.5607 49.1916 73.8981C48.9631 74.4314 49.1045 74.7471 49.0501 75.2913C48.963 76.1838 47.8964 74.9646 47.0584 75.6503C46.2312 76.3251 46.7971 76.7933 46.4815 77.7511C46.3618 78.1102 46.2747 78.5781 45.9373 78.7305C44.9033 79.2203 44.5006 80.4609 46.3509 81.0704C47.4937 81.4513 49.1589 81.3535 50.5412 80.8855C52.3697 80.2651 53.5016 77.555 53.0336 76.2707C52.8377 75.7374 52.3153 75.3456 52.3153 74.9321C52.3153 73.5063 52.5765 72.592 51.6949 71.1227V71.1118Z" fill="#48202D"/>
<path fill-rule="evenodd" clip-rule="evenodd" d="M45.1329 96.0902C44.1643 95.9161 44.5997 96.4602 43.6854 96.8956C43.6092 96.9391 42.4229 97.9731 42.4229 97.9731C42.4229 97.9731 42.6405 98.9093 42.6841 98.9637C42.7276 99.0181 43.1738 99.4316 43.1738 99.4316C43.2283 99.3554 43.3806 99.203 43.4241 99.1377C43.7724 98.6588 44.2949 98.2998 44.8173 97.9189C45.1656 97.6685 45.4812 97.3636 45.8295 97.1677L45.1329 96.0793V96.0902Z" fill="#E7A376"/>
<path fill-rule="evenodd" clip-rule="evenodd" d="M43.1954 99.4535C43.0321 99.682 42.9124 99.8235 42.76 99.965C42.6838 100.041 42.5967 100.074 42.5314 100.063C42.1614 100.009 42.107 98.7677 42.2158 98.2779C42.292 97.9623 42.5097 97.8427 42.7491 97.636C43.1192 97.3421 43.1518 97.2984 43.5219 96.9719L42.3247 97.4834L42.2158 97.4181C42.662 97.146 43.2498 96.7652 43.609 96.4713C43.7505 96.3516 43.9028 96.2101 43.9899 96.1556C44.4797 95.8291 44.8715 95.9488 45.1436 96.1012C44.7844 96.1882 44.4143 96.7324 43.8375 97.1787C43.13 97.7228 42.8471 98.746 43.2063 99.4317L43.1954 99.4535Z" fill="#0A3C5F"/>
<path fill-rule="evenodd" clip-rule="evenodd" d="M54.1774 93.2061C51.4347 94.6972 48.6375 96.036 45.7969 97.3421C45.3942 97.2985 44.9371 96.7544 44.8936 96.0143C46.1996 95.1327 47.9192 93.3693 49.3015 92.5966C50.4334 91.9544 51.3259 91.7477 52.6428 91.3342C54.2428 90.6158 54.9393 92.5749 54.1883 93.2061H54.1774Z" fill="#0D4D7A"/>
<path fill-rule="evenodd" clip-rule="evenodd" d="M55.7227 75.204C55.8098 75.0299 55.8533 74.9319 55.8641 74.8557C55.8859 74.7251 55.7989 74.7035 55.7662 74.5076C55.7336 74.3443 55.7445 74.094 55.7227 73.9416C55.7009 73.7239 55.7771 73.6042 55.7988 73.4192C55.8206 73.2886 55.9295 73.1578 56.0818 73.1904C56.1362 73.2013 56.2125 73.2232 56.3322 73.2667C56.4846 73.1578 56.5172 73.147 56.6913 73.0817C56.8328 73.0273 56.909 73.0492 57.0179 73.1471C57.192 73.2995 57.3335 73.4517 57.3879 73.5497C57.4423 73.6476 57.4968 73.9416 57.5403 74.2028C57.5729 74.4314 57.5729 74.5292 57.475 74.649C57.2573 74.9319 57.1267 74.9972 56.9743 75.1496C56.8546 75.2693 56.724 75.4435 56.5716 75.7264C55.8859 77.2393 55.7118 78.7303 54.7758 80.0255C54.6778 80.167 54.5581 80.2323 54.4384 80.254C54.2207 80.3084 53.8724 79.993 53.6221 79.8732L53.8071 78.4256C54.0248 77.6855 54.9717 76.2706 55.7118 75.1823L55.7227 75.204Z" fill="#F0B186"/>
<path fill-rule="evenodd" clip-rule="evenodd" d="M56.5062 75.8682C56.3974 75.8682 56.245 75.8245 56.1035 75.7592C56.1688 75.6504 56.2015 75.5633 56.43 75.1823C56.5171 74.9103 56.7783 74.7252 57.0395 74.6273C56.9307 74.562 56.9416 74.6056 56.8763 74.5077C56.811 74.6056 56.6913 74.6599 56.6586 74.6164C56.6151 74.5511 56.6042 74.4858 56.6259 74.4205C56.6695 74.3008 56.8001 74.2029 56.9416 74.192C57.0178 74.192 57.2681 74.3444 57.562 74.5186C57.5511 74.5621 57.5293 74.6164 57.4858 74.6599C57.2681 74.9429 57.1375 75.0082 56.9851 75.1606C56.8545 75.2912 56.7021 75.509 56.5171 75.8573L56.5062 75.8682Z" fill="#E7A376"/>
<path fill-rule="evenodd" clip-rule="evenodd" d="M56.1357 73.2013C56.1357 73.2013 56.2446 73.234 56.3317 73.2667C56.4841 73.1578 56.5167 73.147 56.6908 73.0817C56.8323 73.0273 56.9086 73.0492 57.0174 73.1471C57.1915 73.2995 57.333 73.4517 57.3874 73.5497C57.4418 73.6476 57.4963 73.9416 57.5398 74.2028C57.5616 74.3661 57.5725 74.4529 57.5398 74.54C57.333 74.4312 57.1044 74.3007 56.9085 74.181C56.8214 74.2137 56.495 74.4095 56.6582 74.6163C56.5276 74.4748 56.4514 74.1593 56.3752 73.9089C56.299 73.6477 56.212 73.3428 56.2011 73.234L56.1357 73.1904V73.2013Z" fill="#F0B186"/>
<path fill-rule="evenodd" clip-rule="evenodd" d="M56.1357 73.2014C56.1357 73.2014 56.2446 73.2341 56.3317 73.2668C56.4841 73.1579 56.5167 73.1472 56.6908 73.0818C56.7344 73.0601 56.7779 73.0601 56.8214 73.0601L56.9085 74.192C56.8214 74.2247 56.495 74.4205 56.6582 74.6273C56.5276 74.4858 56.4514 74.1703 56.3752 73.9199C56.299 73.6587 56.212 73.3538 56.2011 73.245L56.1357 73.2014Z" fill="#E7A376"/>
<path fill-rule="evenodd" clip-rule="evenodd" d="M55.7226 73.9308C55.7009 73.7131 55.777 73.5934 55.7988 73.4084C55.8205 73.2778 55.9294 73.147 56.0817 73.1796C56.1362 73.1905 56.2124 73.2124 56.3321 73.2559C56.4301 73.2777 56.4409 73.2777 56.4844 73.343C56.5062 73.3648 56.4844 73.4954 56.4082 73.5607C56.2123 73.7239 55.777 73.8873 55.7226 73.9308Z" fill="#F0B186"/>
<path fill-rule="evenodd" clip-rule="evenodd" d="M56.4735 73.354C56.4082 73.5173 56.1687 73.6478 55.8857 73.5172C55.9728 73.6586 56.1034 73.7241 56.2231 73.7133C56.3973 73.7133 56.5497 73.5499 56.4735 73.354Z" fill="#E7A376"/>
<path fill-rule="evenodd" clip-rule="evenodd" d="M55.603 75.3349C55.603 75.3349 55.7336 75.1064 55.7554 75.0737C56.0166 75.3894 56.3105 75.5741 56.6588 75.6286C56.637 75.6612 56.5281 75.8898 56.5064 75.9333C56.4737 75.9986 56.4846 76.1292 56.4738 76.2054C56.4085 77.0217 55.6683 78.8176 54.7758 80.0475C54.6779 80.1889 54.5581 80.2542 54.4384 80.276C54.2534 80.3195 53.8181 80.0149 53.6113 79.9061C52.9039 79.536 51.5216 78.1102 50.3135 75.7375C50.455 75.5307 50.9774 75.2368 51.0645 75.1933C51.478 74.9865 51.9134 75.1171 52.0767 75.226C52.3814 75.4328 52.7297 75.9226 53.0997 76.6736C53.3174 77.1307 53.6548 77.6639 53.9378 78.1101C54.2534 77.3809 54.8194 76.3688 55.418 75.4872C55.4615 75.411 55.5595 75.4111 55.603 75.3349Z" fill="#C8DDF1"/>
<path fill-rule="evenodd" clip-rule="evenodd" d="M52.9147 84.1179C53.0344 84.4553 53.2847 85.2825 53.6221 86.5668C53.9595 87.8402 54.4275 90.3218 54.6234 91.8564C54.9391 93.2278 53.4589 94.142 52.3161 92.6074C51.5651 90.5939 50.5855 87.6117 50.0195 85.054L52.9147 84.1288V84.1179Z" fill="#0D4D7A"/>
<path fill-rule="evenodd" clip-rule="evenodd" d="M48.2239 83.2039C48.0389 84.4773 47.4621 85.7071 47.4512 86.6866C47.4512 88.1559 47.9409 89.4292 48.8008 92.4984C48.9967 93.1841 49.0511 93.6195 49.1055 94.1419C49.4103 95.1759 51.5762 95.2087 51.8156 93.7502C51.87 93.2496 51.8918 92.7379 51.8374 92.2372C51.7177 90.8876 51.5217 89.2877 51.3258 87.9164C52.1856 86.1532 52.7842 85.2607 52.9475 84.39C52.9257 83.8458 52.6319 83.2148 52.6319 83.2148H48.2239V83.2039Z" fill="#1466A0"/>
<path fill-rule="evenodd" clip-rule="evenodd" d="M47.2557 101.88C46.3632 102.305 47.038 102.49 46.5482 103.382C46.5047 103.459 46.1455 105.004 46.1455 105.004C46.1455 105.004 46.8639 105.635 46.9292 105.657C46.9945 105.679 47.604 105.744 47.604 105.744C47.604 105.646 47.6366 105.439 47.6366 105.352C47.6366 104.765 47.8652 104.166 48.0611 103.557C48.1917 103.154 48.2787 102.718 48.4529 102.359L47.2557 101.88Z" fill="#E7A376"/>
<path fill-rule="evenodd" clip-rule="evenodd" d="M47.6467 105.048C47.6467 105.254 47.6467 105.538 47.6467 105.755C47.6467 106.038 47.625 106.212 47.5923 106.419C47.5706 106.517 47.527 106.604 47.4617 106.637C47.1352 106.811 46.3625 105.831 46.1665 105.374C46.0359 105.08 46.1448 104.852 46.2318 104.547C46.3516 104.09 46.3625 104.036 46.4713 103.557L45.7965 104.667H45.6768C45.8836 104.199 46.1339 103.546 46.2645 103.1C46.3081 102.926 46.3516 102.719 46.3842 102.621C46.6019 102.076 46.9828 101.935 47.2984 101.902C47.059 102.185 47.0372 102.817 46.8304 103.524C46.6128 104.264 46.6236 105.2 46.8957 105.407C47.0046 105.494 47.3638 105.472 47.5597 105.461C47.6359 105.461 47.6576 105.233 47.6794 105.048H47.6467Z" fill="#0A3C5F"/>
<path fill-rule="evenodd" clip-rule="evenodd" d="M49.018 93.5979C48.7242 94.9366 48.1909 95.84 47.8643 96.9828C47.4725 98.3651 47.1786 100.248 46.8848 102.12C47.2439 102.468 48.1255 102.741 48.4085 102.555C49.1051 100.324 49.8996 98.3759 50.618 96.6345C50.9445 95.8291 51.3036 94.9911 51.7281 94.0334C52.392 92.2267 49.8234 91.3449 49.0289 93.5979H49.018Z" fill="#1466A0"/>
<path fill-rule="evenodd" clip-rule="evenodd" d="M47.8212 81.7563C48.4307 82.9535 47.6253 83.6283 47.9518 84.4773L47.7885 84.8474C48.7572 85.544 52.3053 86.1207 53.176 84.7385L53.1978 84.0529C53.3502 83.7264 53.176 82.54 53.1325 82.3223C52.991 81.6257 53.0563 81.2448 52.9801 80.4394C52.9584 80.2217 52.9366 80.004 52.9148 79.7863C52.9148 79.7427 52.9148 79.6993 52.9039 79.6558C53.1543 79.4708 53.361 79.2314 53.4372 78.8722C53.5461 78.3824 53.4372 77.9251 53.176 77.5332C52.8822 77.1088 52.7189 76.8041 52.5774 76.4667C52.5339 76.2054 52.4904 75.9988 52.4468 75.8574C52.4142 75.7376 52.3488 75.6179 52.2835 75.5199C52.0659 75.2043 51.6632 75.0411 50.9775 75.335C50.3571 75.5962 49.5408 75.9444 48.8116 76.3907C48.496 76.5866 47.5055 77.3265 47.2987 77.6204C47.1899 77.7728 47.1246 77.9578 47.1028 78.1864C47.0266 79.2748 47.3532 80.8312 47.8321 81.7672L47.8212 81.7563Z" fill="#DAEAFA"/>
<path fill-rule="evenodd" clip-rule="evenodd" d="M49.6278 74.2789C49.7367 74.9211 49.6822 75.5308 49.4863 76.1512C50.0088 76.641 50.9448 76.434 51.1625 75.9878C51.1189 75.7048 51.0645 75.4436 51.0319 75.1497L49.6278 74.2789Z" fill="#E7A376"/>
<path fill-rule="evenodd" clip-rule="evenodd" d="M51.7931 71.558C52.0543 71.9716 52.1958 72.3961 52.1305 72.9839C52.1196 73.1362 52.1305 73.2234 52.1741 73.3213C52.4244 73.8764 52.4026 74.0506 52.272 74.486C52.1523 74.9213 52.1632 75.139 52.0108 75.2914C51.8584 75.4437 51.6298 75.4763 51.4448 75.4872C51.053 75.509 50.3782 75.2478 49.9864 75.0411C49.6925 74.8778 49.7034 74.769 49.5837 74.4969C49.1701 74.1377 49.4422 73.8764 49.5837 73.8546C49.9755 73.7784 50.0408 74.2355 50.2694 74.3334C50.2259 73.5389 51.7496 72.1893 51.7822 71.5471L51.7931 71.558Z" fill="#F0B186"/>
<path fill-rule="evenodd" clip-rule="evenodd" d="M51.7931 71.558C51.5754 72.5375 50.2912 73.2777 50.2803 74.3443C50.6286 73.2342 51.8693 72.4831 51.7931 71.558Z" fill="#E7A376"/>
<path fill-rule="evenodd" clip-rule="evenodd" d="M51.8477 73.2994C51.8912 73.2124 51.9347 73.1471 51.9891 73.0927C52.0762 73.0056 52.1741 72.9621 52.283 72.7988C52.2394 72.9294 52.1632 73.0492 52.0544 73.1363C52 73.1907 51.9456 73.2341 51.8477 73.2885V73.2994Z" fill="#401C28"/>
<path fill-rule="evenodd" clip-rule="evenodd" d="M51.3901 73.5715C51.2922 73.5715 51.1833 73.6152 51.1071 73.6587C51.0201 73.7131 50.9439 73.811 50.8242 73.8654C50.9439 73.8437 51.0419 73.7891 51.1616 73.7238C51.2487 73.6803 51.3031 73.6042 51.3901 73.5715Z" fill="#401C28"/>
<path fill-rule="evenodd" clip-rule="evenodd" d="M51.9994 74.5509C51.9014 74.5836 51.8797 74.6163 51.8144 74.649C51.6185 74.7578 51.5858 74.7689 51.3682 74.7906C51.6511 74.845 51.8579 74.845 52.0321 74.7253C52.0538 74.7035 52.0973 74.5292 51.9994 74.5509Z" fill="#EC8780"/>
<path fill-rule="evenodd" clip-rule="evenodd" d="M51.7705 73.4735C51.9991 73.898 52.3365 73.9091 51.9664 74.2247C52.4779 73.9635 52.0317 73.8653 51.7705 73.4735Z" fill="#E7A376"/>
<path d="M52.0107 73.2568C52.0409 73.2568 52.0654 73.2178 52.0654 73.1695C52.0654 73.1212 52.0409 73.0819 52.0107 73.0819C51.9805 73.0819 51.9561 73.1212 51.9561 73.1695C51.9561 73.2178 51.9805 73.2568 52.0107 73.2568Z" fill="#401C28"/>
<path fill-rule="evenodd" clip-rule="evenodd" d="M51.1518 73.6588C51.1518 73.6588 51.2064 73.6914 51.2064 73.7352C51.2064 73.7789 51.1736 73.8228 51.1408 73.8228C51.108 73.8228 51.0752 73.7789 51.0752 73.7352C51.0752 73.6914 51.108 73.6588 51.1408 73.6588H51.1518Z" fill="#401C28"/>
<path fill-rule="evenodd" clip-rule="evenodd" d="M49.4641 68.8805C49.5077 68.5431 49.5621 68.2058 49.6274 67.8902C49.7471 67.2698 50.1281 67.4657 50.411 67.3678C50.5308 67.3243 50.6069 67.1391 50.6722 66.9541C50.7267 66.7799 50.7593 66.6059 50.7593 66.5406C50.7593 66.4753 50.4981 65.9529 50.4328 65.7679C50.3783 65.6808 50.2695 65.6808 50.2042 65.7243C50.0083 65.6699 49.943 65.648 49.6383 65.5827C49.2247 65.4956 48.8111 65.4305 48.7349 65.5067C48.539 65.67 48.4955 66.0509 48.5064 66.3012C48.5281 66.7148 48.6043 67.0739 48.5826 67.3678C48.5499 67.8249 48.4519 68.3039 48.3213 68.7827L49.4641 68.8805Z" fill="#F0B186"/>
<path fill-rule="evenodd" clip-rule="evenodd" d="M47.5268 71.7977C47.4942 72.0589 47.4942 73.6696 47.5159 74.388C47.4289 76.0205 46.8847 77.0981 47.0479 78.2191C47.1132 78.6653 47.3636 78.97 47.6574 79.5469C47.8642 80.0475 47.984 80.1783 48.1363 80.2436C48.8438 79.6341 47.886 77.7838 47.788 77.4573C48.0928 75.2696 48.1472 72.8316 48.169 72.0045C48.4193 70.644 48.7894 68.6523 49.0506 67.4006C49.1703 66.7802 49.4968 66.9977 49.7907 66.9215C49.758 66.7909 49.1376 66.6388 49.3335 66.617C49.5185 66.5952 50.1716 66.606 50.2043 66.4972C50.2152 65.953 50.2042 65.757 49.6165 65.6264C49.2029 65.5393 48.822 65.4307 48.7349 65.5068C48.539 65.6701 48.4955 66.051 48.5064 66.3013C48.5282 66.7149 48.6044 67.0741 48.5826 67.3679C48.4846 68.7937 47.6901 70.4699 47.5268 71.7977Z" fill="#E7A376"/>
<path fill-rule="evenodd" clip-rule="evenodd" d="M50.3021 65.7025C50.3892 65.8658 50.3674 66.0617 50.3674 66.2794C50.3674 66.3991 50.4219 66.4644 50.5416 66.5733C50.3783 66.878 50.2368 66.954 49.8994 66.954C50.1824 66.8779 50.2042 66.8671 50.313 66.5188C50.2259 66.2358 50.0518 65.6808 50.2912 65.7134L50.3021 65.7025Z" fill="#E7A376"/>
<path fill-rule="evenodd" clip-rule="evenodd" d="M50.3454 66.0074C50.3563 65.8659 50.3236 65.7897 50.2039 65.7026C50.1059 65.6373 49.7903 65.583 49.4746 65.5394C49.1046 65.485 48.7563 65.4415 48.7236 65.5176C48.9631 65.6809 49.0284 65.8441 49.0175 65.9638C49.0066 66.0617 48.887 66.3228 48.8543 66.3881C49.0284 66.4861 49.344 66.4862 49.6052 66.4971C49.8773 66.5189 50.1059 66.5189 50.2256 66.4971C50.3453 66.2685 50.3236 66.1815 50.3454 65.9856V66.0074Z" fill="#F0B186"/>
<path fill-rule="evenodd" clip-rule="evenodd" d="M47.4071 71.8517C47.3418 72.4395 46.9173 77.642 46.9935 78.1971C47.0588 78.6433 47.3744 78.9807 47.6683 79.5576C47.8751 80.0582 47.9948 80.1887 48.1472 80.254C48.5281 80.4173 48.8329 80.08 48.9853 79.5467C49.1703 78.9263 49.2138 78.0448 49.0397 77.4571C49.0288 75.6395 49.0832 73.9088 49.1159 72.102C49.3009 71.0572 49.5294 69.8384 49.6165 68.8045C49.6274 68.6521 49.5947 68.4996 49.5947 68.3799C49.5947 68.2057 49.5947 68.1297 49.6274 67.9882C49.3008 68.0208 48.8981 67.9663 48.539 67.618C48.5172 67.7922 48.4628 67.9554 48.4302 68.1296C48.3757 68.2057 48.2995 68.3255 48.2669 68.4125C48.0601 68.9132 47.5268 70.8396 47.3962 71.8626L47.4071 71.8517Z" fill="#DAEAFA"/>
<path fill-rule="evenodd" clip-rule="evenodd" d="M137.112 107.192L110.447 122.331C106.071 124.399 104.178 125.858 99.2691 123.006L57.7255 98.8112C57.3119 98.5718 57.0942 98.4739 56.9963 98.0494C56.8439 97.4072 57.116 96.6888 58.8792 95.7746L88.9077 79.068C90.8668 78.3171 92.1511 78.1101 93.7292 78.9373L138.418 104.623C139.322 105.342 138.571 106.408 137.112 107.203V107.192Z" fill="#EAF4FF"/>
<path fill-rule="evenodd" clip-rule="evenodd" d="M97.5173 43.2384L139.061 66.6386C140.225 67.2808 140.269 67.8576 140.225 69.6208L136.688 103.361C136.612 104.362 136.46 104.851 136.231 105.015L134.435 106.212L93.8386 81.386C92.9244 80.8418 92.685 80.4066 92.7285 78.7849L95.4821 43.7172L96.6902 43.1294C96.9078 43.0424 97.2235 43.0858 97.5173 43.249V43.2384Z" fill="#0D4D7A"/>
<path fill-rule="evenodd" clip-rule="evenodd" d="M96.5158 44.2506L137.689 67.4441C137.994 67.6182 138.321 67.8249 138.506 68.1405C138.8 68.6521 138.745 69.6206 138.734 70.1975L135.251 103.393C135.208 103.796 135.045 105.037 134.838 105.156C134.664 105.254 134.109 104.993 133.967 104.906L92.8371 81.7453C92.5868 81.593 92.3147 81.4188 92.1514 81.1794C91.8249 80.7113 91.8358 79.906 91.8467 79.3618L95.3839 45.0778C95.4928 44.0547 95.6451 43.8044 96.5267 44.2724L96.5158 44.2506Z" fill="#C5DBF1"/>
<path fill-rule="evenodd" clip-rule="evenodd" d="M116.553 56.1793C117.184 56.0052 118.065 56.5495 118.512 57.3875C118.969 58.2256 118.827 59.0527 118.196 59.2268C117.565 59.401 116.683 58.8567 116.237 58.0186C115.78 57.1806 115.921 56.3534 116.553 56.1793Z" fill="#5E6381"/>
<path fill-rule="evenodd" clip-rule="evenodd" d="M116.694 56.4297C117.216 56.2882 117.956 56.7344 118.337 57.4418C118.718 58.1493 118.598 58.8351 118.065 58.9875C117.543 59.129 116.803 58.6826 116.422 57.9751C116.041 57.2677 116.16 56.5821 116.694 56.4297Z" fill="#2D2F3B"/>
<path fill-rule="evenodd" clip-rule="evenodd" d="M116.901 56.8107C117.271 56.7127 117.782 57.0282 118.044 57.518C118.305 58.0078 118.229 58.4867 117.859 58.5955C117.489 58.6935 116.977 58.3779 116.716 57.8882C116.455 57.3984 116.531 56.9195 116.901 56.8107Z" fill="#111421"/>
<path fill-rule="evenodd" clip-rule="evenodd" d="M117.107 57.2024C117.314 57.148 117.608 57.3223 117.749 57.6053C117.902 57.8882 117.847 58.1601 117.64 58.2146C117.434 58.269 117.14 58.095 116.998 57.812C116.846 57.529 116.9 57.2568 117.107 57.2024Z" fill="#5100FF"/>
<path fill-rule="evenodd" clip-rule="evenodd" d="M117.195 57.3657C117.336 57.3222 117.532 57.4528 117.63 57.6378C117.728 57.8228 117.696 58.0077 117.554 58.0513C117.413 58.0948 117.217 57.9642 117.119 57.7792C117.021 57.5941 117.054 57.4092 117.195 57.3657Z" fill="#00FFFF"/>
<path fill-rule="evenodd" clip-rule="evenodd" d="M117.282 57.518C117.358 57.4962 117.467 57.5614 117.521 57.6702C117.576 57.7791 117.565 57.8772 117.478 57.899C117.402 57.9208 117.293 57.8553 117.238 57.7465C117.184 57.6376 117.195 57.5397 117.282 57.518Z" fill="#1E00FF"/>
<path fill-rule="evenodd" clip-rule="evenodd" d="M121.124 61.5557L117.097 59.2703C110.763 55.6786 104.396 52.065 98.018 48.4515C97.5173 48.2665 97.4085 48.5495 97.3214 49.3223L97.0493 52.0215C96.6792 55.6349 96.3201 59.2374 95.95 62.8399C95.5038 67.2588 95.0576 71.6669 94.6113 76.0748C94.6113 76.5428 94.6331 77.1306 94.8834 77.4898C95.0358 77.7075 95.2752 77.8598 95.5038 78.0013L132.52 98.8328C132.65 98.9199 133.14 99.1484 133.292 99.0614C133.477 98.9634 133.63 97.8533 133.663 97.4833L136.362 72.1566C136.362 71.645 136.427 70.7744 136.155 70.3173C135.992 70.0343 135.709 69.8492 135.426 69.6968L121.113 61.5557H121.124Z" fill="#F4F8FF"/>
<path fill-rule="evenodd" clip-rule="evenodd" d="M134.598 106.583L109.881 120.612C105.68 122.984 103.829 123.703 99.3995 121.123L61.2408 98.8331C60.7293 98.4848 60.4137 98.2672 60.4028 97.8537L60.3701 96.2756C60.5225 95.8402 61.0667 96.5694 62.1551 96.0035L89.9633 80.5264C91.7809 79.8299 92.9672 79.645 94.4257 80.4068L135.752 103.524L136.524 103.208C136.459 104.678 136.753 104.656 135.719 105.744C135.447 106.038 135.055 106.321 134.587 106.583H134.598Z" fill="#0D4D7A"/>
<path fill-rule="evenodd" clip-rule="evenodd" d="M135.599 102.969L94.2514 79.2094C92.7821 78.4366 91.5849 78.7742 90.1155 79.3401L62.3183 94.806C59.8694 96.0685 60.6748 96.6454 62.6339 97.7882L98.8444 118.892C103.144 121.09 103.982 121.885 110.61 118.272L134.413 104.765C134.859 104.525 136.339 103.611 135.588 102.98L135.599 102.969Z" fill="#DAEAFA"/>
<path fill-rule="evenodd" clip-rule="evenodd" d="M129.45 105.069L109.119 116.617C105.865 118.163 103.568 116.661 102.556 116.106L69.9044 97.07C68.2174 96.0252 66.3999 95.0782 68.7181 93.7613L89.8871 81.9849C91.2694 81.4516 92.1727 81.31 93.2829 81.8977L130.386 103.252C131.028 103.753 130.495 104.504 129.461 105.069H129.45Z" fill="#C5DBF1"/>
<path fill-rule="evenodd" clip-rule="evenodd" d="M109.706 100.172V100.651L111.905 101.924V101.445L109.706 100.172ZM91.0295 89.2661V89.7452L93.228 91.0185V90.5397L91.0295 89.2661ZM70.1543 94.2401V94.7189L72.3529 95.9925V95.5134L70.1543 94.2401ZM73.1038 92.5421V93.0212L75.3024 94.2945V93.8157L73.1038 92.5421ZM76.0534 90.8444V91.3233L78.2519 92.5966V92.1178L76.0534 90.8444ZM78.992 89.1465V89.6253L81.1905 90.8986V90.4198L78.992 89.1465ZM81.9415 87.4486V87.9274L84.1401 89.201V88.7219L81.9415 87.4486ZM84.8802 85.7506V86.2297L87.0787 87.503V87.0242L84.8802 85.7506ZM73.2018 95.938V96.4168L75.4003 97.6901V97.2113L73.2018 95.938ZM76.1513 94.2401V94.7189L78.3499 95.9925V95.5134L76.1513 94.2401ZM79.1008 92.5421V93.0212L81.2994 94.2945V93.8157L79.1008 92.5421ZM82.0395 90.8444V91.3233L84.238 92.5966V92.1178L82.0395 90.8444ZM84.989 89.1465V89.6253L87.1875 90.8986V90.4198L84.989 89.1465ZM87.9276 87.4486V87.9274L90.1262 89.201V88.7219L87.9276 87.4486ZM85.7508 103.274V103.753L87.9494 105.026V104.547L85.7508 103.274ZM88.7004 101.576V102.055L90.8989 103.328V102.849L88.7004 101.576ZM91.6499 99.8778V100.357L93.8484 101.63V101.151L91.6499 99.8778ZM94.5885 98.1801V98.659L96.7871 99.9323V99.4535L94.5885 98.1801ZM97.5381 96.4822V96.961L99.7366 98.2343V97.7555L97.5381 96.4822ZM100.477 94.7842V95.2631L102.675 96.5367V96.0576L100.477 94.7842ZM82.6054 101.456V101.935L84.804 103.208V102.729L82.6054 101.456ZM85.5549 99.7582V100.237L87.7535 101.51V101.032L85.5549 99.7582ZM88.5045 98.0603V98.5391L90.703 99.8127V99.3336L88.5045 98.0603ZM91.4431 96.3623V96.8414L93.6416 98.1148V97.6359L91.4431 96.3623ZM94.3926 94.6647V95.1435L96.5912 96.4168V95.938L94.3926 94.6647ZM97.3313 92.9667V93.4456L99.5298 94.7189V94.2401L97.3313 92.9667ZM79.46 99.6384V100.117L81.6585 101.391V100.912L79.46 99.6384ZM82.4095 97.9404V98.4195L84.6081 99.6929V99.214L82.4095 97.9404ZM85.359 96.2428V96.7216L87.5576 97.9949V97.5161L85.359 96.2428ZM88.2977 94.5448V95.0237L90.4962 96.2972V95.8182L88.2977 94.5448ZM91.2472 92.8469V93.3257L93.4457 94.5993V94.1205L91.2472 92.8469ZM94.1858 91.1489V91.628L96.3844 92.9014V92.4225L94.1858 91.1489ZM76.3255 97.8209V98.2997L78.524 99.573V99.0942L76.3255 97.8209ZM79.275 96.1229V96.6018L81.4735 97.8753V97.3963L79.275 96.1229ZM82.2245 94.425V94.9041L84.4231 96.1774V95.6986L82.2245 94.425ZM85.1631 92.7273V93.2061L87.3616 94.4795V94.0006L85.1631 92.7273ZM88.1126 91.0294V91.5082L90.3112 92.7815V92.3027L88.1126 91.0294ZM88.8636 105.211V105.69L91.0622 106.963V106.484L88.8636 105.211ZM91.8131 103.513V103.992L94.0117 105.266V104.786L91.8131 103.513ZM94.7627 101.815V102.294L96.9612 103.568V103.089L94.7627 101.815ZM97.7013 100.117V100.596L99.8998 101.87V101.391L97.7013 100.117ZM100.651 98.4195V98.8984L102.849 100.172V99.6929L100.651 98.4195ZM103.589 96.7216V97.2004L105.788 98.474V97.9949L103.589 96.7216ZM91.9111 106.909V107.388L94.1096 108.661V108.182L91.9111 106.909ZM94.8606 105.211V105.69L97.0592 106.963V106.484L94.8606 105.211ZM97.8102 103.513V103.992L100.009 105.266V104.786L97.8102 103.513ZM100.749 101.815V102.294L102.947 103.568V103.089L100.749 101.815ZM103.698 100.117V100.596L105.897 101.87V101.391L103.698 100.117ZM106.637 98.4195V98.8984L108.835 100.172V99.6929L106.637 98.4195ZM104.46 114.245V114.723L106.659 115.997V115.518L104.46 114.245ZM107.41 112.547V113.026L109.608 114.299V113.82L107.41 112.547ZM110.359 110.849V111.328L112.558 112.601V112.122L110.359 110.849ZM113.298 109.151V109.63L115.496 110.903V110.424L113.298 109.151ZM116.247 107.453V107.932L118.446 109.205V108.726L116.247 107.453ZM119.186 105.755V106.234L121.385 107.507V107.029L119.186 105.755ZM101.315 112.427V112.906L103.513 114.179V113.7L101.315 112.427ZM104.264 110.729V111.208L106.463 112.481V112.003L104.264 110.729ZM107.214 109.031V109.51L109.412 110.783V110.305L107.214 109.031ZM110.152 107.333V107.812L112.351 109.086V108.607L110.152 107.333ZM113.102 105.635V106.114L115.3 107.388V106.909L113.102 105.635ZM116.041 103.937V104.417L118.239 105.69V105.211L116.041 103.937ZM98.1693 110.609V111.088L100.368 112.362V111.883L98.1693 110.609ZM101.119 108.911V109.39L103.317 110.664V110.185L101.119 108.911ZM104.068 107.213V107.693L106.267 108.966V108.487L104.068 107.213ZM107.007 105.516V105.995L109.205 107.268V106.789L107.007 105.516ZM109.956 103.818V104.297L112.155 105.57V105.091L109.956 103.818ZM112.895 102.12V102.599L115.094 103.872V103.393L112.895 102.12ZM95.0348 108.792V109.271L97.2333 110.544V110.065L95.0348 108.792ZM97.9843 107.094V107.573L100.183 108.846V108.367L97.9843 107.094ZM100.934 105.396V105.875L103.132 107.148V106.669L100.934 105.396ZM103.872 103.698V104.177L106.071 105.45V104.972L103.872 103.698ZM106.822 102V102.479L109.02 103.753V103.274L106.822 102Z" fill="#0D4D7A"/>
<path fill-rule="evenodd" clip-rule="evenodd" d="M111.904 101.456V101.935L114.005 100.727V100.248L111.904 101.456ZM93.2277 90.5506V91.0294L95.3283 89.8212V89.3424L93.2277 90.5506ZM72.3525 95.5243V96.0034L74.4531 94.7952V94.3163L72.3525 95.5243ZM75.3021 93.8266V94.3055L77.4027 93.0972V92.6184L75.3021 93.8266ZM78.2516 92.1287V92.6075L80.3521 91.3996V90.9205L78.2516 92.1287ZM81.2011 90.4307V90.9096L83.3017 89.7016V89.2228L81.2011 90.4307ZM84.1397 88.7328V89.2119L86.2403 88.0037V87.5248L84.1397 88.7328ZM87.0892 87.0351V87.514L89.1899 86.3057V85.8269L87.0892 87.0351ZM75.4109 97.2222V97.7011L77.5115 96.4931V96.0143L75.4109 97.2222ZM78.3604 95.5243V96.0034L80.461 94.7952V94.3163L78.3604 95.5243ZM81.3099 93.8266V94.3055L83.4105 93.0972V92.6184L81.3099 93.8266ZM84.2595 92.1287V92.6075L86.36 91.3996V90.9205L84.2595 92.1287ZM87.1981 90.4307V90.9096L89.2987 89.7016V89.2228L87.1981 90.4307ZM90.1476 88.7328V89.2119L92.2482 88.0037V87.5248L90.1476 88.7328ZM87.9708 104.558V105.037L90.0714 103.829V103.35L87.9708 104.558ZM90.9204 102.86V103.339L93.0209 102.131V101.652L90.9204 102.86ZM93.8699 101.162V101.641L95.9705 100.433V99.9541L93.8699 101.162ZM96.8194 99.4644V99.9432L98.92 98.7352V98.2562L96.8194 99.4644ZM99.758 97.7664V98.2453L101.859 97.0373V96.5585L99.758 97.7664ZM102.708 96.0685V96.5476L104.808 95.3394V94.8605L102.708 96.0685ZM84.8363 102.74V103.219L86.9369 102.011V101.532L84.8363 102.74ZM87.7858 101.042V101.521L89.8864 100.313V99.8345L87.7858 101.042ZM90.7245 99.3445V99.8236L92.825 98.6154V98.1366L90.7245 99.3445ZM93.674 97.6469V98.1257L95.7746 96.9175V96.4386L93.674 97.6469ZM96.6235 95.9489V96.4277L98.7132 95.2195V94.7407L96.6235 95.9489ZM99.5621 94.251V94.7298L101.663 93.5218V93.0428L99.5621 94.251ZM81.6909 100.923V101.402L83.7915 100.194V99.7147L81.6909 100.923ZM84.6404 99.225V99.7038L86.741 98.4956V98.0167L84.6404 99.225ZM87.5899 97.527V98.0058L89.6905 96.7979V96.3188L87.5899 97.527ZM90.5394 95.8291V96.3079L92.64 95.1V94.6211L90.5394 95.8291ZM93.4781 94.1311V94.6102L95.5787 93.402V92.9232L93.4781 94.1311ZM96.4276 92.4335V92.9123L98.5281 91.7041V91.2252L96.4276 92.4335ZM78.5563 99.1051V99.584L80.6569 98.376V97.8972L78.5563 99.1051ZM81.495 97.4072V97.8863L83.5956 96.6781V96.1992L81.495 97.4072ZM84.4445 95.7095V96.1883L86.545 94.9801V94.5013L84.4445 95.7095ZM87.394 94.0116V94.4904L89.4946 93.2824V92.8033L87.394 94.0116ZM90.3435 92.3136V92.7925L92.4332 91.5845V91.1057L90.3435 92.3136ZM91.0945 106.495V106.974L93.1951 105.766V105.287L91.0945 106.495ZM94.044 104.797V105.276L96.1446 104.068V103.589L94.044 104.797ZM96.9936 103.1V103.579L99.0941 102.37V101.891L96.9936 103.1ZM99.943 101.402V101.881L102.044 100.672V100.194L99.943 101.402ZM102.882 99.7038V100.183L104.982 98.9747V98.4956L102.882 99.7038ZM105.831 98.0058V98.4847L107.932 97.2767V96.7979L105.831 98.0058ZM94.1529 108.193V108.672L96.2535 107.464V106.985L94.1529 108.193ZM97.1024 106.495V106.974L99.2029 105.766V105.287L97.1024 106.495ZM100.052 104.797V105.276L102.152 104.068V103.589L100.052 104.797ZM103.001 103.1V103.579L105.102 102.37V101.891L103.001 103.1ZM105.94 101.402V101.881L108.041 100.672V100.194L105.94 101.402ZM108.89 99.7038V100.183L110.99 98.9747V98.4956L108.89 99.7038ZM106.713 115.529V116.008L108.813 114.8V114.321L106.713 115.529ZM109.662 113.831V114.31L111.763 113.102V112.623L109.662 113.831ZM112.612 112.133V112.612L114.712 111.404V110.925L112.612 112.133ZM115.561 110.435V110.914L117.662 109.706V109.227L115.561 110.435ZM118.5 108.737V109.216L120.601 108.008V107.529L118.5 108.737ZM121.449 107.039V107.518L123.55 106.31V105.831L121.449 107.039ZM103.578 113.711V114.19L105.679 112.982V112.503L103.578 113.711ZM106.528 112.013V112.492L108.628 111.284V110.805L106.528 112.013ZM109.466 110.316V110.794L111.567 109.586V109.107L109.466 110.316ZM112.416 108.618V109.096L114.516 107.888V107.41L112.416 108.618ZM115.365 106.92V107.399L117.455 106.191V105.712L115.365 106.92ZM118.304 105.222V105.701L120.405 104.493V104.014L118.304 105.222ZM100.433 111.894V112.372L102.533 111.164V110.686L100.433 111.894ZM103.382 110.196V110.675L105.483 109.467V108.988L103.382 110.196ZM106.332 108.498V108.977L108.432 107.769V107.29L106.332 108.498ZM109.281 106.8V107.279L111.382 106.071V105.592L109.281 106.8ZM112.22 105.102V105.581L114.321 104.373V103.894L112.22 105.102ZM115.17 103.404V103.883L117.27 102.675V102.196L115.17 103.404ZM97.2983 110.076V110.555L99.3988 109.347V108.868L97.2983 110.076ZM100.237 108.378V108.857L102.337 107.649V107.17L100.237 108.378ZM103.186 106.68V107.159L105.287 105.951V105.472L103.186 106.68ZM106.136 104.983V105.461L108.237 104.253V103.774L106.136 104.983ZM109.085 103.285V103.763L111.175 102.555V102.076L109.085 103.285Z" fill="#0A3C5F"/>
<path fill-rule="evenodd" clip-rule="evenodd" d="M91.0301 89.2661L93.2286 90.5397L95.3182 89.3315L93.1197 88.0581L91.0301 89.2661ZM109.707 100.172L111.905 101.445L113.995 100.237L111.796 98.9638L109.707 100.172ZM88.8315 105.146L91.0301 106.419L93.1306 105.211L90.9321 103.937L88.8424 105.146H88.8315ZM91.781 103.448L93.8707 102.24L96.0692 103.513L93.9686 104.721L91.7702 103.448H91.781ZM94.7305 101.75L96.9291 103.023L99.0188 101.815L96.8202 100.542L94.7305 101.75ZM97.6692 100.052L99.7589 98.8439L101.957 100.117L99.8677 101.325L97.6692 100.052ZM100.619 98.3542L102.817 99.6275L104.907 98.4196L102.708 97.146L100.619 98.3542ZM103.557 96.6563L105.647 95.4483L107.846 96.7216L105.756 97.9299L103.557 96.6563ZM91.879 106.844L93.9686 105.635L96.1672 106.909L94.0666 108.117L91.8681 106.844H91.879ZM94.8285 105.146L97.027 106.419L99.1276 105.211L96.9291 103.937L94.8394 105.146H94.8285ZM97.778 103.448L99.8677 102.24L102.066 103.513L99.9765 104.721L97.778 103.448ZM100.717 101.75L102.915 103.023L105.005 101.815L102.806 100.542L100.717 101.75ZM103.666 100.052L105.756 98.8439L107.954 100.117L105.865 101.325L103.666 100.052ZM106.605 98.3542L108.695 97.146L110.893 98.4196L108.803 99.6275L106.605 98.3542ZM104.428 114.179L106.627 115.453L108.727 114.245L106.529 112.971L104.439 114.179H104.428ZM107.378 112.481L109.467 111.273L111.666 112.547L109.565 113.755L107.367 112.481H107.378ZM110.327 110.783L112.526 112.057L114.615 110.849L112.417 109.576L110.327 110.783ZM113.266 109.086L115.355 107.878L117.554 109.151L115.464 110.359L113.266 109.086ZM116.215 107.388L118.414 108.661L120.503 107.453L118.305 106.18L116.215 107.388ZM119.154 105.69L121.244 104.482L123.442 105.755L121.352 106.963L119.154 105.69ZM101.283 112.362L103.372 111.154L105.571 112.427L103.481 113.635L101.283 112.362ZM104.232 110.664L106.431 111.937L108.52 110.729L106.322 109.456L104.232 110.664ZM107.182 108.966L109.271 107.758L111.47 109.031L109.38 110.239L107.182 108.966ZM110.12 107.268L112.319 108.542L114.409 107.333L112.21 106.06L110.12 107.268ZM113.07 105.57L115.16 104.362L117.358 105.635L115.268 106.844L113.07 105.57ZM116.008 103.872L118.207 105.146L120.297 103.937L118.098 102.664L116.008 103.872ZM98.1372 110.544L100.336 111.817L102.436 110.609L100.238 109.336L98.1481 110.544H98.1372ZM101.087 108.846L103.176 107.638L105.375 108.911L103.274 110.12L101.076 108.846H101.087ZM104.036 107.148L106.235 108.422L108.324 107.214L106.126 105.94L104.036 107.148ZM106.975 105.45L109.065 104.242L111.263 105.516L109.173 106.724L106.975 105.45ZM109.924 103.753L112.123 105.026L114.213 103.818L112.014 102.545L109.924 103.753ZM112.863 102.055L114.964 100.847L117.162 102.12L115.072 103.328L112.874 102.055H112.863ZM95.0026 108.727L97.2012 110L99.2909 108.792L97.0923 107.518L95.0026 108.727ZM97.9522 107.029L100.042 105.821L102.24 107.094L100.14 108.302L97.9413 107.029H97.9522ZM100.902 105.331L103.1 106.604L105.19 105.396L102.991 104.123L100.902 105.331ZM103.84 103.633L105.93 102.425L108.129 103.698L106.039 104.906L103.84 103.633ZM106.79 101.935L108.88 100.727L111.078 102L108.988 103.208L106.79 101.935ZM70.1875 94.3055L72.3861 95.5788L74.4866 94.3708L72.2881 93.0972L70.1984 94.3055H70.1875ZM73.137 92.6075L75.2267 91.3996L77.4253 92.6729L75.3246 93.8808L73.1261 92.6075H73.137ZM76.0865 90.9096L78.2851 92.1832L80.3748 90.9749L78.1762 89.7016L76.0865 90.9096ZM79.0252 89.2119L81.1148 88.0037L83.3134 89.277L81.2237 90.4852L79.0252 89.2119ZM81.9747 87.514L84.1732 88.7873L86.2629 87.5793L84.0644 86.3057L81.9747 87.514ZM84.9133 85.816L87.003 84.6078L89.2015 85.8814L87.1118 87.0893L84.9133 85.816ZM73.235 96.0034L75.3246 94.7952L77.5232 96.0685L75.4226 97.2767L73.2241 96.0034H73.235ZM76.1845 94.3055L78.383 95.5788L80.4836 94.3708L78.2851 93.0972L76.1954 94.3055H76.1845ZM79.134 92.6075L81.2237 91.3996L83.4222 92.6729L81.3325 93.8808L79.134 92.6075ZM82.0726 90.9096L84.2712 92.1832L86.3609 90.9749L84.1623 89.7016L82.0726 90.9096ZM85.0222 89.2119L87.1118 88.0037L89.3104 89.277L87.2207 90.4852L85.0222 89.2119ZM87.9608 87.514L90.0505 86.3057L92.2491 87.5793L90.1593 88.7873L87.9608 87.514ZM85.7841 103.339L87.8737 102.131L90.0723 103.404L87.9716 104.612L85.7732 103.339H85.7841ZM88.7335 101.641L90.9321 102.914L93.0327 101.707L90.8341 100.433L88.7444 101.641H88.7335ZM91.6831 99.9432L93.7727 98.7352L95.9713 100.009L93.8816 101.217L91.6831 99.9432ZM94.6217 98.2453L96.8202 99.5189L98.91 98.3106L96.7114 97.0373L94.6217 98.2453ZM97.5712 96.5476L99.6609 95.3394L101.859 96.6127L99.7698 97.8209L97.5712 96.5476ZM100.51 94.8496L102.708 96.123L104.798 94.915L102.6 93.6414L100.51 94.8496ZM82.6386 101.521L84.8372 102.795L86.9268 101.587L84.7283 100.313L82.6386 101.521ZM85.5882 99.8236L87.6778 98.6154L89.8763 99.8887L87.7866 101.097L85.5882 99.8236ZM88.5376 98.1257L90.7362 99.399L92.8259 98.1911L90.6273 96.9175L88.5376 98.1257ZM91.4763 96.4277L93.566 95.2195L95.7645 96.4931L93.6748 97.7011L91.4763 96.4277ZM94.4258 94.7298L96.6243 96.0034L98.7141 94.7952L96.5155 93.5218L94.4258 94.7298ZM97.3644 93.0321L99.4541 91.8239L101.653 93.0972L99.563 94.3055L97.3644 93.0321ZM79.4932 99.7038L81.5828 98.4956L83.7814 99.7692L81.6808 100.977L79.4823 99.7038H79.4932ZM82.4427 98.0059L84.6412 99.2794L86.7418 98.0712L84.5433 96.7979L82.4536 98.0059H82.4427ZM85.3922 96.3079L87.4819 95.1L89.6804 96.3733L87.5907 97.5815L85.3922 96.3079ZM88.3308 94.6102L90.5294 95.8836L92.6191 94.6753L90.4205 93.402L88.3308 94.6102ZM91.2804 92.9123L93.3701 91.7041L95.5686 92.9777L93.4789 94.1856L91.2804 92.9123ZM94.219 91.2143L96.3196 90.0064L98.5181 91.2797L96.4284 92.4879L94.2299 91.2143H94.219ZM76.3586 97.8863L78.5572 99.1596L80.6468 97.9514L78.4483 96.6781L76.3586 97.8863ZM79.3082 96.1883L81.3978 94.9801L83.5964 96.2537L81.4958 97.4617L79.2973 96.1883H79.3082ZM82.2576 94.4904L84.4562 95.7637L86.5459 94.5558L84.3474 93.2824L82.2576 94.4904ZM85.1963 92.7925L87.286 91.5845L89.4845 92.8578L87.3948 94.066L85.1963 92.7925ZM88.1458 91.0948L90.2355 89.8866L92.4341 91.1599L90.3444 92.3681L88.1458 91.0948Z" fill="#1466A0"/>
<path opacity="0.49" fill-rule="evenodd" clip-rule="evenodd" d="M117.195 59.6511C117.315 63.2101 116.999 65.8986 117.848 69.3597C125.369 68.0972 129.994 74.9539 126.326 82.91C138.494 83.6066 136.285 92.4116 135.534 102.544L92.4885 78.4911C89.8219 69.316 97.6583 64.0374 102.556 70.8833C99.8786 64.8754 107.378 59.5424 112.188 65.2347C114.071 63.6021 115.606 61.7082 117.184 59.6511H117.195Z" fill="#C5DBF1"/>
<path fill-rule="evenodd" clip-rule="evenodd" d="M100.063 83.6936C96.4609 78.4585 86.6981 80.6462 86.3063 84.782C77.1857 84.412 73.8878 96.9065 85.4791 100.955C80.2331 107.932 97.3207 117.662 102.077 112.481C104.7 118.816 115.997 118.968 116.346 112.568C122.473 115.659 128.601 109.336 126.424 106.321C132.421 107.823 138.255 95.6332 125.009 92.3789C123.866 87.3615 117.489 83.5522 111.981 88.0908C110.36 84.597 102.349 80.853 100.063 83.6936Z" fill="#DAEAFA"/>
<path fill-rule="evenodd" clip-rule="evenodd" d="M79.3948 88.0144C76.663 91.9217 77.8166 98.2886 85.4789 100.966C80.2437 107.943 97.3205 117.673 102.077 112.492C104.7 118.827 115.997 118.979 116.345 112.579C122.473 115.67 128.601 109.347 126.424 106.332C131.398 107.573 136.252 99.4206 130.233 94.7405C135.969 100.509 129.101 106.201 124.813 104.068C126.848 106.887 121.951 115.42 114.92 110.533C114.593 116.519 104.047 117.129 101.445 109.956C97.0048 114.799 82.4096 105.896 87.3073 99.3771C78.2302 96.8955 78.3826 91.7911 79.3948 88.0362V88.0144Z" fill="#C8DDF1"/>
<path fill-rule="evenodd" clip-rule="evenodd" d="M101.544 80.363C98.6921 75.6503 89.9741 76.0095 89.4081 79.5467C83.8247 79.144 80.4834 85.4022 90.355 89.5489C86.9919 93.4127 92.3359 96.6453 96.4935 96.7106C97.0268 98.7785 100.292 100.727 102.403 99.8994C104.232 103.437 114.256 106.136 113.831 100.553C118.838 102.849 120.884 99.4424 119.154 96.7214C123.953 98.3976 130.135 91.247 118.642 86.4908C117.924 82.1155 112.504 79.699 108.912 81.8866C107.693 78.7848 103.71 78.0448 101.555 80.363H101.544Z" fill="#EEF7FF"/>
<path fill-rule="evenodd" clip-rule="evenodd" d="M85.3263 80.755C82.6706 82.8556 83.8025 87.1872 90.3546 89.549C86.9915 93.4127 92.3355 96.6453 96.4931 96.7106C97.0264 98.7785 100.292 100.727 102.403 99.8995C104.231 103.437 114.256 106.136 113.831 100.553C118.838 102.849 120.884 99.4425 119.153 96.7215C123.322 98.1799 128.546 92.9665 122.277 88.4606C126.761 92.3788 123.833 95.8944 117.749 95.7094C119.73 99.2793 113.853 100.705 112.547 97.9404C113.265 103.665 104.471 101.304 103.524 97.4615C100.411 99.0179 96.3081 97.1786 97.1026 94.2726C91.7913 94.4903 89.5057 91.5625 91.7043 88.5259C86.8501 86.7083 82.9972 84.6406 85.3154 80.7768L85.3263 80.755Z" fill="#C8DDF1"/>
<path fill-rule="evenodd" clip-rule="evenodd" d="M117.434 57.05C111.927 67.9882 107.334 81.3209 101.533 82.3984C98.3001 82.9971 94.469 86.3382 100.629 88.1449C100.02 90.942 107.366 93.7937 110.251 90.953C120.1 90.5612 115.638 86.0009 113.146 85.054C109.51 83.6718 115.181 70.535 117.434 57.0391V57.05Z" fill="#E4F0FB"/>
<path fill-rule="evenodd" clip-rule="evenodd" d="M112.537 71.0356C112.003 69.6969 110.6 64.6905 110.545 63.3409L109.87 64.81C108.651 59.3246 109.489 57.616 112.221 53.306L120.362 54.9059C120.656 60.0975 120.863 61.9912 117.293 66.508L117.326 64.8972C116.694 66.0835 113.767 69.8057 112.548 71.0465L112.537 71.0356Z" fill="#F47113"/>
<path fill-rule="evenodd" clip-rule="evenodd" d="M113.506 66.5624C113.136 65.6155 112.135 62.0783 112.102 61.1314L111.623 62.1653C110.763 58.2907 111.351 57.0826 113.278 54.046L119.024 55.178C119.231 58.8458 119.383 60.1846 116.858 63.3735L116.88 62.2307C116.434 63.0687 114.366 65.6917 113.506 66.5733V66.5624Z" fill="#F9992C"/>
<path fill-rule="evenodd" clip-rule="evenodd" d="M114.202 63.33C113.93 62.6334 113.201 60.0538 113.179 59.3572L112.831 60.119C112.199 57.2892 112.635 56.3968 114.039 54.1765L118.251 55.0037C118.403 57.692 118.512 58.6716 116.662 61.0007V60.1626C116.346 60.783 114.833 62.6987 114.202 63.3409V63.33Z" fill="#F9C445"/>
<path fill-rule="evenodd" clip-rule="evenodd" d="M121.951 57.6378C122.985 55.7658 123.823 54.068 124.857 52.2177L111.22 49.475C110.97 49.007 110.11 49.3007 110.088 48.8436C110.164 50.9116 110.175 52.8814 110.371 54.982C110.371 55.7221 110.752 56.5167 111.546 57.2786C112.667 58.3452 114.169 58.9439 115.606 59.216C117.772 59.6295 120.634 59.7602 121.962 57.627L121.951 57.6378Z" fill="#1466A0"/>
<path fill-rule="evenodd" clip-rule="evenodd" d="M114.224 50.0842L111.231 49.4858C110.98 49.0178 110.12 49.3116 110.099 48.8545C110.175 50.9224 110.186 52.8923 110.382 54.9929C110.382 55.733 110.763 56.5276 111.557 57.2895C112.635 58.3234 114.158 58.9438 115.617 59.2268C117.717 59.6295 120.46 59.771 121.842 57.8337C120.046 59.5533 115.824 58.7044 114.485 57.8663C114.343 55.2324 114.256 52.6311 114.234 50.0842H114.224Z" fill="#0D4D7A"/>
<path fill-rule="evenodd" clip-rule="evenodd" d="M123.693 48.0055C121.2 45.6328 116.466 44.5117 113.114 45.513C109.773 46.5034 109.087 49.2354 111.579 51.6081C114.072 53.9807 118.817 55.1018 122.158 54.1005C125.5 53.0992 126.185 50.3781 123.693 48.0055Z" fill="#0A3C5F"/>
<path fill-rule="evenodd" clip-rule="evenodd" d="M133.358 31.6254C133.684 28.8283 133.652 25.955 133.26 23.2014C133.151 22.4395 133.02 21.6778 132.846 20.9268C129.766 8.94371 125.652 5.43899 116.248 16.9867C115.867 17.4547 115.519 17.9446 115.171 18.4344C113.625 20.6438 112.254 23.2558 111.242 25.9877C108.923 32.235 108.151 41.0836 109.794 47.5377C109.979 48.2996 110.186 48.8982 110.447 49.4424C110.698 49.9431 110.991 50.4 111.536 50.9116C114.137 53.3495 118.882 54.4053 122.191 53.4258C123.192 53.121 123.889 52.7292 124.553 52.0435C125.053 51.532 125.598 50.8245 125.978 50.3456C129.799 45.4805 132.618 37.9598 133.347 31.6254H133.358Z" fill="#DAEAFA"/>
<path fill-rule="evenodd" clip-rule="evenodd" d="M116.248 16.9866C114.91 18.6301 113.603 20.7959 112.7 22.6135C111.949 24.1154 111.307 25.6936 110.785 27.2936C108.815 33.4212 108.26 41.5188 109.794 47.5376C109.979 48.2995 110.186 48.8981 110.447 49.4423C111.655 51.902 115.062 53.2623 117.609 53.6433C119.209 53.8827 120.83 53.8283 122.191 53.4256C123.181 53.1318 123.584 52.9576 124.542 52.0543C121.658 53.9916 116.825 52.9685 114.071 51.2598C112.907 41.3228 113.538 31.7451 117.881 24.0829C118.773 24.5509 126.392 27.4243 130.321 24.1918L116.433 17.0955C116.629 16.8343 116.825 16.5729 117.032 16.3226C118.523 14.4941 119.873 13.0468 121.113 11.9475C119.666 13.1012 118.055 14.7663 116.237 16.9866H116.248Z" fill="#C2D6EB"/>
<path fill-rule="evenodd" clip-rule="evenodd" d="M132.617 19.8598C131.67 16.0505 130.016 11.4248 127.436 8.43179C127.382 8.37738 127.328 8.30126 127.262 8.23596C127.219 8.18154 127.099 8.04009 126.957 8.00744C126.827 7.97479 126.664 8.06195 126.587 8.0946C122.767 9.73806 118.969 13.3515 116.487 16.5514C116.335 16.7581 116.182 16.9647 116.084 17.1606C115.486 18.3143 115.78 19.5771 116.476 20.6437C117.151 21.6668 118.185 22.4939 119.186 23.0925C119.328 23.1796 119.469 23.2667 119.611 23.3429C122.332 24.8666 126.261 25.4326 129.058 24.7033C130.092 24.4421 131.082 23.9849 131.801 23.2884C132.16 22.9401 132.443 22.5373 132.617 22.0475C132.726 21.7318 132.802 21.3946 132.802 21.0789C132.802 20.6653 132.704 20.2407 132.606 19.8489L132.617 19.8598Z" fill="#1466A0"/>
<path fill-rule="evenodd" clip-rule="evenodd" d="M127.001 8.01834C127.001 8.01834 126.968 8.00744 126.957 8.00744C126.827 7.97479 126.664 8.06195 126.587 8.0946C122.767 9.73806 118.969 13.3515 116.487 16.5514C116.335 16.7582 116.182 16.9647 116.084 17.1606C115.486 18.3143 115.78 19.5771 116.476 20.6437L116.509 20.687L116.531 20.7306C116.531 20.7306 116.574 20.796 116.596 20.8286L116.629 20.8722L116.661 20.9158C116.661 20.9158 116.705 20.97 116.727 21.0027C116.727 21.0027 116.792 21.1008 116.825 21.1443L116.857 21.1879C116.857 21.1879 116.933 21.2748 116.966 21.3183C116.966 21.3183 117.042 21.4055 117.086 21.4491C117.086 21.4491 117.14 21.5033 117.162 21.536L117.195 21.5795C117.271 21.6666 117.358 21.7428 117.445 21.8299L117.478 21.8734C117.478 21.8734 117.532 21.9279 117.554 21.9497L117.586 21.9824C117.586 21.9824 117.641 22.0366 117.674 22.0584L117.706 22.0911L117.739 22.1237H117.75L117.793 22.1673H117.804L117.837 22.2H117.848L117.88 22.2436L117.924 22.2763L117.957 22.3087L117.989 22.3414L118.022 22.374L118.044 22.3958H118.065L118.087 22.4285L118.109 22.4503H118.12L118.152 22.483H118.163L118.196 22.5157H118.218L118.24 22.5484L118.261 22.5699H118.283V22.6026L118.337 22.6244C118.577 22.7876 118.816 22.9402 119.045 23.0817C119.186 23.1687 119.328 23.2558 119.469 23.332C122.19 24.8557 126.119 25.4217 128.917 24.6924C129.918 24.4312 131.017 23.9631 131.757 23.1794C130.462 24.0175 125.216 26.4338 118.784 21.4164C120.699 16.769 123.3 12.4263 126.859 8.01834H127.001Z" fill="#0D4D7A"/>
<path fill-rule="evenodd" clip-rule="evenodd" d="M122.397 28.1861C125.706 28.9262 127.796 32.1477 127.067 35.3802C126.337 38.6127 123.072 40.6263 119.764 39.8754C116.455 39.1353 114.365 35.9135 115.094 32.681C115.824 29.4485 119.089 27.4351 122.397 28.1752V28.1861Z" fill="#1989A5"/>
<path fill-rule="evenodd" clip-rule="evenodd" d="M120.21 37.9051C118.066 37.4262 116.727 35.304 117.206 33.1599C117.685 31.0266 119.818 29.677 121.951 30.1559C124.095 30.6348 125.434 32.7679 124.955 34.9011C124.476 37.0343 122.343 38.3839 120.21 37.8942V37.9051ZM122.343 28.4253C119.241 27.7287 116.161 29.6769 115.464 32.7679C114.768 35.8698 116.716 38.95 119.818 39.6466C122.92 40.3431 126 38.3949 126.697 35.2931C127.393 32.1912 125.445 29.111 122.343 28.4144V28.4253Z" fill="#3FC1E2"/>
<path fill-rule="evenodd" clip-rule="evenodd" d="M120.21 37.9054C122.343 38.3843 124.476 37.0347 124.955 34.9123C125.434 32.7791 124.084 30.646 121.951 30.1671C119.818 29.6882 117.685 31.0378 117.206 33.1711C116.727 35.3043 118.077 37.4374 120.21 37.9163V37.9054Z" fill="#0D4D7A"/>
<path fill-rule="evenodd" clip-rule="evenodd" d="M121.952 30.1561C124.096 30.635 125.435 32.7681 124.956 34.9013C124.901 35.1408 124.825 35.3804 124.727 35.598C124.792 33.726 123.519 32.0062 121.625 31.5817C119.731 31.1572 117.838 32.1587 117.108 33.8892C117.108 33.6498 117.152 33.3995 117.206 33.1601C117.685 31.0268 119.818 29.6772 121.952 30.1561Z" fill="#0A3C5F"/>
<path fill-rule="evenodd" clip-rule="evenodd" d="M122.017 29.8948C122.245 29.9493 122.474 29.8077 122.517 29.5792C122.572 29.3506 122.43 29.1221 122.202 29.0786C121.973 29.0241 121.745 29.1654 121.701 29.394C121.647 29.6225 121.788 29.8404 122.017 29.8948Z" fill="#147890"/>
<path fill-rule="evenodd" clip-rule="evenodd" d="M119.96 39.0044C120.189 39.0589 120.417 38.9064 120.461 38.6888C120.515 38.4602 120.374 38.2317 120.145 38.1882C119.917 38.1337 119.688 38.2753 119.644 38.5038C119.59 38.7324 119.732 38.9609 119.96 39.0044Z" fill="#147890"/>
<path fill-rule="evenodd" clip-rule="evenodd" d="M126.054 35.1514C126 35.38 125.782 35.5215 125.554 35.4671C125.325 35.4127 125.184 35.1842 125.238 34.9665C125.293 34.7379 125.521 34.5964 125.75 34.6399C125.978 34.6943 126.12 34.9229 126.065 35.1514H126.054Z" fill="#147890"/>
<path fill-rule="evenodd" clip-rule="evenodd" d="M116.933 33.1056C116.879 33.3342 116.65 33.4757 116.433 33.4213C116.204 33.3669 116.063 33.1381 116.117 32.9204C116.172 32.7027 116.389 32.5506 116.629 32.5941C116.857 32.6485 116.999 32.8771 116.944 33.1056H116.933Z" fill="#147890"/>
<path fill-rule="evenodd" clip-rule="evenodd" d="M125.391 31.3095C125.511 31.5054 125.456 31.7666 125.26 31.8864C125.064 32.017 124.803 31.9518 124.673 31.7559C124.553 31.56 124.607 31.2987 124.803 31.179C124.999 31.0593 125.26 31.1136 125.391 31.3095Z" fill="#147890"/>
<path fill-rule="evenodd" clip-rule="evenodd" d="M117.489 36.3052C117.609 36.5011 117.555 36.7624 117.359 36.8821C117.163 37.0127 116.902 36.9473 116.771 36.7514C116.64 36.5554 116.706 36.2942 116.902 36.1745C117.098 36.0439 117.359 36.1093 117.489 36.3052Z" fill="#147890"/>
<path fill-rule="evenodd" clip-rule="evenodd" d="M123.801 38.3406C123.605 38.4712 123.344 38.4058 123.214 38.2099C123.094 38.0139 123.148 37.7527 123.344 37.633C123.54 37.5024 123.801 37.5678 123.932 37.7637C124.052 37.9596 123.997 38.2209 123.801 38.3406Z" fill="#147890"/>
<path fill-rule="evenodd" clip-rule="evenodd" d="M118.806 30.4392C118.61 30.5698 118.349 30.5043 118.218 30.3084C118.088 30.1125 118.153 29.8513 118.349 29.7315C118.545 29.6118 118.806 29.6664 118.937 29.8623C119.056 30.0582 119.002 30.3194 118.806 30.4392Z" fill="#147890"/>
<path fill-rule="evenodd" clip-rule="evenodd" d="M124.879 51.217L125.032 51.0203L124.857 51.228L124.879 51.217Z" fill="#828388"/>
<path fill-rule="evenodd" clip-rule="evenodd" d="M128.677 44.4791L126.457 45.1756C127.676 55.0146 126.13 60.2715 124.465 68.3255L126.685 67.6291C127.893 63.9177 129.635 60.0431 130.299 56.2555C130.592 54.5685 130.679 52.8815 130.494 51.0857C130.255 48.7892 129.624 46.6668 128.677 44.4791Z" fill="#1466A0"/>
<path fill-rule="evenodd" clip-rule="evenodd" d="M126.457 45.1755L122.397 53.8502C123.54 57.899 124.302 62.6115 124.465 68.3255C127.056 60.3585 130.647 54.8077 126.457 45.1755Z" fill="#0D4D7A"/>
<path fill-rule="evenodd" clip-rule="evenodd" d="M109.739 40.2236L111.448 41.8017C106.126 50.1714 105.277 55.5916 103.329 63.5694L101.62 61.9913C102.121 58.1167 102.197 53.8718 103.231 50.1604C103.688 48.5061 104.33 46.939 105.266 45.4043C106.463 43.4344 107.944 41.7909 109.739 40.2236Z" fill="#1466A0"/>
<path fill-rule="evenodd" clip-rule="evenodd" d="M111.449 41.8016L111.394 51.3795C108.63 54.5467 105.92 58.4757 103.318 63.5693C104.396 55.2649 103.525 48.7129 111.438 41.8016H111.449Z" fill="#0D4D7A"/>
<path fill-rule="evenodd" clip-rule="evenodd" d="M162.971 67.89L153.1 62.3065C152.022 61.8167 150.488 61.4251 149.388 62.002C148.387 62.5135 146.744 63.5691 146.014 63.9826C145.459 64.2983 143.544 65.4413 144.741 66.0834C148.256 67.9772 151.739 70.1104 155.298 72.0368C155.973 72.396 156.964 72.5374 157.998 72.4503C159.031 72.3632 160.087 72.0693 160.925 71.5904C161.524 71.253 162.101 70.9157 162.678 70.5783C163.45 70.1321 163.864 69.5987 163.907 69.1089C163.951 68.63 163.635 68.1839 162.982 67.89H162.971Z" fill="#EAF4FF"/>
<path fill-rule="evenodd" clip-rule="evenodd" d="M144.719 33.1164C145.187 33.7586 147.571 35.6305 149.737 36.5774C150.368 36.8495 151.032 35.9678 151.206 35.4128C151.391 34.8577 151.151 34.3462 150.977 34.1503C150.651 33.802 150.041 33.4103 149.018 33.0946C148.409 32.9096 147.636 32.213 147.026 31.9409C146.656 31.6905 146.232 31.462 145.807 31.3967C144.676 31.2225 143.99 32.2348 144.719 33.1055V33.1164Z" fill="#0A3C5F"/>
<path fill-rule="evenodd" clip-rule="evenodd" d="M144.164 26.3794C144.088 26.1508 144.056 26.0094 144.045 25.9114C144.045 25.7482 144.154 25.7374 144.241 25.498C144.317 25.3021 144.35 24.9863 144.393 24.7904C144.458 24.5292 144.393 24.3552 144.393 24.1266C144.393 23.9633 144.284 23.7783 144.077 23.8C144.001 23.8 143.914 23.8219 143.751 23.8545C143.577 23.6912 143.544 23.6695 143.326 23.5606C143.163 23.4735 143.065 23.4845 142.902 23.5824C142.652 23.7457 142.445 23.9088 142.369 24.0285C142.282 24.1483 142.162 24.4965 142.064 24.823C141.977 25.106 141.955 25.2258 142.064 25.3999C142.282 25.7917 142.434 25.9005 142.608 26.1182C142.728 26.2923 142.869 26.532 143.011 26.902C143.599 28.9155 143.555 30.8202 144.502 32.6051C144.611 32.8011 144.73 32.8988 144.883 32.9532C145.155 33.0512 145.656 32.7249 145.982 32.616L146.004 30.7765C145.862 29.8078 144.915 27.8707 144.175 26.3687L144.164 26.3794Z" fill="#F0B186"/>
<path fill-rule="evenodd" clip-rule="evenodd" d="M143.054 27.0758C143.196 27.0867 143.391 27.0758 143.576 27.0214C143.511 26.8799 143.479 26.7602 143.272 26.2486C143.206 25.8895 142.913 25.6174 142.608 25.4432C142.76 25.3888 142.728 25.4431 142.836 25.3234C142.891 25.454 143.043 25.5522 143.098 25.5086C143.163 25.4324 143.196 25.3563 143.174 25.2692C143.141 25.1059 143 24.9644 142.815 24.9317C142.717 24.9209 142.368 25.0624 141.977 25.2256C141.977 25.2909 141.998 25.3453 142.042 25.4215C142.26 25.8133 142.412 25.922 142.586 26.1397C142.728 26.3356 142.88 26.6296 143.054 27.0976V27.0758Z" fill="#E7A376"/>
<path fill-rule="evenodd" clip-rule="evenodd" d="M144.001 23.7998C143.936 23.7998 143.859 23.8216 143.74 23.8434C143.565 23.6801 143.533 23.6583 143.315 23.5495C143.152 23.4624 143.054 23.4733 142.891 23.5713C142.64 23.7346 142.434 23.8977 142.357 24.0174C142.27 24.1372 142.151 24.4854 142.053 24.8119C141.998 25.0078 141.966 25.1277 141.987 25.2366C142.259 25.1386 142.586 25.0079 142.858 24.8991C142.967 24.9535 143.337 25.2583 143.097 25.4869C143.282 25.3236 143.435 24.9535 143.576 24.6488C143.729 24.3332 143.881 23.974 143.914 23.8325L144.001 23.7889V23.7998Z" fill="#F0B186"/>
<path fill-rule="evenodd" clip-rule="evenodd" d="M144.001 23.7998C143.936 23.7998 143.86 23.8216 143.74 23.8434C143.566 23.6801 143.533 23.6583 143.316 23.5495C143.261 23.5168 143.207 23.495 143.163 23.495L142.848 24.8991C142.956 24.9535 143.327 25.2583 143.087 25.4868C143.272 25.3236 143.424 24.9535 143.566 24.6487C143.718 24.3331 143.871 23.9739 143.903 23.8325L143.99 23.7889L144.001 23.7998Z" fill="#E7A376"/>
<path fill-rule="evenodd" clip-rule="evenodd" d="M144.392 24.8009C144.458 24.5397 144.392 24.3657 144.392 24.1372C144.392 23.9739 144.284 23.7888 144.077 23.8106C144.001 23.8106 143.914 23.8324 143.75 23.8651C143.62 23.8651 143.609 23.8758 143.544 23.952C143.511 23.9846 143.511 24.1479 143.598 24.2349C143.816 24.4744 144.327 24.7574 144.403 24.8118L144.392 24.8009Z" fill="#F0B186"/>
<path fill-rule="evenodd" clip-rule="evenodd" d="M143.544 23.9302C143.598 24.1479 143.881 24.3547 144.262 24.235C144.132 24.3982 143.947 24.4528 143.805 24.4202C143.576 24.3766 143.424 24.1587 143.544 23.9302Z" fill="#E7A376"/>
<path fill-rule="evenodd" clip-rule="evenodd" d="M144.284 26.5643C144.262 26.5099 144.153 26.2486 144.142 26.2051C143.75 26.5534 143.348 26.7275 142.901 26.7384C142.923 26.7928 143.021 27.0868 143.043 27.1412C143.065 27.2283 143.043 27.3913 143.043 27.4893C142.978 28.5124 143.576 30.9395 144.48 32.6482C144.828 33.3013 146.526 33.1164 146.482 31.9736C146.46 31.2552 145.579 29.2308 145.361 28.6975C145.122 28.0989 144.828 27.4568 144.501 26.7928C144.458 26.6949 144.338 26.6732 144.294 26.5752L144.284 26.5643Z" fill="#0A3C5F"/>
<path fill-rule="evenodd" clip-rule="evenodd" d="M157.475 64.9734C157.53 65.1366 157.508 65.2781 157.606 65.5067C157.704 65.7244 157.812 65.9747 157.921 66.3557C158.085 66.9434 157.921 67.7377 158.15 68.5757C158.259 68.9131 158.27 69.1744 158.052 69.4792C157.845 69.773 157.453 70.2301 156.909 70.2192C156.789 70.2192 156.528 70.1648 156.332 69.9471C156.115 69.7185 155.94 69.3812 155.951 68.9568C155.951 68.7935 156.028 68.2819 155.995 67.8139C155.962 67.4003 155.875 67.1827 155.864 66.7255C155.864 66.2466 155.864 65.5935 155.864 65.2888L157.486 64.9843L157.475 64.9734Z" fill="#043150"/>
<path fill-rule="evenodd" clip-rule="evenodd" d="M153.165 62.5354C153.339 62.9599 153.448 63.1339 153.48 63.7216C153.393 64.0263 153.187 64.1571 152.947 64.3747L152.773 64.4074C152.36 64.636 152.229 65.4414 151.848 65.8115C151.576 66.0727 151.032 66.2141 150.477 66.323C149.889 66.4318 149.323 66.2686 149.454 65.8115C149.791 64.6578 151.391 63.3624 151.369 62.0781L153.154 62.5354H153.165Z" fill="#043150"/>
<path fill-rule="evenodd" clip-rule="evenodd" d="M150.324 54.3508C150.466 56.5493 151.239 60.5545 151.26 62.7204C151.946 63.1775 152.86 63.0796 153.198 62.5028C153.339 60.511 153.492 57.8227 153.47 56.7343C153.448 55.82 153.328 54.9819 153.067 54.1656C153.296 51.7602 154.547 48.4735 154.112 46.2097C153.927 45.2193 153.22 44.1416 152.991 43.3253C152.273 44.2504 150.248 44.4137 149.225 44.1525C149.258 44.7402 149.105 44.5987 149.171 45.2191C149.432 47.7986 149.878 50.5523 150.139 53.2515C150.15 53.6324 150.205 54.0569 150.324 54.3726V54.3508Z" fill="#0A3C5F"/>
<path fill-rule="evenodd" clip-rule="evenodd" d="M153.525 55.9508C154.014 58.1493 155.364 63.1884 155.734 65.3543C156.463 65.7461 157.367 65.5394 157.595 64.9626C157.519 62.9709 157.399 59.6838 157.203 58.5846C157.04 57.6703 156.55 56.2991 156.148 55.4828C155.984 53.0775 156.605 49.7251 155.81 47.4504C155.462 46.46 154.58 45.3826 154.221 44.5663C153.808 45.2411 153.285 45.5241 151.805 45.4044C151.663 45.3935 150.401 44.5226 149.987 44.4247C150.629 47.483 152.284 51.4775 153.144 54.8188C153.22 55.1997 153.34 55.6242 153.514 55.9399L153.525 55.9508Z" fill="#0D4D7A"/>
<path fill-rule="evenodd" clip-rule="evenodd" d="M154.58 35.3039C153.774 34.9556 150.999 33.519 150.237 33.704C149.355 33.9108 148.692 34.3894 148.419 35.086C148.049 36.0002 147.897 37.263 148.147 38.8629C148.245 39.4833 148.441 40.0819 148.594 40.7458C148.8 41.6274 148.92 44.6856 149.203 45.5346C150.096 46.8624 153.6 46.5904 155.124 45.3279C154.884 44.8599 155.037 41.105 155.157 40.724C155.614 39.3527 156.136 37.8506 156.038 36.8493C155.962 36.033 155.222 35.5869 154.58 35.3039Z" fill="#DAEAFA"/>
<path fill-rule="evenodd" clip-rule="evenodd" d="M150.368 33.6388C151.108 33.6388 152.599 34.1176 153.122 34.3352C154.787 35.0209 156.441 35.8373 156.496 36.8822C156.583 38.6345 155.309 40.1147 155.266 42.0956C155.222 43.7717 157.203 46.4382 159.195 47.2327C158.977 48.049 157.889 49.0176 157.083 48.8544C154.754 47.9075 150.379 42.1281 152.73 35.2169C152.904 34.7054 152.066 34.5529 151.162 34.357C150.303 34.172 150.02 33.6497 150.368 33.6497V33.6388Z" fill="#0D4D7A"/>
<path fill-rule="evenodd" clip-rule="evenodd" d="M149.116 45.1863C148.778 43.8476 148.669 42.6069 148.484 41.3661C148.31 40.2015 147.951 38.7106 147.951 37.4154C147.951 35.9243 148.191 34.5529 149.17 33.8564C149.649 33.519 150.095 33.5843 151.521 33.8455L151.478 34.3679C149.04 35.3583 148.571 37.8726 148.648 40.4956C148.702 42.1608 148.985 43.8041 149.116 45.1863Z" fill="#0D4D7A"/>
<path fill-rule="evenodd" clip-rule="evenodd" d="M150.205 36.1745C149.498 37.7853 149.922 38.4493 150.499 39.5594C151.13 40.7675 150.815 42.2152 150.641 43.7607C150.314 44.2178 149.737 44.7075 149.215 45.0014C149.095 44.0218 148.964 43.6409 148.769 43.0967C149.182 42.3239 149.367 41.3553 149.258 40.6587C149.041 39.2765 148.333 38.0792 149.846 36.0113C149.759 35.4345 149.846 35.3148 149.966 35.2604C150.107 35.1842 149.988 35.1516 150.401 35.2713C150.673 35.3475 150.945 35.4235 150.847 35.7065C150.771 35.9242 150.651 36.0112 150.205 36.1745Z" fill="#31ACCB"/>
<path fill-rule="evenodd" clip-rule="evenodd" d="M152.806 34.2698C152.86 34.9664 150.76 36.0331 150.52 35.2604C150.368 34.7924 150.488 33.3011 150.313 32.6481L152.131 31.7558L152.795 31.4946C152.566 32.583 152.403 33.3556 152.817 34.2698H152.806Z" fill="#E7A376"/>
<path fill-rule="evenodd" clip-rule="evenodd" d="M150.521 35.2277C150.434 35.0209 150.466 34.455 150.401 34.1611C150.151 34.1938 149.813 35.0427 149.596 35.478C149.922 35.2495 150.151 35.2277 150.51 35.2277H150.521Z" fill="#ECF5FF"/>
<path fill-rule="evenodd" clip-rule="evenodd" d="M152.654 33.8019C152.687 34.3896 151.283 35.0427 150.423 35.2386C150.641 35.4998 150.913 35.8155 150.902 36.0767C151.522 35.9134 152.643 35.5325 153.068 34.7598C153.362 34.2265 152.926 34.0196 152.643 33.8128L152.654 33.8019Z" fill="#ECF5FF"/>
<path fill-rule="evenodd" clip-rule="evenodd" d="M150.64 29.3397C150.238 29.4812 150.118 29.8186 150.053 30.3845C150.26 30.1015 150.303 30.0035 150.553 29.7641L150.64 29.3397Z" fill="#38251B"/>
<path fill-rule="evenodd" clip-rule="evenodd" d="M150.597 33.7151C150.869 33.6607 151.522 33.5734 151.783 33.4972C152.338 33.3448 152.447 32.9314 152.806 32.3437C153.318 32.2131 153.546 32.039 153.677 31.7886C154.004 31.2118 153.906 30.4173 153.579 29.884C153.296 29.416 152.85 29.1438 152.273 29.0568C151.152 28.8826 150.499 29.2635 150.107 30.1234C150.075 30.1996 149.987 30.5042 149.977 30.5913C149.966 30.7872 149.998 30.8417 149.977 30.9723C149.966 31.0594 149.922 31.1574 149.824 31.2662C149.607 31.5274 149.454 33.051 149.606 33.2796C149.77 33.5299 150.14 33.7586 150.586 33.7151H150.597Z" fill="#F0B186"/>
<path fill-rule="evenodd" clip-rule="evenodd" d="M151.043 30.3192C151.337 30.2648 152.436 30.047 152.926 29.9381C153.427 29.8184 153.96 29.6988 154.232 30.0689C154.428 30.5369 154.308 31.2442 154.134 31.6143C153.884 32.1367 153.383 32.5069 152.752 32.8661C152.512 33.0076 152.763 32.2348 152.752 32.0607C152.578 32.311 152.436 32.3979 152.349 32.387C152.284 32.387 152.197 32.3981 152.306 32.0498C152.458 31.5165 152.229 31.3531 152.458 31.0374C152.643 30.7871 152.436 30.7655 152.414 30.6349C152.012 30.5369 151.587 30.6348 151.065 30.3301L151.043 30.3192Z" fill="#38251B"/>
<path fill-rule="evenodd" clip-rule="evenodd" d="M153.046 31.7993C153.503 31.7775 153.373 32.2563 153.22 32.5284C153.122 32.7135 152.959 32.659 152.85 32.8005C152.73 32.9638 152.556 33.0181 152.426 32.9746C152.175 32.8984 152.426 32.561 152.513 32.4304C152.556 32.1801 152.752 31.8211 153.035 31.8102L153.046 31.7993Z" fill="#F0B186"/>
<path fill-rule="evenodd" clip-rule="evenodd" d="M151.489 31.8972C151.337 31.7121 151.184 31.5924 150.891 31.5706C151.206 31.5488 151.391 31.6795 151.489 31.8972Z" fill="#AA6F48"/>
<path fill-rule="evenodd" clip-rule="evenodd" d="M150.303 31.2225C150.238 31.0157 150.118 30.9831 149.987 30.9722C150.074 31.0157 150.172 31.0266 150.292 31.2552V31.2225H150.303Z" fill="#AA6F48"/>
<path fill-rule="evenodd" clip-rule="evenodd" d="M150.292 31.4402C150.162 31.6252 150.118 31.7339 149.955 31.8319C149.672 32.006 149.715 32.1477 149.966 32.3001C149.726 32.0933 149.792 32.0278 149.998 31.8536C150.129 31.7448 150.173 31.6579 150.292 31.4402Z" fill="#AA6F48"/>
<path fill-rule="evenodd" clip-rule="evenodd" d="M151.152 31.8645C151.065 31.8427 151.075 31.7231 151.119 31.6686C151.141 31.6469 151.173 31.6251 151.217 31.6359C151.25 31.6359 151.304 31.6796 151.304 31.7449C151.304 31.8211 151.217 31.8754 151.152 31.8645Z" fill="#AA6F48"/>
<path fill-rule="evenodd" clip-rule="evenodd" d="M150.608 28.4035C150.815 28.5885 151.076 28.4361 152.045 28.3817C153.046 28.3273 154.298 28.8824 154.254 30.0143C154.254 30.0469 154.254 30.0797 154.254 30.1123C153.917 30.1123 153.427 30.3301 152.905 30.4389C152.176 30.6021 151.381 30.6347 150.88 30.3408C150.238 29.9599 149.868 28.9368 150.608 28.4035Z" fill="#422D22"/>
<path fill-rule="evenodd" clip-rule="evenodd" d="M150.085 31.2551C149.998 31.2333 150.009 31.1134 150.053 31.059C150.074 31.0372 150.107 31.0154 150.15 31.0263C150.183 31.0263 150.238 31.07 150.238 31.1353C150.238 31.2115 150.15 31.266 150.085 31.2551Z" fill="#AA6F48"/>
<path fill-rule="evenodd" clip-rule="evenodd" d="M149.781 32.594C149.781 32.594 149.835 32.6373 149.868 32.6591C149.944 32.6917 149.966 32.7027 150.02 32.7462C150.107 32.8224 150.282 32.9747 150.554 32.9747C150.293 32.9965 149.922 33.1055 149.748 32.877C149.705 32.8117 149.748 32.7244 149.716 32.67C149.705 32.6264 149.683 32.5613 149.77 32.5831L149.781 32.594Z" fill="#EA9F6F"/>
<path fill-rule="evenodd" clip-rule="evenodd" d="M149.759 32.6807C149.922 32.833 150.075 32.931 150.336 32.9745C150.151 32.9745 149.89 32.9202 149.748 32.7787V32.6916L149.759 32.6807Z" fill="#AA6F48"/>
<path fill-rule="evenodd" clip-rule="evenodd" d="M155.244 52.228C155.201 52.0429 155.266 52.0756 155.342 51.9668C155.342 51.9559 155.364 51.9343 155.375 51.9235L156.572 50.7915C157.356 50.1602 158.161 51.7602 158.618 53.0118L157.606 54.0022L155.712 53.5342L155.255 52.228H155.244Z" fill="#1989A5"/>
<path fill-rule="evenodd" clip-rule="evenodd" d="M158.008 56.9627L157.235 54.0241L157.018 53.0771L161.948 48.1576L162.982 52.0323C163.004 52.1303 163.015 52.2282 163.015 52.3044C163.015 52.3588 163.004 52.4134 162.993 52.4569C162.993 52.4787 162.971 52.5003 162.971 52.522C162.949 52.5656 162.928 52.5983 162.895 52.631L157.965 57.5505C158.095 57.4199 158.095 57.2239 158.03 56.9518L158.008 56.9627Z" fill="#1989A5"/>
<path fill-rule="evenodd" clip-rule="evenodd" d="M155.037 52.5547L157.007 53.0771L158.041 56.9518C158.182 57.4851 157.867 57.8009 157.323 57.6594H157.301C156.757 57.507 156.213 56.9627 156.071 56.4294L155.037 52.5547Z" fill="#239BB8"/>
<path fill-rule="evenodd" clip-rule="evenodd" d="M160.25 53.3927L159.945 53.3058L160.207 54.2852L160.522 54.3724L160.381 53.8064L160.25 53.3927Z" fill="#F1920E"/>
<path fill-rule="evenodd" clip-rule="evenodd" d="M160.098 46.9388C160.152 46.8843 160.261 46.8189 160.338 46.7971C160.61 46.7101 160.958 46.819 161.197 46.9279C161.404 47.0258 161.6 47.1674 161.774 47.3198C162.035 47.5592 162.264 47.8638 162.384 48.2012C162.395 48.2338 162.405 48.2775 162.416 48.3101L162.732 49.4639L160.86 53.0553L160.425 53.4908L157.802 54.3834L157.769 54.3616L157.606 53.8283C157.519 53.5127 157.138 52.6092 156.898 52.3589C156.561 52.0106 155.603 51.4664 155.189 51.8583L160.12 46.9388H160.098Z" fill="#31ACCB"/>
<path fill-rule="evenodd" clip-rule="evenodd" d="M155.516 51.6949C155.113 51.7493 154.906 52.0868 155.037 52.5875L155.418 54.0024L155.842 54.1114L155.461 52.6964C155.407 52.4896 155.44 52.3264 155.538 52.2176C155.853 51.902 156.506 52.3262 156.713 52.5439C156.866 52.7072 156.985 52.9031 157.04 53.099L157.344 54.2527L157.769 54.3617L157.464 53.2079C157.344 52.7726 157.083 52.3263 156.702 52.0324C156.376 51.7712 155.919 51.6296 155.505 51.684L155.516 51.6949Z" fill="#239BB8"/>
<path fill-rule="evenodd" clip-rule="evenodd" d="M160.25 53.3928L160.142 53.3601L160.403 54.3398L160.523 54.3725L160.381 53.8065L160.25 53.3928Z" fill="#F1920E"/>
<path fill-rule="evenodd" clip-rule="evenodd" d="M160.882 52.7617L160.512 53.1751L160.25 53.3928L160.142 53.3601L160.762 52.729L160.882 52.7617Z" fill="#FFD463"/>
<path fill-rule="evenodd" clip-rule="evenodd" d="M160.881 52.7617L160.25 53.3928L160.522 54.3725L161.142 53.7303L160.881 52.7617Z" fill="#FFC426"/>
<path fill-rule="evenodd" clip-rule="evenodd" d="M158.89 48.3319C158.89 48.3319 158.89 48.3101 158.879 48.2993L158.857 48.2666C158.857 48.2666 158.846 48.2448 158.835 48.2339C158.835 48.2339 158.825 48.2121 158.814 48.2012C158.803 48.1903 158.792 48.1794 158.77 48.1685C158.77 48.1685 158.737 48.1467 158.727 48.1467L159.184 48.2666C159.184 48.2666 159.216 48.2666 159.227 48.2884C159.227 48.2884 159.249 48.3102 159.271 48.321C159.271 48.321 159.282 48.3319 159.293 48.3428V48.3646H159.314V48.4082H159.336V48.4515H159.358V48.506H159.369L159.423 48.7236L158.966 48.604L158.912 48.3973C158.912 48.3973 158.912 48.3646 158.901 48.3537L158.89 48.3319Z" fill="#783C18"/>
<path fill-rule="evenodd" clip-rule="evenodd" d="M158.367 47.9835L158.389 47.9617H158.411V47.9399L158.432 47.9181L158.454 47.8963H158.476L158.498 47.8639H158.519L158.541 47.8421H158.563L158.596 47.8203H158.628C158.628 47.8203 158.65 47.8094 158.672 47.8094C158.672 47.8094 158.694 47.8094 158.715 47.8094C158.715 47.8094 158.759 47.8094 158.77 47.8094L159.227 47.929C159.053 47.929 158.9 48.0269 158.781 48.1466H158.759L158.084 48.8107C157.801 49.0937 157.692 49.5399 157.736 49.9426H157.703V49.9644V49.9862V50.008V50.0298V50.0513V50.0731V50.0949V50.1167L157.758 50.3452L157.3 50.2256L157.246 50.0189V49.9971V49.9753V49.9535V49.9208V49.8882C157.246 49.8882 157.246 49.8228 157.246 49.7901V49.7686C157.246 49.6706 157.246 49.5942 157.268 49.5071C157.29 49.3874 157.311 49.2788 157.366 49.159L157.388 49.1155L157.398 49.0828C157.409 49.0066 157.573 48.7997 157.627 48.7344L158.334 48.0271L158.356 48.0053L158.367 47.9835Z" fill="#31ACCB"/>
<path fill-rule="evenodd" clip-rule="evenodd" d="M158.106 48.8216L158.814 48.1252C159.118 47.8204 159.456 47.9074 159.565 48.321L159.619 48.5278L159.423 48.7236L159.369 48.5169C159.292 48.2557 159.075 48.2014 158.879 48.3864L158.171 49.0937C157.975 49.2896 157.878 49.6597 157.943 49.9209L157.997 50.1277L157.801 50.3235L157.747 50.1168C157.638 49.7141 157.791 49.1373 158.095 48.8325L158.106 48.8216Z" fill="#1989A5"/>
<path fill-rule="evenodd" clip-rule="evenodd" d="M159.184 46.9388C159.184 47.9727 159.478 48.4626 159.434 48.6803C159.391 48.8762 158.596 49.7795 158.313 50.0081C158.226 50.0734 157.997 49.9862 157.976 49.9427C157.812 49.7468 157.976 49.431 157.878 48.9957C157.823 48.7454 157.627 48.7999 157.54 48.8652C157.399 48.9632 157.366 49.2243 157.312 49.3658C157.312 48.7672 157.072 48.3102 157.421 47.8422C157.573 47.6354 157.78 47.4393 157.823 47.0692L159.195 46.9279L159.184 46.9388Z" fill="#E7A376"/>
<path fill-rule="evenodd" clip-rule="evenodd" d="M155.603 35.8046C156.049 35.8481 156.854 36.4031 157.127 36.8276C157.899 38.0248 158.389 40.3974 158.922 41.9211C159.107 43.7279 159.303 45.1865 159.358 47.0041C159.107 47.4177 157.867 48.0597 157.551 47.4066C157.344 45.8611 156.931 44.0544 157.05 42.4871C156.463 41.7361 156.027 40.8981 155.625 40.0927C155.189 39.222 153.981 36.0767 155.603 35.8046Z" fill="#0D4D7A"/>
<path fill-rule="evenodd" clip-rule="evenodd" d="M66.5627 70.143C62.9166 72.2436 62.8948 75.6829 66.5192 77.7835C70.1435 79.8841 76.0643 79.8841 79.7104 77.7835C83.3564 75.6829 83.3782 72.2436 79.7539 70.143C76.1295 68.0316 70.2087 68.0316 66.5627 70.143Z" fill="#EAF4FF"/>
<path fill-rule="evenodd" clip-rule="evenodd" d="M79.8084 71.9172V73.4084C79.8084 72.9839 79.6778 72.5484 79.4602 72.1784C78.7854 71.0791 77.6426 70.4697 76.4562 70.067C75.4549 69.7514 74.5624 69.599 73.5176 69.5664C72.0374 69.5337 70.5789 69.7296 69.2184 70.3064C68.9572 70.4152 68.6852 70.546 68.4348 70.6874C67.1179 71.4493 66.4649 72.4398 66.4649 73.4411V71.9499C66.454 69.6207 69.4035 68.1515 72.5489 67.9556C76.0535 67.7379 79.7867 69.0765 79.7867 71.9063L79.8084 71.9172Z" fill="#DA8D00"/>
<path fill-rule="evenodd" clip-rule="evenodd" d="M68.4339 69.9581C65.8327 71.4601 65.8109 73.9199 68.4013 75.4218C70.9916 76.9238 75.2255 76.9238 77.8267 75.4218C80.4279 73.9199 80.4497 71.4601 77.8593 69.9581C75.269 68.4562 71.0352 68.4562 68.423 69.9581H68.4339Z" fill="#F8C527"/>
<path fill-rule="evenodd" clip-rule="evenodd" d="M71.2422 76.3034V77.7946C70.5347 77.6858 69.7947 77.5223 69.1199 77.2829V75.7919C69.7838 76.0314 70.5347 76.2055 71.2422 76.3034ZM65.6044 74.5077L65.5391 73.7674L65.5935 73.0165C65.7785 73.4736 66.1159 73.92 66.4642 74.2574V75.7483C66.3989 75.683 66.3445 75.6178 66.2792 75.5525C65.9962 75.2478 65.7567 74.8886 65.5935 74.5077H65.6044Z" fill="#E7A000"/>
<path fill-rule="evenodd" clip-rule="evenodd" d="M65.7891 69.2072V70.6984L66.4965 71.1118V69.6209L65.7891 69.2072Z" fill="#F8C527"/>
<path fill-rule="evenodd" clip-rule="evenodd" d="M79.8079 69.6209V71.1118L80.5262 70.6984V69.2072L79.8079 69.6209ZM74.9863 77.7946V76.3034C75.6938 76.1946 76.4448 76.0314 77.1305 75.7919V77.2829C76.4557 77.5223 75.7047 77.6967 74.9972 77.7946H74.9863ZM80.6677 73.0274V74.5186C80.4827 74.9431 80.1888 75.3674 79.7861 75.7483V74.2574C80.1888 73.8656 80.4827 73.4519 80.6677 73.0274Z" fill="#DA8D00"/>
<path fill-rule="evenodd" clip-rule="evenodd" d="M64.5928 73.0273V74.5186H65.605L65.5941 73.0273H64.5928Z" fill="#DA8D00"/>
<path fill-rule="evenodd" clip-rule="evenodd" d="M80.668 73.0273V74.5186H81.6802L81.6693 73.0273H80.668Z" fill="#F8C527"/>
<path fill-rule="evenodd" clip-rule="evenodd" d="M68.4023 76.2055V77.6967L69.1098 77.2829V75.792L68.4023 76.2055Z" fill="#DA8D00"/>
<path fill-rule="evenodd" clip-rule="evenodd" d="M77.1201 75.792V77.2829L77.8276 77.6967V76.2055L77.1201 75.792Z" fill="#F8C527"/>
<path fill-rule="evenodd" clip-rule="evenodd" d="M77.8271 76.2054C78.7849 75.8571 79.7318 75.3457 80.4828 74.6709V76.1621C79.7536 76.8151 78.7632 77.3592 77.8271 77.6966V76.2054ZM81.8759 71.9172V73.4084C81.8759 73.7785 81.8106 74.1486 81.6691 74.5186V73.0274C81.7997 72.6574 81.8759 72.2873 81.8759 71.9172Z" fill="#DA8D00"/>
<path fill-rule="evenodd" clip-rule="evenodd" d="M68.4132 74.6709C71.0035 76.1837 75.2264 76.1837 77.8385 74.6709C80.4507 73.158 80.4616 70.72 77.8712 69.2072C75.27 67.6943 71.0471 67.6943 68.4459 69.2072C65.8337 70.7092 65.8228 73.158 68.4132 74.6709ZM64.6038 70.8507H65.6051C65.7901 70.4262 66.084 70.0018 66.4976 69.6209L65.7902 69.2072C66.1276 68.9024 66.5194 68.6194 66.9765 68.3582C67.4336 68.097 67.9343 67.8686 68.4459 67.6727L69.1533 68.0861C69.8281 67.8467 70.5464 67.6834 71.2865 67.5746V66.9868C72.5273 66.8345 73.8007 66.8345 75.0415 66.9868V67.5746C75.7816 67.6834 76.4998 67.8467 77.1637 68.0861L77.8821 67.6727C78.4045 67.8686 78.8943 68.097 79.3514 68.3582C79.8085 68.6194 80.2004 68.9024 80.5269 69.2072L79.8085 69.6209C80.2112 70.0127 80.5051 70.4262 80.6793 70.8507H81.6806C81.9418 71.569 81.9418 72.3091 81.6697 73.0274H80.6684C80.4833 73.4519 80.1895 73.8765 79.7759 74.2574L80.4834 74.6709C80.146 74.9756 79.7541 75.2586 79.297 75.5199C78.8399 75.7811 78.3501 76.0095 77.8277 76.2054L77.1202 75.792C76.4454 76.0314 75.7271 76.1946 74.987 76.3035V76.8803C73.7462 77.0327 72.4729 77.0327 71.2321 76.8803V76.3035C70.492 76.1946 69.7737 76.0314 69.1098 75.792L68.4023 76.2054C67.8799 76.0095 67.3901 75.7811 66.9439 75.5199C66.4868 75.2586 66.0949 74.9648 65.7684 74.6709L66.4867 74.2574C66.084 73.8656 65.7902 73.4519 65.616 73.0274H64.6147C64.3426 72.3091 64.3535 71.569 64.6256 70.8615L64.6038 70.8507Z" fill="#F4B300"/>
<path fill-rule="evenodd" clip-rule="evenodd" d="M64.5924 73.0273V74.5185C64.4727 74.1811 64.3965 73.8002 64.3965 73.441V71.9498C64.3965 72.0696 64.5162 72.777 64.5924 73.0273ZM74.9864 76.8911V78.3821C73.7674 78.5345 72.4723 78.5345 71.2424 78.3821V76.8911C72.4505 77.0435 73.7674 77.0435 74.9864 76.8911ZM65.7679 76.162V74.6708C66.5188 75.3456 67.4766 75.857 68.4017 76.2053V77.6965C67.4657 77.3482 66.5188 76.8368 65.7679 76.162Z" fill="#F8C527"/>
<path fill-rule="evenodd" clip-rule="evenodd" d="M79.8084 70.2738V71.765C79.8084 71.3405 79.6778 70.905 79.4602 70.535C78.7854 69.4357 77.6426 68.8263 76.4562 68.4236C75.4549 68.1079 74.5624 67.9556 73.5176 67.9229C72.0374 67.8903 70.5789 68.0861 69.2184 68.663C68.9572 68.7718 68.6852 68.9025 68.4348 69.044C67.1179 69.8059 66.4649 70.7963 66.4649 71.7977V70.3064C66.454 67.9773 69.4035 66.5081 72.5489 66.3122C76.0535 66.0945 79.7867 67.4331 79.7867 70.2629L79.8084 70.2738Z" fill="#DA8D00"/>
<path fill-rule="evenodd" clip-rule="evenodd" d="M68.4339 68.3038C65.8327 69.8058 65.8109 72.2656 68.4013 73.7675C70.9916 75.2695 75.2255 75.2695 77.8267 73.7675C80.4279 72.2656 80.4497 69.8058 77.8593 68.3038C75.269 66.8019 71.0352 66.8019 68.423 68.3038H68.4339Z" fill="#F8C527"/>
<path fill-rule="evenodd" clip-rule="evenodd" d="M71.2422 74.66V76.1512C70.5347 76.0424 69.7947 75.8789 69.1199 75.6394V74.1485C69.7838 74.3879 70.5347 74.562 71.2422 74.66ZM65.6044 72.8643L65.5391 72.124L65.5935 71.373C65.7785 71.8302 66.1159 72.2766 66.4642 72.614V74.1049C66.3989 74.0396 66.3445 73.9744 66.2792 73.9091C65.9962 73.6043 65.7567 73.2452 65.5935 72.8643H65.6044Z" fill="#E7A000"/>
<path fill-rule="evenodd" clip-rule="evenodd" d="M65.7891 67.5636V69.0548L66.4965 69.4574V67.9773L65.7891 67.5636Z" fill="#F8C527"/>
<path fill-rule="evenodd" clip-rule="evenodd" d="M79.8079 67.9773V69.4683L80.5262 69.0548V67.5636L79.8079 67.9773ZM74.9863 76.1511V74.6599C75.6938 74.551 76.4448 74.3878 77.1305 74.1484V75.6393C76.4557 75.8788 75.7047 76.0531 74.9972 76.1511H74.9863ZM80.6677 71.3838V72.875C80.4827 73.2995 80.1888 73.7239 79.7861 74.1048V72.6138C80.1888 72.222 80.4827 71.8083 80.6677 71.3838Z" fill="#DA8D00"/>
<path fill-rule="evenodd" clip-rule="evenodd" d="M64.5928 71.373V72.8643H65.605L65.5941 71.373H64.5928Z" fill="#DA8D00"/>
<path fill-rule="evenodd" clip-rule="evenodd" d="M80.668 71.373V72.8643H81.6802L81.6693 71.373H80.668Z" fill="#F8C527"/>
<path fill-rule="evenodd" clip-rule="evenodd" d="M68.4023 74.551V76.0422L69.1098 75.6394V74.1484L68.4023 74.551Z" fill="#DA8D00"/>
<path fill-rule="evenodd" clip-rule="evenodd" d="M77.1201 74.1484V75.6394L77.8276 76.0422V74.551L77.1201 74.1484Z" fill="#F8C527"/>
<path fill-rule="evenodd" clip-rule="evenodd" d="M77.8271 74.551C78.7849 74.2027 79.7318 73.6913 80.4828 73.0165V74.5077C79.7536 75.1607 78.7632 75.7048 77.8271 76.0422V74.551ZM81.8759 70.2628V71.754C81.8759 72.1241 81.8106 72.4942 81.6691 72.8642V71.373C81.7997 71.0029 81.8759 70.6329 81.8759 70.2628Z" fill="#DA8D00"/>
<path fill-rule="evenodd" clip-rule="evenodd" d="M68.4132 73.0165C71.0035 74.5293 75.2264 74.5293 77.8385 73.0165C80.4507 71.5036 80.4616 69.0656 77.8712 67.5528C75.27 66.0399 71.0471 66.0399 68.4459 67.5528C65.8337 69.0547 65.8228 71.5036 68.4132 73.0165ZM64.6038 69.1962H65.6051C65.7901 68.7718 66.084 68.3474 66.4976 67.9665L65.7902 67.5528C66.1276 67.248 66.5194 66.965 66.9765 66.7038C67.4336 66.4426 67.9343 66.2141 68.4459 66.0182L69.1533 66.4317C69.8281 66.1923 70.5464 66.029 71.2865 65.9202V65.3324C72.5273 65.18 73.8007 65.18 75.0415 65.3324V65.9202C75.7816 66.029 76.4998 66.1923 77.1637 66.4317L77.8821 66.0182C78.4045 66.2141 78.8943 66.4426 79.3514 66.7038C79.8085 66.965 80.2004 67.248 80.5269 67.5528L79.8085 67.9665C80.2112 68.3583 80.5051 68.7718 80.6793 69.1962H81.6806C81.9418 69.9146 81.9418 70.6547 81.6697 71.373H80.6684C80.4833 71.7975 80.1895 72.2221 79.7759 72.603L80.4834 73.0165C80.146 73.3212 79.7541 73.6042 79.297 73.8654C78.8399 74.1267 78.3501 74.3551 77.8277 74.551L77.1202 74.1375C76.4454 74.377 75.7271 74.5402 74.987 74.649V75.2259C73.7462 75.3783 72.4729 75.3783 71.2321 75.2259V74.649C70.492 74.5402 69.7737 74.377 69.1098 74.1375L68.4023 74.551C67.8799 74.3551 67.3901 74.1267 66.9439 73.8654C66.4868 73.6042 66.0949 73.3103 65.7684 73.0165L66.4867 72.603C66.084 72.2112 65.7902 71.7975 65.616 71.373H64.6147C64.3426 70.6547 64.3535 69.9146 64.6256 69.2071L64.6038 69.1962Z" fill="#F4B300"/>
<path fill-rule="evenodd" clip-rule="evenodd" d="M64.5924 71.373V72.8642C64.4727 72.5268 64.3965 72.1459 64.3965 71.7867V70.2955C64.3965 70.4153 64.5162 71.1227 64.5924 71.373ZM74.9864 75.2368V76.7278C73.7674 76.8802 72.4723 76.8802 71.2424 76.7278V75.2368C72.4505 75.3892 73.7674 75.3892 74.9864 75.2368ZM65.7679 74.5077V73.0165C66.5188 73.6913 67.4766 74.2027 68.4017 74.551V76.0422C67.4657 75.6939 66.5188 75.1825 65.7679 74.5077Z" fill="#F8C527"/>
<path fill-rule="evenodd" clip-rule="evenodd" d="M145.591 85.1193C142.206 87.0675 142.195 90.2565 145.558 92.2047C148.921 94.1529 154.418 94.1529 157.802 92.2047C161.187 90.2565 161.198 87.0675 157.846 85.1193C154.483 83.1603 148.987 83.1603 145.602 85.1193H145.591Z" fill="#EAF4FF"/>
<path fill-rule="evenodd" clip-rule="evenodd" d="M157.879 86.7739V88.1559C157.879 87.7641 157.759 87.3616 157.563 87.0133C156.932 86.0011 155.876 85.4242 154.777 85.0542C153.841 84.7603 153.024 84.6189 152.056 84.5863C150.684 84.5536 149.324 84.7385 148.061 85.2718C147.811 85.3807 147.572 85.4896 147.343 85.6311C146.124 86.3385 145.515 87.2635 145.515 88.1777V86.7954C145.515 84.6404 148.246 83.2692 151.163 83.0951C154.418 82.8883 157.879 84.1291 157.879 86.763V86.7739Z" fill="#DA8D00"/>
<path fill-rule="evenodd" clip-rule="evenodd" d="M147.333 84.9452C144.916 86.3384 144.906 88.6133 147.311 90.0173C149.716 91.4104 153.645 91.4104 156.062 90.0173C158.478 88.6241 158.489 86.3493 156.094 84.9452C153.689 83.5521 149.76 83.5521 147.344 84.9452H147.333Z" fill="#F8C527"/>
<path fill-rule="evenodd" clip-rule="evenodd" d="M149.933 90.8444V92.2264C149.28 92.1284 148.594 91.9761 147.963 91.7476V90.3653C148.584 90.583 149.28 90.7464 149.933 90.8444ZM144.698 89.1791L144.644 88.4933L144.698 87.7969C144.872 88.2213 145.188 88.635 145.514 88.9506V90.3326C145.46 90.2782 145.395 90.213 145.34 90.1477C145.079 89.8647 144.85 89.5383 144.709 89.1791H144.698Z" fill="#E7A000"/>
<path fill-rule="evenodd" clip-rule="evenodd" d="M144.872 84.2596V85.6419L145.536 86.0227L145.525 84.6404L144.872 84.2596Z" fill="#F8C527"/>
<path fill-rule="evenodd" clip-rule="evenodd" d="M157.879 84.6404V86.0227L158.542 85.6419V84.2596L157.879 84.6404ZM153.405 92.2264V90.8444C154.069 90.7465 154.755 90.5939 155.386 90.3653V91.7476C154.755 91.9653 154.069 92.1285 153.405 92.2264ZM158.684 87.7969V89.1792C158.521 89.571 158.238 89.9626 157.868 90.3217V88.9397C158.238 88.5806 158.51 88.1996 158.684 87.7969Z" fill="#DA8D00"/>
<path fill-rule="evenodd" clip-rule="evenodd" d="M143.763 87.7969V89.1791H144.699V87.7969H143.763Z" fill="#DA8D00"/>
<path fill-rule="evenodd" clip-rule="evenodd" d="M158.673 87.7969L158.684 89.1791H159.609V87.7969H158.673Z" fill="#F8C527"/>
<path fill-rule="evenodd" clip-rule="evenodd" d="M147.3 90.7463V92.1285L147.964 91.7475L147.953 90.3652L147.3 90.7463Z" fill="#DA8D00"/>
<path fill-rule="evenodd" clip-rule="evenodd" d="M155.386 90.3652V91.7475L156.05 92.1285L156.039 90.7463L155.386 90.3652Z" fill="#F8C527"/>
<path fill-rule="evenodd" clip-rule="evenodd" d="M156.039 90.7463C156.921 90.4198 157.802 89.9517 158.51 89.3205V90.7027C157.835 91.3122 156.921 91.813 156.05 92.1286V90.7463H156.039ZM159.805 86.7629V88.1449C159.805 88.4932 159.74 88.8308 159.62 89.1791V87.7969C159.75 87.4595 159.805 87.1112 159.805 86.7629Z" fill="#DA8D00"/>
<path fill-rule="evenodd" clip-rule="evenodd" d="M147.3 89.3206C149.705 90.7246 153.623 90.7246 156.05 89.3206C158.477 87.9166 158.488 85.6529 156.083 84.2489C153.678 82.8448 149.759 82.8448 147.332 84.2489C144.905 85.642 144.894 87.9166 147.311 89.3206H147.3ZM143.773 85.7834H144.709C144.883 85.3807 145.156 84.9997 145.537 84.6405L144.884 84.2597C145.199 83.9768 145.558 83.7156 145.983 83.4761C146.407 83.2367 146.864 83.0189 147.354 82.8448L148.007 83.2258C148.628 83.0082 149.302 82.8447 149.988 82.7467V82.2026C151.142 82.0611 152.328 82.0611 153.471 82.2026V82.7467C154.157 82.8447 154.82 83.0082 155.441 83.2258L156.105 82.8448C156.584 83.0189 157.041 83.2367 157.465 83.4761C157.89 83.7156 158.249 83.9877 158.554 84.2597L157.89 84.6405C158.26 84.9997 158.532 85.3916 158.706 85.7834H159.642C159.892 86.4473 159.881 87.1331 159.631 87.797H158.695C158.521 88.1997 158.249 88.5807 157.868 88.9398L158.521 89.3206C158.205 89.6036 157.846 89.8648 157.422 90.1042C156.997 90.3437 156.54 90.5614 156.061 90.7356L155.408 90.3545C154.788 90.5722 154.113 90.7248 153.427 90.8336V91.3778C152.274 91.5193 151.087 91.5193 149.944 91.3778V90.8336C149.259 90.7357 148.595 90.5722 147.975 90.3545L147.311 90.7356C146.832 90.5614 146.375 90.3437 145.95 90.1042C145.526 89.8539 145.166 89.5927 144.851 89.3206L145.515 88.9398C145.145 88.5807 144.873 88.1888 144.699 87.797H143.762C143.512 87.1331 143.523 86.4473 143.773 85.7834Z" fill="#F4B300"/>
<path fill-rule="evenodd" clip-rule="evenodd" d="M143.762 87.7969V89.1792C143.653 88.8635 143.588 88.5151 143.588 88.1777V86.7954C143.588 86.9042 143.697 87.5683 143.762 87.7969ZM153.405 91.3777V92.76C152.273 92.9015 151.065 92.9015 149.933 92.76V91.3777C151.054 91.5192 152.284 91.5192 153.405 91.3777ZM144.85 90.7028V89.3205C145.547 89.9518 146.429 90.4199 147.299 90.7464V92.1286C146.439 91.8021 145.547 91.3341 144.85 90.7028Z" fill="#F8C527"/>
<path fill-rule="evenodd" clip-rule="evenodd" d="M157.879 85.2391V86.6214C157.879 86.2296 157.759 85.8268 157.563 85.4785C156.932 84.4663 155.876 83.8894 154.777 83.5194C153.841 83.2255 153.024 83.0841 152.056 83.0515C150.684 83.0188 149.324 83.204 148.061 83.7373C147.811 83.8461 147.572 83.9548 147.343 84.0963C146.124 84.8037 145.515 85.7289 145.515 86.6432V85.2609C145.515 83.1059 148.246 81.7346 151.163 81.5605C154.418 81.3537 157.879 82.5943 157.879 85.2282V85.2391Z" fill="#DA8D00"/>
<path fill-rule="evenodd" clip-rule="evenodd" d="M147.333 83.4216C144.916 84.8147 144.906 87.0893 147.311 88.4933C149.716 89.8865 153.645 89.8865 156.062 88.4933C158.478 87.1002 158.489 84.8256 156.094 83.4216C153.689 82.0284 149.76 82.0284 147.344 83.4216H147.333Z" fill="#F8C527"/>
<path fill-rule="evenodd" clip-rule="evenodd" d="M149.933 89.3095V90.6918C149.28 90.5938 148.594 90.4415 147.963 90.2129V88.8307C148.584 89.0483 149.28 89.2115 149.933 89.3095ZM144.698 87.6442L144.644 86.9587L144.698 86.262C144.872 86.6864 145.188 87.1001 145.514 87.4157V88.798C145.46 88.7436 145.395 88.6783 145.34 88.613C145.079 88.3301 144.85 88.0034 144.709 87.6442H144.698Z" fill="#E7A000"/>
<path fill-rule="evenodd" clip-rule="evenodd" d="M144.872 82.7247V84.107L145.536 84.488L145.525 83.1058L144.872 82.7247Z" fill="#F8C527"/>
<path fill-rule="evenodd" clip-rule="evenodd" d="M157.879 83.1058V84.488L158.542 84.107V82.7247L157.879 83.1058ZM153.405 90.6918V89.3095C154.069 89.2115 154.755 89.0592 155.386 88.8307V90.2129C154.755 90.4306 154.069 90.5938 153.405 90.6918ZM158.684 86.262V87.6442C158.521 88.0361 158.238 88.4279 157.868 88.7871V87.4048C158.238 87.0457 158.51 86.6647 158.684 86.262Z" fill="#DA8D00"/>
<path fill-rule="evenodd" clip-rule="evenodd" d="M143.763 86.262V87.6442H144.699V86.262H143.763Z" fill="#DA8D00"/>
<path fill-rule="evenodd" clip-rule="evenodd" d="M158.673 86.262L158.684 87.6551L159.609 87.6442V86.262H158.673Z" fill="#F8C527"/>
<path fill-rule="evenodd" clip-rule="evenodd" d="M147.3 89.2117V90.6046L147.964 90.213L147.953 88.8307L147.3 89.2117Z" fill="#DA8D00"/>
<path fill-rule="evenodd" clip-rule="evenodd" d="M155.386 88.8307V90.213L156.05 90.6046L156.039 89.2117L155.386 88.8307Z" fill="#F8C527"/>
<path fill-rule="evenodd" clip-rule="evenodd" d="M156.039 89.2118C156.921 88.8853 157.802 88.4172 158.51 87.786V89.1682C157.835 89.7777 156.921 90.2782 156.05 90.5938V89.2118H156.039ZM159.805 85.2281V86.6104C159.805 86.9587 159.74 87.296 159.62 87.6443V86.2621C159.75 85.9247 159.805 85.5764 159.805 85.2281Z" fill="#DA8D00"/>
<path fill-rule="evenodd" clip-rule="evenodd" d="M147.3 87.7969C149.705 89.201 153.623 89.201 156.05 87.7969C158.477 86.3929 158.488 84.1289 156.083 82.7249C153.678 81.3209 149.759 81.3209 147.332 82.7249C144.905 84.1289 144.894 86.3929 147.311 87.7969H147.3ZM143.773 84.2597H144.709C144.883 83.857 145.156 83.476 145.537 83.1168L144.884 82.7358C145.199 82.4528 145.558 82.1916 145.983 81.9522C146.407 81.7128 146.864 81.4953 147.354 81.3211L148.007 81.7019C148.628 81.4842 149.302 81.321 149.988 81.2231V80.6789C151.142 80.5374 152.328 80.5374 153.471 80.6789V81.2231C154.157 81.321 154.82 81.4842 155.441 81.7019L156.105 81.3211C156.584 81.4953 157.041 81.7128 157.465 81.9522C157.89 82.1916 158.249 82.4637 158.554 82.7358L157.89 83.1168C158.26 83.476 158.532 83.8679 158.706 84.2597H159.642C159.892 84.9236 159.881 85.6091 159.631 86.273H158.695C158.521 86.6757 158.249 87.0567 157.868 87.4159L158.521 87.7969C158.205 88.0799 157.846 88.3411 157.422 88.5805C156.997 88.82 156.54 89.0377 156.061 89.2119L155.408 88.8309C154.788 89.0485 154.113 89.2008 153.427 89.3097V89.8539C152.274 89.9954 151.087 89.9954 149.944 89.8539V89.3097C149.259 89.2117 148.595 89.0485 147.975 88.8309L147.311 89.2119C146.832 89.0377 146.375 88.82 145.95 88.5805C145.526 88.3302 145.166 88.069 144.851 87.7969L145.515 87.4159C145.145 87.0567 144.873 86.6649 144.699 86.273H143.762C143.512 85.6091 143.523 84.9236 143.773 84.2597Z" fill="#F4B300"/>
<path fill-rule="evenodd" clip-rule="evenodd" d="M143.762 86.2621V87.6444C143.653 87.3287 143.588 86.9805 143.588 86.6431V85.2609C143.588 85.3697 143.697 86.0335 143.762 86.2621ZM153.405 89.8429V91.2252C152.273 91.3667 151.065 91.3667 149.933 91.2252V89.8429C151.054 89.9844 152.284 89.9844 153.405 89.8429ZM144.85 89.1683V87.786C145.547 88.4172 146.429 88.8853 147.299 89.2118V90.5938C146.439 90.2673 145.547 89.7995 144.85 89.1683Z" fill="#F8C527"/>
<path fill-rule="evenodd" clip-rule="evenodd" d="M157.879 83.7046V85.0869C157.879 84.695 157.759 84.2923 157.563 83.944C156.932 82.9318 155.876 82.3549 154.777 81.9849C153.841 81.691 153.024 81.5496 152.056 81.5169C150.684 81.4843 149.324 81.6692 148.061 82.2025C147.811 82.3113 147.572 82.4202 147.343 82.5617C146.124 83.2692 145.515 84.1944 145.515 85.1086V83.7264C145.515 81.5714 148.246 80.1999 151.163 80.0257C154.418 79.8189 157.879 81.0598 157.879 83.6937V83.7046Z" fill="#DA8D00"/>
<path fill-rule="evenodd" clip-rule="evenodd" d="M147.333 81.8868C144.916 83.2799 144.906 85.5548 147.311 86.9588C149.716 88.3519 153.645 88.3519 156.062 86.9588C158.478 85.5657 158.489 83.2908 156.094 81.8868C153.689 80.4936 149.76 80.4936 147.344 81.8868H147.333Z" fill="#F8C527"/>
<path fill-rule="evenodd" clip-rule="evenodd" d="M149.933 87.7751V89.1573C149.28 89.0594 148.594 88.9071 147.963 88.6785V87.2962C148.584 87.5139 149.28 87.6771 149.933 87.7751ZM144.698 86.1098L144.644 85.424L144.698 84.7275C144.872 85.152 145.188 85.5657 145.514 85.8813V87.2636C145.46 87.2091 145.395 87.1437 145.34 87.0784C145.079 86.7954 144.85 86.469 144.709 86.1098H144.698Z" fill="#E7A000"/>
<path fill-rule="evenodd" clip-rule="evenodd" d="M144.872 81.1903V82.5726L145.536 82.9536L145.525 81.5713L144.872 81.1903Z" fill="#F8C527"/>
<path fill-rule="evenodd" clip-rule="evenodd" d="M157.879 81.5713V82.9536L158.542 82.5726V81.1903L157.879 81.5713ZM153.405 89.1573V87.7751C154.069 87.6771 154.755 87.5248 155.386 87.2963V88.6785C154.755 88.8962 154.069 89.0594 153.405 89.1573ZM158.684 84.7276V86.1098C158.521 86.5016 158.238 86.8935 157.868 87.2527V85.8704C158.238 85.5112 158.51 85.1303 158.684 84.7276Z" fill="#DA8D00"/>
<path fill-rule="evenodd" clip-rule="evenodd" d="M143.763 84.7384V86.1207H144.699V84.7384H143.763Z" fill="#DA8D00"/>
<path fill-rule="evenodd" clip-rule="evenodd" d="M158.673 84.7384L158.684 86.1207H159.609V84.7384H158.673Z" fill="#F8C527"/>
<path fill-rule="evenodd" clip-rule="evenodd" d="M147.3 87.6879V89.0702L147.964 88.6891L147.953 87.3071L147.3 87.6879Z" fill="#DA8D00"/>
<path fill-rule="evenodd" clip-rule="evenodd" d="M155.386 87.3071V88.6891L156.05 89.0702L156.039 87.6879L155.386 87.3071Z" fill="#F8C527"/>
<path fill-rule="evenodd" clip-rule="evenodd" d="M156.039 87.6879C156.921 87.3613 157.802 86.8933 158.51 86.262V87.6443C157.835 88.2538 156.921 88.7545 156.05 89.0701V87.6879H156.039ZM159.805 83.7045V85.0867C159.805 85.435 159.74 85.7724 159.62 86.1206V84.7384C159.75 84.401 159.805 84.0528 159.805 83.7045Z" fill="#DA8D00"/>
<path fill-rule="evenodd" clip-rule="evenodd" d="M147.3 86.2621C149.705 87.6661 153.623 87.6661 156.05 86.2621C158.477 84.8581 158.488 82.5944 156.083 81.1904C153.678 79.7863 149.759 79.7863 147.332 81.1904C144.905 82.5835 144.894 84.8581 147.311 86.2621H147.3ZM143.773 82.7249H144.709C144.883 82.3222 145.156 81.9415 145.537 81.5823L144.884 81.2013C145.199 80.9183 145.558 80.6571 145.983 80.4176C146.407 80.1782 146.864 79.9604 147.354 79.7863L148.007 80.1673C148.628 79.9497 149.302 79.7865 149.988 79.6885V79.1443C151.142 79.0028 152.328 79.0028 153.471 79.1443V79.6885C154.157 79.7865 154.82 79.9497 155.441 80.1673L156.105 79.7863C156.584 79.9604 157.041 80.1782 157.465 80.4176C157.89 80.6571 158.249 80.9292 158.554 81.2013L157.89 81.5823C158.26 81.9415 158.532 82.3331 158.706 82.7249H159.642C159.892 83.3888 159.881 84.0746 159.631 84.7385H158.695C158.521 85.1412 158.249 85.5222 157.868 85.8814L158.521 86.2621C158.205 86.5451 157.846 86.8066 157.422 87.046C156.997 87.2854 156.54 87.5029 156.061 87.6771L155.408 87.2963C154.788 87.514 154.113 87.6663 153.427 87.7751V88.3193C152.274 88.4608 151.087 88.4608 149.944 88.3193V87.7751C149.259 87.6772 148.595 87.514 147.975 87.2963L147.311 87.6771C146.832 87.5029 146.375 87.2854 145.95 87.046C145.526 86.7957 145.166 86.5342 144.851 86.2621L145.515 85.8814C145.145 85.5222 144.873 85.1303 144.699 84.7385H143.762C143.512 84.0746 143.523 83.3888 143.773 82.7249Z" fill="#F4B300"/>
<path fill-rule="evenodd" clip-rule="evenodd" d="M143.762 84.7384V86.1207C143.653 85.805 143.588 85.4568 143.588 85.1195V83.7372C143.588 83.846 143.697 84.5098 143.762 84.7384ZM153.405 88.3192V89.7015C152.273 89.843 151.065 89.843 149.933 89.7015V88.3192C151.054 88.4607 152.284 88.4607 153.405 88.3192ZM144.85 87.6443V86.262C145.547 86.8933 146.429 87.3614 147.299 87.6879V89.0702C146.439 88.7436 145.547 88.2756 144.85 87.6443Z" fill="#F8C527"/>
<defs>
<linearGradient id="paint0_linear_169_17005" x1="47.4943" y1="75.7483" x2="49.6167" y2="81.3317" gradientUnits="userSpaceOnUse">
<stop stop-color="#5F1F3C"/>
<stop offset="1" stop-color="#2A0010"/>
</linearGradient>
</defs>
</svg>
