<svg width="200" height="132" viewBox="0 0 200 132" fill="none" xmlns="http://www.w3.org/2000/svg">
<path fill-rule="evenodd" clip-rule="evenodd" d="M70.4786 44.5677C69.3032 43.8929 67.3876 43.8929 66.2231 44.5677L61.5104 47.2996L58.7568 45.7106C58.3105 45.4494 57.5704 45.4494 57.1351 45.7106L50.3653 49.6504C49.9191 49.9116 49.9191 50.3362 50.3653 50.5974L53.1189 52.1864L48.5151 54.8638C47.3505 55.5386 47.3505 56.6488 48.526 57.3344L53.5652 60.2403L37.2503 69.7201C35.5742 70.6888 35.5851 72.2778 37.2721 73.2465L105.481 112.624C107.168 113.604 109.9 113.593 111.576 112.624L163.296 82.5631C164.972 81.5944 164.961 80.0054 163.274 79.0367L95.0652 39.6591C93.3782 38.6905 90.6464 38.6905 88.9703 39.6591L75.5179 47.4736L70.4786 44.5677Z" fill="#F4F9FF"/>
<path fill-rule="evenodd" clip-rule="evenodd" d="M97.1659 37.3843L43.7372 68.4359L39.2422 65.8672L92.6927 34.8049L97.1659 37.3843Z" fill="#F4B300"/>
<path fill-rule="evenodd" clip-rule="evenodd" d="M51.5631 52.5454L49.321 50.9673C48.7333 50.6299 48.3524 50.3905 47.8408 50.1837V52.2951C47.8408 52.7414 48.1347 53.1986 48.7224 53.536L51.2583 54.9943L54.2405 56.714V54.6026L51.5631 52.5345V52.5454Z" fill="#CDDFF2"/>
<path fill-rule="evenodd" clip-rule="evenodd" d="M54.2616 43.6643C54.1854 43.7078 54.0874 43.8384 54.0874 43.9255C54.033 44.154 54.1527 45.4601 54.1527 45.8084C54.1527 45.7213 54.2289 45.6452 54.3051 45.6016L57.2982 43.8601L57.4614 42.7175L57.3091 41.999L54.2725 43.6643H54.2616Z" fill="#DAEAFA"/>
<path fill-rule="evenodd" clip-rule="evenodd" d="M163.416 76.4465L114.624 104.516C109.694 106.638 107.288 107.422 105.547 106.42L105.656 108.118C107.103 108.956 109.324 109.076 110.989 108.467C111.587 108.249 112.099 107.922 112.654 107.596L163.514 78.0573C164.113 77.709 164.701 77.154 164.766 76.4139C164.798 76.0329 164.766 75.4233 164.744 74.9662C164.744 74.8683 164.744 74.8139 164.744 74.7268L163.416 76.4356V76.4465Z" fill="#CDDFF2"/>
<path fill-rule="evenodd" clip-rule="evenodd" d="M37.4464 67.1191C36.5975 66.6293 36.3036 66.1504 36.2057 65.5192L36.1621 66.9341C36.1621 67.5871 36.5866 68.2292 37.4464 68.7298L105.655 108.107V106.497L37.4464 67.1191Z" fill="#CDDFF2"/>
<path fill-rule="evenodd" clip-rule="evenodd" d="M163.481 73.1487L95.2722 33.7708C93.5852 32.8021 90.8534 32.8021 89.1773 33.7708L37.4573 63.8321C35.7812 64.8007 35.7921 66.3898 37.4791 67.3584L105.688 106.736C107.375 107.716 110.107 107.705 111.783 106.736L163.503 76.6751C165.179 75.7064 165.168 74.1174 163.481 73.1487Z" fill="#ECF5FF"/>
<path fill-rule="evenodd" clip-rule="evenodd" d="M58.0172 41.9012C57.8213 41.7815 57.4947 41.8793 57.2988 41.9881V43.8492C57.4947 43.7295 57.8213 43.7295 58.0172 43.8492L59.3667 44.6331V42.6848L58.0172 41.9012Z" fill="#CDDFF2"/>
<path fill-rule="evenodd" clip-rule="evenodd" d="M51.4209 44.3393C51.1923 44.2087 50.2236 44.4045 50.2236 44.2303V46.3417C50.2236 46.5159 50.3325 46.69 50.561 46.8206L53.3146 48.4098V46.2982L51.4209 44.3502V44.3393Z" fill="#CDDFF2"/>
<path fill-rule="evenodd" clip-rule="evenodd" d="M55.6548 44.9267L54.3052 44.1431C54.1093 44.0233 54.1093 43.8384 54.3052 43.7296L57.2983 41.9881C57.4942 41.8684 57.8207 41.8684 58.0166 41.9881L59.3662 42.7717L55.644 44.9375L55.6548 44.9267ZM70.6745 38.6685C69.4991 37.9937 67.5835 37.9937 66.419 38.6685L61.7062 41.4003L58.9526 39.8113C58.5064 39.5501 57.7663 39.5501 57.3309 39.8113L50.5612 43.7514C50.115 44.0126 50.115 44.4369 50.5612 44.6981L53.3148 46.2871L48.7109 48.9648C47.5464 49.6396 47.5464 50.7498 48.7218 51.4354L54.2399 54.6243L76.1926 41.8685L70.6745 38.6793V38.6685Z" fill="#ECF5FF"/>
<path fill-rule="evenodd" clip-rule="evenodd" d="M114.982 49.4546L98.624 58.967L82.9404 49.9116L99.2988 40.41L114.982 49.4546Z" fill="#F4F9FF"/>
<path fill-rule="evenodd" clip-rule="evenodd" d="M114.308 49.8136L109.421 52.6326L102.684 51.8381L104.098 55.7346L99.2334 58.5751L96.6539 51.109L83.626 49.5524L88.2951 46.8423L95.4567 47.6586L94.02 43.5121L98.6892 40.802L101.421 48.3444L114.308 49.8136Z" fill="#1466A0"/>
<path fill-rule="evenodd" clip-rule="evenodd" d="M134.683 60.8282L118.324 70.3407L102.651 61.2853L119.01 51.7837L134.683 60.8282Z" fill="#F4F9FF"/>
<path fill-rule="evenodd" clip-rule="evenodd" d="M154.382 72.2126L138.023 81.7142L122.351 72.6591L138.709 63.1572L154.382 72.2126Z" fill="#DAEAFA"/>
<path fill-rule="evenodd" clip-rule="evenodd" d="M118.009 50.2273L118.847 51.8708L125.094 64.1913L105.329 62.4389L109.585 59.9683L118.27 60.741L114.94 54.1456L114.112 52.4912L118.009 50.2273Z" fill="#31ACCB"/>
<path fill-rule="evenodd" clip-rule="evenodd" d="M146.382 75.5213L138.404 61.3723L135.771 63.6471L143.999 77.1757L146.382 75.5213Z" fill="#1AC2CB"/>
<path fill-rule="evenodd" clip-rule="evenodd" d="M81.0037 53.6992C81.4173 53.9386 81.4173 54.3196 81.0037 54.559L56.2866 68.9257C55.8838 69.1651 55.209 69.1651 54.8063 68.9257L53.6635 68.2619C53.2608 68.0224 53.25 67.6415 53.6635 67.402L78.3807 53.0354C78.7834 52.796 79.4582 52.796 79.8609 53.0354L81.0037 53.6992Z" fill="#1466A0"/>
<path fill-rule="evenodd" clip-rule="evenodd" d="M90.7885 59.3477L89.9178 58.8471C89.613 58.6729 89.1015 58.6621 88.7859 58.8471L71.5132 68.8819C71.2085 69.0561 71.2085 69.3609 71.5132 69.5351L72.3839 70.0357C72.6995 70.2207 73.2111 70.2207 73.5158 70.0357L90.7885 60.0008C91.0932 59.8158 91.0932 59.5218 90.7885 59.3477ZM71.0779 62.2212C70.9581 62.1559 70.8928 62.0688 70.8602 61.9818C70.8384 61.9273 70.8384 61.8619 70.8602 61.8075C70.8928 61.7204 70.9581 61.6333 71.0779 61.568L82.2556 55.0704C82.5603 54.8963 83.0719 54.8963 83.3875 55.0704L83.7575 55.2772L84.2582 55.571C84.4105 55.6581 84.4867 55.7779 84.4976 55.8976C84.4976 56.0173 84.4214 56.1371 84.2691 56.2242L73.0914 62.7218C72.8628 62.8524 72.5145 62.896 72.2316 62.8198C72.1336 62.7981 72.0465 62.7653 71.9704 62.7218L71.0996 62.2212H71.0779ZM87.3165 57.3452C87.6322 57.5303 87.6322 57.8131 87.3165 57.9981L62.2511 72.5608C61.9463 72.7458 61.4348 72.7458 61.1192 72.5608L60.2484 72.0602C59.9328 71.8752 59.9328 71.5921 60.2484 71.4071L85.3139 56.8446C85.6187 56.6596 86.1302 56.6596 86.4458 56.8446L87.3165 57.3452Z" fill="#C2D6EB"/>
<path fill-rule="evenodd" clip-rule="evenodd" d="M110.499 70.7217C110.815 70.9068 110.815 71.2005 110.499 71.3746L93.2264 81.4095C92.9217 81.5836 92.4101 81.5836 92.0945 81.4095L91.2238 80.9088C90.9081 80.7238 90.9081 80.4301 91.2238 80.256L108.496 70.2208C108.801 70.0358 109.313 70.0358 109.628 70.2208L110.499 70.7217ZM103.958 66.9451L103.087 66.4442C102.772 66.2592 102.271 66.2592 101.955 66.4442L90.7776 72.9418C90.4728 73.1268 90.4728 73.4208 90.7776 73.5949L91.6483 74.0956C91.9639 74.2806 92.4646 74.2697 92.7802 74.0956L103.958 67.5979C104.263 67.4129 104.263 67.1192 103.958 66.9451ZM107.027 68.719L106.156 68.2184C105.841 68.0443 105.34 68.0443 105.024 68.2184L79.959 82.7808C79.6543 82.9659 79.6543 83.2489 79.959 83.434L80.8297 83.9346C81.1454 84.1196 81.646 84.1196 81.9617 83.9346L107.027 69.3721C107.332 69.1871 107.332 68.904 107.027 68.719Z" fill="#C2D6EB"/>
<path fill-rule="evenodd" clip-rule="evenodd" d="M100.714 65.0728C101.117 65.3123 101.127 65.6933 100.714 65.9327L75.9967 80.2993C75.594 80.5388 74.9192 80.5388 74.5165 80.2993L73.3737 79.6355C72.9601 79.3961 72.9601 79.0151 73.3737 78.7757L98.0909 64.4091C98.4936 64.1696 99.1684 64.1696 99.5711 64.4091L100.714 65.0728Z" fill="#31ACCB"/>
<path fill-rule="evenodd" clip-rule="evenodd" d="M134.856 83.5645C135.172 83.7495 135.172 84.0435 134.856 84.2176L117.584 94.2525C117.279 94.4266 116.768 94.4266 116.452 94.2525L115.581 93.7519C115.266 93.5668 115.266 93.2729 115.581 93.0987L132.854 83.0639C133.159 82.8788 133.67 82.8788 133.986 83.0639L134.856 83.5645ZM128.315 79.7878L127.445 79.2872C127.129 79.1022 126.628 79.1022 126.313 79.2872L115.135 85.7848C114.83 85.9698 114.83 86.2638 115.135 86.438L116.006 86.9386C116.321 87.1236 116.822 87.1127 117.138 86.9386L128.315 80.441C128.62 80.2559 128.62 79.9728 128.315 79.7878ZM131.385 81.562L130.514 81.0614C130.198 80.8764 129.698 80.8764 129.382 81.0614L104.316 95.6238C104.012 95.8089 104.012 96.092 104.316 96.277L105.187 96.7776C105.503 96.9626 106.003 96.9626 106.319 96.7776L131.385 82.2149C131.689 82.0299 131.689 81.747 131.385 81.562Z" fill="#C2D6EB"/>
<path fill-rule="evenodd" clip-rule="evenodd" d="M125.681 102.263L142.638 92.6088C144.489 91.7599 147.133 91.096 149.016 92.0755C150.736 92.968 153.555 94.7966 154.806 95.5041C155.753 96.0483 159.051 98.0181 156.994 99.1391C150.954 102.426 144.978 106.116 138.851 109.446C137.686 110.077 135.999 110.306 134.214 110.154C132.44 110.001 130.622 109.49 129.197 108.662C128.174 108.075 127.172 107.487 126.193 106.91C124.865 106.138 124.158 105.223 124.092 104.374C124.027 103.547 124.56 102.785 125.692 102.263H125.681Z" fill="#F4F9FF"/>
<path fill-rule="evenodd" clip-rule="evenodd" d="M143.422 95.9393C142.802 95.874 141.398 95.1666 139.254 94.8618C138.416 94.7421 137.251 94.9815 137.621 96.1896C138.122 97.8113 139.591 98.9977 141.028 99.5637C141.54 99.7705 142.182 99.814 142.791 100.108C143.27 100.336 143.368 100.707 143.727 100.957C144.5 101.501 145.392 101.446 146.024 101.24C146.786 100.989 147.058 100.685 147.243 99.814C147.406 99.0086 147.439 97.561 147.243 96.995C146.96 95.6563 143.814 95.5257 143.433 95.9393H143.422Z" fill="#052F4D"/>
<path fill-rule="evenodd" clip-rule="evenodd" d="M147.177 97.0059C146.938 96.2005 147.177 94.3722 147.384 92.2389L143.281 91.1396C143.596 93.5667 143.629 95.1012 143.248 96.3746C143.52 97.9636 146.426 98.8453 147.177 97.0059Z" fill="#F0B186"/>
<path fill-rule="evenodd" clip-rule="evenodd" d="M147.667 93.4141C146.655 94.9814 143.118 94.1217 142.77 92.1735C142.574 90.9219 148.277 91.5312 147.667 93.4141Z" fill="#052F4D"/>
<path fill-rule="evenodd" clip-rule="evenodd" d="M147.427 93.9693C147.852 90.9763 148.244 83.1725 147.536 80.6039C147.253 79.5482 146.72 78.5906 146.491 76.4574C146.252 74.2045 146.6 72.0058 146.938 69.7855C147.134 68.4468 147.547 66.0525 147.525 64.7464C147.536 62.7764 147.199 60.1532 145.806 57.4322L141.528 57.0297C141.289 58.0419 140.777 62.1668 140.581 64.0824C140.266 67.206 140.19 70.0468 140.451 74.0085C140.875 80.4191 142.834 85.2078 143.009 93.1095C142.987 95.0032 146.753 94.8292 147.427 93.9911V93.9693Z" fill="#0A3C5F"/>
<path fill-rule="evenodd" clip-rule="evenodd" d="M147.536 95.0904C147.569 94.6986 147.634 94.0457 147.689 93.3164C147.199 94.6552 143.357 94.5136 142.769 92.1736C142.769 92.6198 142.693 93.153 142.682 93.6863C142.551 95.4604 146.317 96.6794 147.536 95.0904Z" fill="#052F4D"/>
<path fill-rule="evenodd" clip-rule="evenodd" d="M142.519 97.2128C141.507 98.78 137.948 98.0181 137.6 96.0699C137.404 94.8183 143.129 95.3299 142.519 97.2128Z" fill="#032136"/>
<path fill-rule="evenodd" clip-rule="evenodd" d="M138.263 99.8468C137.643 99.7815 136.239 99.074 134.095 98.7693C133.257 98.6496 132.092 98.889 132.462 100.097C132.963 101.719 134.432 102.905 135.869 103.471C136.38 103.678 137.023 103.721 137.632 104.015C138.111 104.244 138.209 104.614 138.568 104.864C139.341 105.408 140.233 105.354 140.865 105.147C141.626 104.897 141.899 104.592 142.084 103.721C142.247 102.916 142.279 101.468 142.084 100.902C141.801 99.5638 138.655 99.4332 138.274 99.8468H138.263Z" fill="#052F4D"/>
<path fill-rule="evenodd" clip-rule="evenodd" d="M142.018 100.903C141.779 100.097 141.953 98.2467 142.149 96.1135L138.111 95.036C138.426 97.4631 138.459 98.9978 138.078 100.271C138.35 101.86 141.256 102.731 142.007 100.903H142.018Z" fill="#F0B186"/>
<path fill-rule="evenodd" clip-rule="evenodd" d="M141.691 59.8378L137 59.2827C136.086 61.601 134.932 61.7641 134.715 64.5503C133.899 70.1446 134.443 74.5854 135.466 79.9511C136.532 85.5563 137.958 90.5411 137.773 96.3204C137.643 98.5081 141.234 98.4208 142.214 97.7024C142.747 94.7638 142.791 87.5698 142.682 85.676C142.562 83.4992 141.55 81.453 141.408 79.581C141.202 76.8818 142.497 70.8413 143.868 67.119C144.88 64.3545 143.52 61.7098 141.68 59.8378H141.691Z" fill="#0D4D7A"/>
<path fill-rule="evenodd" clip-rule="evenodd" d="M142.366 98.9869C142.399 98.5951 142.464 97.9419 142.519 97.2127C141.55 98.2575 138.263 98.0289 137.599 96.0698C137.599 96.5161 137.523 97.0495 137.512 97.5828C137.381 99.3569 141.147 100.587 142.366 98.9869Z" fill="#0A4369"/>
<path fill-rule="evenodd" clip-rule="evenodd" d="M155.155 36.1655C155.068 35.8934 154.97 35.6104 154.894 35.2839C154.426 33.2921 152.26 31.3329 150.856 29.1452C150.725 28.9384 150.355 28.4052 150.322 28.1658C150.246 27.7195 150.344 26.5985 150.159 26.2829C149.669 25.4122 149.343 24.8463 148.733 24.4327C148.113 24.0082 146.067 22.8654 145.893 23.834C146.088 24.683 146.23 26.1305 146.872 27.3822C147.297 28.2202 147.873 28.71 148.167 29.276C149.31 31.2242 149.484 34.6525 151.117 36.5136C151.868 37.3625 152.194 38.7885 153.13 38.6362C154.012 38.4947 154.545 38.1354 154.861 37.7218C155.274 37.1885 155.351 36.7859 155.166 36.1655H155.155Z" fill="#E7A376"/>
<path fill-rule="evenodd" clip-rule="evenodd" d="M151.096 27.8718L115.679 82.3127L111.119 76.1526L141.496 23.3115L151.096 27.8718Z" fill="#1989A5"/>
<path fill-rule="evenodd" clip-rule="evenodd" d="M110.434 91.8798L115.68 82.3129L111.119 76.1527L110.434 91.8798Z" fill="#DAEAFA"/>
<path fill-rule="evenodd" clip-rule="evenodd" d="M110.434 91.8797L115.68 82.3127L123.527 82.9877L110.434 91.8797Z" fill="#D2E3F4"/>
<path fill-rule="evenodd" clip-rule="evenodd" d="M153.653 30.3098L123.277 83.1509L115.68 82.3128L146.056 29.4718L150.149 28.5795L153.653 30.3098Z" fill="#157C95"/>
<path fill-rule="evenodd" clip-rule="evenodd" d="M156.69 24.9986L153.653 30.3098L146.056 29.4717L141.496 23.3116L144.533 18.0001L152.13 18.8491L156.69 24.9986Z" fill="#31ACCB"/>
<path fill-rule="evenodd" clip-rule="evenodd" d="M150.41 22.234C151.792 23.0611 152.445 24.5413 151.846 25.5209C151.248 26.5004 149.659 26.6202 148.266 25.793C146.883 24.9658 146.23 23.4856 146.829 22.506C147.417 21.5265 149.017 21.3959 150.41 22.234Z" fill="#157C95"/>
<path fill-rule="evenodd" clip-rule="evenodd" d="M110.553 88.9629L109.77 93.2184L112.458 90.4974C111.696 90.5627 110.716 90.0404 110.553 88.9629Z" fill="#1466A0"/>
<path fill-rule="evenodd" clip-rule="evenodd" d="M152.151 39.278C152.336 39.278 152.532 39.2346 152.717 39.1693C155.145 38.3095 155.166 36.1762 154.502 34.7831C153.98 33.6947 152.032 33.3027 150.965 34.6088C150.867 34.7394 150.824 34.8701 150.834 35.0007C150.671 35.0878 150.497 35.1966 150.312 35.3164C148.364 36.5136 142.726 40.0508 143.39 42.0752C143.978 43.8928 145.436 44.2302 146.971 43.4792C148.614 42.6738 150.279 40.965 152.162 39.278H152.151Z" fill="#DAEAFA"/>
<path fill-rule="evenodd" clip-rule="evenodd" d="M145.632 40.6932C147.047 41.2809 147.678 42.4238 147.907 43.7625C148.233 45.6998 147.765 47.7569 147.275 50.0316C146.742 52.524 147.199 55.2776 146.601 58.4774C146.677 59.0434 146.72 59.3917 146.807 59.8488C145.937 63.7779 138.427 66.3027 134.944 62.8743C134.955 62.3736 134.966 61.9276 134.966 61.5032C134.204 59.3046 134.868 57.2256 134.411 55.038C133.736 51.8381 132.495 48.856 133.464 46.3963C133.703 45.7759 134.128 45.4712 134.607 45.0903C135.39 44.459 137.665 43.3814 139.254 42.576V42.6959C140.995 41.6837 142.922 40.7692 144.348 40.5842C144.848 40.5189 145.284 40.5408 145.632 40.6823V40.6932Z" fill="#DAEAFA"/>
<path fill-rule="evenodd" clip-rule="evenodd" d="M138.536 40.9869C138.514 41.7923 138.275 42.2821 138.188 43.3922C139.853 43.8493 142.78 42.8264 142.878 41.3026C142.878 41.1829 142.868 41.0631 142.857 40.9434V40.8998C142.835 40.3447 142.857 39.8441 143.02 39.5938C142.77 39.2999 141.05 39.8333 138.536 40.9869Z" fill="#E7A376"/>
<path fill-rule="evenodd" clip-rule="evenodd" d="M136.859 42.1407C137.175 42.206 138.329 41.7705 138.764 41.6943C139.189 41.6073 142.693 40.6604 142.933 39.8005C142.9 39.5829 142.9 39.3979 142.944 39.2673C143.183 38.5054 143.836 37.5584 143.88 36.4809C143.956 34.7613 143.335 33.0308 141.54 32.2254C138.274 30.7452 135.183 33.1614 135.096 36.5463C135.075 37.2102 135.651 37.417 135.771 37.9504C135.793 38.0592 135.684 38.2006 135.63 38.451C135.553 38.8101 136.381 42.0428 136.859 42.1407Z" fill="#E7A376"/>
<path fill-rule="evenodd" clip-rule="evenodd" d="M136.87 42.119C137.153 42.1843 138.111 41.8468 138.612 41.7271C138.753 41.6944 138.916 41.8032 139.156 41.7271C140.418 41.3788 142.813 40.4754 142.922 39.8115C142.889 39.5938 142.889 39.3979 142.922 39.2564C143.161 38.4945 143.814 37.5478 143.858 36.4703C143.934 34.7507 143.313 33.02 141.517 32.2146C138.622 30.9085 135.891 32.5085 135.238 35.2839C135.085 35.9369 135.031 36.7205 135.314 37.3626C135.444 37.6565 135.651 37.8741 135.597 38.4292C135.564 38.7884 136.369 41.9992 136.837 42.0972L136.87 42.119Z" fill="#E7A376"/>
<path fill-rule="evenodd" clip-rule="evenodd" d="M138.22 39.0277C138.971 37.874 140.636 40.5296 139.058 40.8888C139.504 40.0834 138.786 39.1801 138.22 39.0277Z" fill="#DA9569"/>
<path fill-rule="evenodd" clip-rule="evenodd" d="M138.329 39.4415C138.078 39.0715 138.165 38.8973 138.35 38.8973C138.557 38.8973 138.906 39.1039 139.156 39.4848C139.559 40.1052 139.439 41.0413 138.699 40.8671C139.265 40.7583 139.047 40.0946 138.775 39.7245C138.59 39.4742 138.361 39.3109 138.318 39.4415H138.329Z" fill="#F0B186"/>
<path fill-rule="evenodd" clip-rule="evenodd" d="M138.633 39.561C138.546 39.8876 138.535 40.0835 138.611 40.1706C138.666 40.2359 138.796 40.2793 138.927 40.0725C138.884 39.8658 138.764 39.7025 138.633 39.5719V39.561Z" fill="#DA9569"/>
<path fill-rule="evenodd" clip-rule="evenodd" d="M136.293 35.4578H136.25C134.77 35.0768 134.606 33.5857 135.031 32.9544C135.858 31.7354 138.644 31.1369 140.723 31.6266C141.703 31.8552 142.497 32.4213 143.02 33.4117C143.673 34.2824 143.912 35.3815 143.858 36.4917C143.803 37.8413 143.15 38.6251 142.933 39.6917C142.769 40.0727 142.399 40.3773 141.888 40.3991C140.527 40.4535 139.874 39.1692 138.949 38.7556C138.437 38.5379 137.98 38.5596 138.046 39.4956C138.111 39.8983 138.209 40.3011 138.274 40.6712C138.372 41.2589 138.546 41.3241 138.111 41.6506C137.697 41.9553 136.827 42.3691 136.663 42.3473C136.533 42.3255 136.359 41.6073 136.25 41.074C136.293 41.0631 136.348 41.248 136.37 41.2371C136.413 41.2154 136.468 41.1935 136.533 41.1718C136.457 40.8888 136.413 40.7475 136.293 40.5407C136.184 40.3448 136.119 40.2031 135.956 40.1052C135.891 40.0725 135.825 39.7788 135.825 39.6917C136.141 39.7897 136.391 40.0181 136.576 40.3337C136.707 40.5514 136.783 40.7148 136.903 41.0086C137.164 40.8889 137.436 40.7691 137.512 40.6276C137.708 40.2466 137.654 39.8333 137.599 39.1911C137.349 38.1027 137.262 37.9503 136.489 37.2864C136.272 37.1014 136.152 36.6442 136.282 35.534C136.282 35.5123 136.282 35.4904 136.282 35.4687L136.293 35.4578Z" fill="url(#paint0_linear_73_27657)"/>
<path fill-rule="evenodd" clip-rule="evenodd" d="M135.412 35.0118C135.945 35.4145 137.382 33.8145 139.918 33.6404C138.993 32.1711 138.612 31.8988 137.763 31.6159C136.664 31.2458 135.118 31.899 134.835 32.8677C134.552 33.7928 134.988 34.6852 135.412 35.0118Z" fill="#6A3144"/>
<path fill-rule="evenodd" clip-rule="evenodd" d="M126.041 53.7971C126.041 53.5141 126.084 53.2092 126.073 52.8827C126.008 50.8366 127.597 48.3878 128.381 45.9063C128.457 45.6668 128.664 45.0574 128.642 44.8288C128.598 44.3717 128.217 43.3269 128.315 42.9568C128.566 41.9882 128.729 41.3569 129.208 40.8018C129.698 40.2359 131.374 38.6031 131.798 39.4847C131.831 40.3554 132.07 41.7922 131.766 43.1744C131.57 44.0887 131.134 44.7199 131.004 45.3403C130.405 47.5171 131.123 50.88 130.035 53.0895C129.534 54.1017 129.589 55.5711 128.642 55.6691C127.75 55.7561 127.151 55.5494 126.737 55.2338C126.204 54.8202 126.019 54.461 126.041 53.808V53.7971Z" fill="#F0B186"/>
<path fill-rule="evenodd" clip-rule="evenodd" d="M129.284 50.2272C129.099 50.1075 128.892 50.0529 128.653 50.0856C127.771 50.2053 126.715 51.1523 126.324 52.3604C125.529 54.7875 127.967 56.2895 129.328 55.3861C129.806 55.2447 130.405 54.9072 131.243 54.276C133.061 52.9046 138.35 48.8558 137.501 46.8967C136.75 45.1444 135.259 44.9485 133.812 45.8301C132.331 46.7335 130.895 48.4531 129.295 50.2163L129.284 50.2272Z" fill="#DAEAFA"/>
<defs>
<linearGradient id="paint0_linear_73_27657" x1="139.09" y1="31.8661" x2="139.852" y2="40.6494" gradientUnits="userSpaceOnUse">
<stop stop-color="#5F1F3C"/>
<stop offset="1" stop-color="#2A0010"/>
</linearGradient>
</defs>
</svg>
